<mxfile host="app.diagrams.net" agent="Mozilla/5.0 (Macintosh; Intel Mac OS X 10_15_7) AppleWebKit/537.36 (KHTML, like Gecko) Chrome/131.0.0.0 Safari/537.36" version="26.0.6" pages="2">
  <diagram name="Mapa - APIs " id="G5WoAjSh4rE9EucVPTL_">
    <mxGraphModel dx="3229" dy="1141" grid="1" gridSize="10" guides="1" tooltips="1" connect="1" arrows="1" fold="1" page="1" pageScale="1" pageWidth="1169" pageHeight="827" math="0" shadow="0">
      <root>
        <mxCell id="0" />
        <mxCell id="1" parent="0" />
        <mxCell id="p-4kFKT5CtGWcOaHjdYM-1" style="" parent="0" />
        <mxCell id="p-4kFKT5CtGWcOaHjdYM-2" style="edgeStyle=orthogonalEdgeStyle;curved=1;rounded=0;orthogonalLoop=1;jettySize=auto;html=1;entryX=0.5;entryY=0;entryDx=0;entryDy=0;" parent="p-4kFKT5CtGWcOaHjdYM-1" source="p-4kFKT5CtGWcOaHjdYM-5" target="p-4kFKT5CtGWcOaHjdYM-117" edge="1">
          <mxGeometry relative="1" as="geometry" />
        </mxCell>
        <mxCell id="p-4kFKT5CtGWcOaHjdYM-3" style="edgeStyle=orthogonalEdgeStyle;curved=1;rounded=0;orthogonalLoop=1;jettySize=auto;html=1;entryX=0;entryY=0.5;entryDx=0;entryDy=0;" parent="p-4kFKT5CtGWcOaHjdYM-1" source="p-4kFKT5CtGWcOaHjdYM-5" target="p-4kFKT5CtGWcOaHjdYM-7" edge="1">
          <mxGeometry relative="1" as="geometry" />
        </mxCell>
        <mxCell id="p-4kFKT5CtGWcOaHjdYM-4" style="edgeStyle=orthogonalEdgeStyle;curved=1;rounded=0;orthogonalLoop=1;jettySize=auto;html=1;" parent="p-4kFKT5CtGWcOaHjdYM-1" source="p-4kFKT5CtGWcOaHjdYM-5" target="p-4kFKT5CtGWcOaHjdYM-6" edge="1">
          <mxGeometry relative="1" as="geometry" />
        </mxCell>
        <mxCell id="p-4kFKT5CtGWcOaHjdYM-5" value="bapp-vehicle-rocky-core" style="rounded=1;whiteSpace=wrap;html=1;fillColor=#dae8fc;strokeColor=#6c8ebf;fontSize=12;fontFamily=Helvetica;fontColor=default;labelBackgroundColor=none;" parent="p-4kFKT5CtGWcOaHjdYM-1" vertex="1">
          <mxGeometry x="-690" y="200" width="280" height="60" as="geometry" />
        </mxCell>
        <mxCell id="p-4kFKT5CtGWcOaHjdYM-6" value="&lt;span style=&quot;padding: 0px 0px 0px 2px;&quot;&gt;&lt;span style=&quot;white-space: pre;&quot;&gt;&lt;span&gt;eapi-vehicle-rocky&lt;/span&gt;&lt;/span&gt;&lt;/span&gt;" style="rounded=1;whiteSpace=wrap;html=1;fontSize=12;fontFamily=Helvetica;labelBackgroundColor=none;fontColor=default;" parent="p-4kFKT5CtGWcOaHjdYM-1" vertex="1">
          <mxGeometry x="-340" y="240" width="280" height="60" as="geometry" />
        </mxCell>
        <mxCell id="p-4kFKT5CtGWcOaHjdYM-7" value="&lt;span style=&quot;padding: 0px 0px 0px 2px;&quot;&gt;&lt;span style=&quot;white-space: pre;&quot;&gt;&lt;span&gt;sapi-vehicle-sfdc-rocky-core&lt;/span&gt;&lt;/span&gt;&lt;/span&gt;" style="rounded=1;whiteSpace=wrap;html=1;fontSize=12;fontFamily=Helvetica;labelBackgroundColor=none;fontColor=default;" parent="p-4kFKT5CtGWcOaHjdYM-1" vertex="1">
          <mxGeometry x="-340" y="160" width="280" height="60" as="geometry" />
        </mxCell>
        <mxCell id="p-4kFKT5CtGWcOaHjdYM-8" value="" style="edgeStyle=orthogonalEdgeStyle;curved=1;rounded=0;orthogonalLoop=1;jettySize=auto;html=1;fontSize=12;fontColor=default;fontFamily=Helvetica;" parent="p-4kFKT5CtGWcOaHjdYM-1" source="p-4kFKT5CtGWcOaHjdYM-11" target="p-4kFKT5CtGWcOaHjdYM-12" edge="1">
          <mxGeometry relative="1" as="geometry" />
        </mxCell>
        <mxCell id="p-4kFKT5CtGWcOaHjdYM-9" style="edgeStyle=orthogonalEdgeStyle;curved=1;rounded=0;orthogonalLoop=1;jettySize=auto;html=1;fontSize=12;fontColor=default;fontFamily=Helvetica;" parent="p-4kFKT5CtGWcOaHjdYM-1" source="p-4kFKT5CtGWcOaHjdYM-11" target="p-4kFKT5CtGWcOaHjdYM-109" edge="1">
          <mxGeometry relative="1" as="geometry" />
        </mxCell>
        <mxCell id="p-4kFKT5CtGWcOaHjdYM-10" style="edgeStyle=orthogonalEdgeStyle;curved=1;rounded=0;orthogonalLoop=1;jettySize=auto;html=1;entryX=1;entryY=0.5;entryDx=0;entryDy=0;fontSize=12;fontColor=default;fontFamily=Helvetica;" parent="p-4kFKT5CtGWcOaHjdYM-1" source="p-4kFKT5CtGWcOaHjdYM-11" target="p-4kFKT5CtGWcOaHjdYM-110" edge="1">
          <mxGeometry relative="1" as="geometry" />
        </mxCell>
        <mxCell id="p-4kFKT5CtGWcOaHjdYM-11" value="eapi-contentdocument-processing-template" style="rounded=1;whiteSpace=wrap;html=1;fillColor=#dae8fc;strokeColor=#6c8ebf;fontSize=12;fontColor=default;fontFamily=Helvetica;" parent="p-4kFKT5CtGWcOaHjdYM-1" vertex="1">
          <mxGeometry x="-690" y="540" width="280" height="60" as="geometry" />
        </mxCell>
        <mxCell id="p-4kFKT5CtGWcOaHjdYM-12" value="sapi-contentdocument-processing-template" style="rounded=1;whiteSpace=wrap;html=1;fontSize=12;fontColor=default;fontFamily=Helvetica;" parent="p-4kFKT5CtGWcOaHjdYM-1" vertex="1">
          <mxGeometry x="-340" y="480" width="280" height="60" as="geometry" />
        </mxCell>
        <mxCell id="p-4kFKT5CtGWcOaHjdYM-13" style="edgeStyle=orthogonalEdgeStyle;curved=1;rounded=0;orthogonalLoop=1;jettySize=auto;html=1;entryX=0.974;entryY=0.515;entryDx=0;entryDy=0;fontSize=12;fontColor=default;fontFamily=Helvetica;entryPerimeter=0;" parent="p-4kFKT5CtGWcOaHjdYM-1" source="p-4kFKT5CtGWcOaHjdYM-15" target="p-4kFKT5CtGWcOaHjdYM-111" edge="1">
          <mxGeometry relative="1" as="geometry" />
        </mxCell>
        <mxCell id="p-4kFKT5CtGWcOaHjdYM-14" style="edgeStyle=orthogonalEdgeStyle;curved=1;rounded=0;orthogonalLoop=1;jettySize=auto;html=1;entryX=0;entryY=0.5;entryDx=0;entryDy=0;" parent="p-4kFKT5CtGWcOaHjdYM-1" source="p-4kFKT5CtGWcOaHjdYM-15" target="p-4kFKT5CtGWcOaHjdYM-116" edge="1">
          <mxGeometry relative="1" as="geometry" />
        </mxCell>
        <mxCell id="p-4kFKT5CtGWcOaHjdYM-15" value="eapi-esorder-esl-onecrm-template" style="rounded=1;whiteSpace=wrap;html=1;fillColor=#dae8fc;strokeColor=#6c8ebf;fontFamily=Helvetica;fontSize=12;fontColor=default;" parent="p-4kFKT5CtGWcOaHjdYM-1" vertex="1">
          <mxGeometry x="-690" y="880" width="280" height="60" as="geometry" />
        </mxCell>
        <mxCell id="p-4kFKT5CtGWcOaHjdYM-16" style="edgeStyle=orthogonalEdgeStyle;curved=1;rounded=0;orthogonalLoop=1;jettySize=auto;html=1;entryX=1;entryY=0.5;entryDx=0;entryDy=0;" parent="p-4kFKT5CtGWcOaHjdYM-1" source="p-4kFKT5CtGWcOaHjdYM-21" target="p-4kFKT5CtGWcOaHjdYM-114" edge="1">
          <mxGeometry relative="1" as="geometry" />
        </mxCell>
        <mxCell id="p-4kFKT5CtGWcOaHjdYM-17" style="edgeStyle=orthogonalEdgeStyle;curved=1;rounded=0;orthogonalLoop=1;jettySize=auto;html=1;entryX=1;entryY=0.5;entryDx=0;entryDy=0;" parent="p-4kFKT5CtGWcOaHjdYM-1" source="p-4kFKT5CtGWcOaHjdYM-21" target="p-4kFKT5CtGWcOaHjdYM-115" edge="1">
          <mxGeometry relative="1" as="geometry" />
        </mxCell>
        <mxCell id="p-4kFKT5CtGWcOaHjdYM-18" style="edgeStyle=orthogonalEdgeStyle;curved=1;rounded=0;orthogonalLoop=1;jettySize=auto;html=1;entryX=0;entryY=0.5;entryDx=0;entryDy=0;" parent="p-4kFKT5CtGWcOaHjdYM-1" source="p-4kFKT5CtGWcOaHjdYM-21" target="p-4kFKT5CtGWcOaHjdYM-118" edge="1">
          <mxGeometry relative="1" as="geometry" />
        </mxCell>
        <mxCell id="p-4kFKT5CtGWcOaHjdYM-19" style="edgeStyle=orthogonalEdgeStyle;curved=1;rounded=0;orthogonalLoop=1;jettySize=auto;html=1;entryX=0;entryY=0.5;entryDx=0;entryDy=0;" parent="p-4kFKT5CtGWcOaHjdYM-1" source="p-4kFKT5CtGWcOaHjdYM-21" target="p-4kFKT5CtGWcOaHjdYM-112" edge="1">
          <mxGeometry relative="1" as="geometry" />
        </mxCell>
        <mxCell id="p-4kFKT5CtGWcOaHjdYM-20" style="edgeStyle=orthogonalEdgeStyle;curved=1;rounded=0;orthogonalLoop=1;jettySize=auto;html=1;" parent="p-4kFKT5CtGWcOaHjdYM-1" source="p-4kFKT5CtGWcOaHjdYM-21" target="p-4kFKT5CtGWcOaHjdYM-113" edge="1">
          <mxGeometry relative="1" as="geometry" />
        </mxCell>
        <mxCell id="p-4kFKT5CtGWcOaHjdYM-21" value="&lt;table style=&quot;border-collapse: collapse; width: 228pt; line-height: 100%;&quot; width=&quot;304&quot; cellspacing=&quot;0&quot; cellpadding=&quot;0&quot; border=&quot;0&quot;&gt;&lt;colgroup&gt;&lt;col style=&quot;width: 228pt;&quot; width=&quot;304&quot;&gt;&lt;/colgroup&gt;&lt;tbody&gt;&lt;tr style=&quot;height: 16pt;&quot; height=&quot;21&quot;&gt;&lt;td style=&quot;padding-top: 1px; padding-right: 1px; padding-left: 1px; vertical-align: bottom; border: none; text-wrap: nowrap; height: 16pt; width: 228pt;&quot; width=&quot;304&quot; height=&quot;21&quot;&gt;&lt;sup style=&quot;line-height: 100%;&quot;&gt;&lt;font style=&quot;line-height: 100%;&quot;&gt;papi-case-rocky-generic&lt;/font&gt;&lt;/sup&gt;&lt;/td&gt;&lt;/tr&gt;&lt;/tbody&gt;&lt;/table&gt;" style="rounded=1;whiteSpace=wrap;html=1;fillColor=#dae8fc;strokeColor=#6c8ebf;fontFamily=Helvetica;fontSize=12;align=center;fontColor=default;" parent="p-4kFKT5CtGWcOaHjdYM-1" vertex="1">
          <mxGeometry x="-690" y="1220.5" width="280" height="60" as="geometry" />
        </mxCell>
        <mxCell id="p-4kFKT5CtGWcOaHjdYM-22" style="edgeStyle=orthogonalEdgeStyle;curved=1;rounded=0;orthogonalLoop=1;jettySize=auto;html=1;entryX=0;entryY=0.5;entryDx=0;entryDy=0;fontFamily=Helvetica;fontSize=6;fontStyle=0;fontColor=default;" parent="p-4kFKT5CtGWcOaHjdYM-1" source="p-4kFKT5CtGWcOaHjdYM-30" target="p-4kFKT5CtGWcOaHjdYM-119" edge="1">
          <mxGeometry relative="1" as="geometry" />
        </mxCell>
        <mxCell id="p-4kFKT5CtGWcOaHjdYM-23" style="edgeStyle=orthogonalEdgeStyle;curved=1;rounded=0;orthogonalLoop=1;jettySize=auto;html=1;entryX=0;entryY=0.5;entryDx=0;entryDy=0;fontFamily=Helvetica;fontSize=6;fontStyle=0;fontColor=default;" parent="p-4kFKT5CtGWcOaHjdYM-1" source="p-4kFKT5CtGWcOaHjdYM-30" target="p-4kFKT5CtGWcOaHjdYM-120" edge="1">
          <mxGeometry relative="1" as="geometry" />
        </mxCell>
        <mxCell id="p-4kFKT5CtGWcOaHjdYM-24" style="edgeStyle=orthogonalEdgeStyle;curved=1;rounded=0;orthogonalLoop=1;jettySize=auto;html=1;entryX=0;entryY=0.5;entryDx=0;entryDy=0;fontFamily=Helvetica;fontSize=6;fontStyle=0;fontColor=default;" parent="p-4kFKT5CtGWcOaHjdYM-1" source="p-4kFKT5CtGWcOaHjdYM-30" target="p-4kFKT5CtGWcOaHjdYM-121" edge="1">
          <mxGeometry relative="1" as="geometry" />
        </mxCell>
        <mxCell id="p-4kFKT5CtGWcOaHjdYM-25" style="edgeStyle=orthogonalEdgeStyle;curved=1;rounded=0;orthogonalLoop=1;jettySize=auto;html=1;entryX=0;entryY=0.5;entryDx=0;entryDy=0;" parent="p-4kFKT5CtGWcOaHjdYM-1" source="p-4kFKT5CtGWcOaHjdYM-30" target="p-4kFKT5CtGWcOaHjdYM-122" edge="1">
          <mxGeometry relative="1" as="geometry" />
        </mxCell>
        <mxCell id="p-4kFKT5CtGWcOaHjdYM-26" style="edgeStyle=orthogonalEdgeStyle;curved=1;rounded=0;orthogonalLoop=1;jettySize=auto;html=1;entryX=1;entryY=0.5;entryDx=0;entryDy=0;" parent="p-4kFKT5CtGWcOaHjdYM-1" source="p-4kFKT5CtGWcOaHjdYM-30" target="p-4kFKT5CtGWcOaHjdYM-123" edge="1">
          <mxGeometry relative="1" as="geometry" />
        </mxCell>
        <mxCell id="p-4kFKT5CtGWcOaHjdYM-27" style="edgeStyle=orthogonalEdgeStyle;curved=1;rounded=0;orthogonalLoop=1;jettySize=auto;html=1;" parent="p-4kFKT5CtGWcOaHjdYM-1" source="p-4kFKT5CtGWcOaHjdYM-30" target="p-4kFKT5CtGWcOaHjdYM-124" edge="1">
          <mxGeometry relative="1" as="geometry" />
        </mxCell>
        <mxCell id="p-4kFKT5CtGWcOaHjdYM-28" style="edgeStyle=orthogonalEdgeStyle;curved=1;rounded=0;orthogonalLoop=1;jettySize=auto;html=1;entryX=1;entryY=0.5;entryDx=0;entryDy=0;" parent="p-4kFKT5CtGWcOaHjdYM-1" source="p-4kFKT5CtGWcOaHjdYM-30" target="p-4kFKT5CtGWcOaHjdYM-125" edge="1">
          <mxGeometry relative="1" as="geometry" />
        </mxCell>
        <mxCell id="p-4kFKT5CtGWcOaHjdYM-29" style="edgeStyle=orthogonalEdgeStyle;curved=1;rounded=0;orthogonalLoop=1;jettySize=auto;html=1;entryX=1;entryY=0.5;entryDx=0;entryDy=0;" parent="p-4kFKT5CtGWcOaHjdYM-1" source="p-4kFKT5CtGWcOaHjdYM-30" target="p-4kFKT5CtGWcOaHjdYM-126" edge="1">
          <mxGeometry relative="1" as="geometry" />
        </mxCell>
        <mxCell id="p-4kFKT5CtGWcOaHjdYM-30" value="&lt;table style=&quot;border-collapse: collapse; width: 228pt; line-height: 100%;&quot; width=&quot;304&quot; cellspacing=&quot;0&quot; cellpadding=&quot;0&quot; border=&quot;0&quot;&gt;&lt;colgroup&gt;&lt;col style=&quot;width: 228pt;&quot; width=&quot;304&quot;&gt;&lt;/colgroup&gt;&lt;tbody&gt;&lt;tr style=&quot;height: 16pt;&quot; height=&quot;21&quot;&gt;&lt;td style=&quot;padding-top: 1px; padding-right: 1px; padding-left: 1px; vertical-align: bottom; border: none; text-wrap: nowrap; height: 16pt; width: 228pt;&quot; width=&quot;304&quot; height=&quot;21&quot;&gt;&lt;sup style=&quot;line-height: 100%;&quot;&gt;&lt;font face=&quot;Helvetica&quot; style=&quot;line-height: 100%;&quot;&gt;papi-customer-rocky-generic&lt;/font&gt;&lt;/sup&gt;&lt;/td&gt;&lt;/tr&gt;&lt;/tbody&gt;&lt;/table&gt;" style="rounded=1;whiteSpace=wrap;html=1;fillColor=#dae8fc;strokeColor=#6c8ebf;fontFamily=Helvetica;fontSize=12;align=center;fontColor=default;" parent="p-4kFKT5CtGWcOaHjdYM-1" vertex="1">
          <mxGeometry x="-690" y="1560" width="280" height="60" as="geometry" />
        </mxCell>
        <mxCell id="p-4kFKT5CtGWcOaHjdYM-31" style="edgeStyle=orthogonalEdgeStyle;curved=1;rounded=0;orthogonalLoop=1;jettySize=auto;html=1;entryX=0;entryY=0.5;entryDx=0;entryDy=0;fontSize=11;" parent="p-4kFKT5CtGWcOaHjdYM-1" source="p-4kFKT5CtGWcOaHjdYM-39" target="p-4kFKT5CtGWcOaHjdYM-130" edge="1">
          <mxGeometry relative="1" as="geometry" />
        </mxCell>
        <mxCell id="p-4kFKT5CtGWcOaHjdYM-32" style="edgeStyle=orthogonalEdgeStyle;curved=1;rounded=0;orthogonalLoop=1;jettySize=auto;html=1;entryX=0;entryY=0.5;entryDx=0;entryDy=0;fontSize=11;" parent="p-4kFKT5CtGWcOaHjdYM-1" source="p-4kFKT5CtGWcOaHjdYM-39" target="p-4kFKT5CtGWcOaHjdYM-129" edge="1">
          <mxGeometry relative="1" as="geometry" />
        </mxCell>
        <mxCell id="p-4kFKT5CtGWcOaHjdYM-33" style="edgeStyle=orthogonalEdgeStyle;curved=1;rounded=0;orthogonalLoop=1;jettySize=auto;html=1;entryX=0;entryY=0.5;entryDx=0;entryDy=0;fontSize=11;" parent="p-4kFKT5CtGWcOaHjdYM-1" source="p-4kFKT5CtGWcOaHjdYM-39" target="p-4kFKT5CtGWcOaHjdYM-128" edge="1">
          <mxGeometry relative="1" as="geometry" />
        </mxCell>
        <mxCell id="p-4kFKT5CtGWcOaHjdYM-34" style="edgeStyle=orthogonalEdgeStyle;curved=1;rounded=0;orthogonalLoop=1;jettySize=auto;html=1;entryX=0;entryY=0.5;entryDx=0;entryDy=0;fontSize=11;" parent="p-4kFKT5CtGWcOaHjdYM-1" source="p-4kFKT5CtGWcOaHjdYM-39" target="p-4kFKT5CtGWcOaHjdYM-132" edge="1">
          <mxGeometry relative="1" as="geometry" />
        </mxCell>
        <mxCell id="p-4kFKT5CtGWcOaHjdYM-35" style="edgeStyle=orthogonalEdgeStyle;curved=1;rounded=0;orthogonalLoop=1;jettySize=auto;html=1;entryX=1;entryY=0.5;entryDx=0;entryDy=0;" parent="p-4kFKT5CtGWcOaHjdYM-1" source="p-4kFKT5CtGWcOaHjdYM-39" target="p-4kFKT5CtGWcOaHjdYM-133" edge="1">
          <mxGeometry relative="1" as="geometry" />
        </mxCell>
        <mxCell id="p-4kFKT5CtGWcOaHjdYM-36" style="edgeStyle=orthogonalEdgeStyle;curved=1;rounded=0;orthogonalLoop=1;jettySize=auto;html=1;" parent="p-4kFKT5CtGWcOaHjdYM-1" source="p-4kFKT5CtGWcOaHjdYM-39" target="p-4kFKT5CtGWcOaHjdYM-134" edge="1">
          <mxGeometry relative="1" as="geometry" />
        </mxCell>
        <mxCell id="p-4kFKT5CtGWcOaHjdYM-37" style="edgeStyle=orthogonalEdgeStyle;curved=1;rounded=0;orthogonalLoop=1;jettySize=auto;html=1;" parent="p-4kFKT5CtGWcOaHjdYM-1" source="p-4kFKT5CtGWcOaHjdYM-39" target="p-4kFKT5CtGWcOaHjdYM-135" edge="1">
          <mxGeometry relative="1" as="geometry" />
        </mxCell>
        <mxCell id="p-4kFKT5CtGWcOaHjdYM-38" style="edgeStyle=orthogonalEdgeStyle;curved=1;rounded=0;orthogonalLoop=1;jettySize=auto;html=1;entryX=1;entryY=0.5;entryDx=0;entryDy=0;" parent="p-4kFKT5CtGWcOaHjdYM-1" source="p-4kFKT5CtGWcOaHjdYM-39" target="p-4kFKT5CtGWcOaHjdYM-136" edge="1">
          <mxGeometry relative="1" as="geometry" />
        </mxCell>
        <mxCell id="p-4kFKT5CtGWcOaHjdYM-39" value="papi-lead-rocky-generic" style="rounded=1;whiteSpace=wrap;html=1;fillColor=#dae8fc;strokeColor=#6c8ebf;fontFamily=Helvetica;fontSize=12;align=center;fontColor=default;fontStyle=0" parent="p-4kFKT5CtGWcOaHjdYM-1" vertex="1">
          <mxGeometry x="-691" y="1900" width="280" height="60" as="geometry" />
        </mxCell>
        <mxCell id="p-4kFKT5CtGWcOaHjdYM-40" style="edgeStyle=orthogonalEdgeStyle;curved=1;rounded=0;orthogonalLoop=1;jettySize=auto;html=1;entryX=0;entryY=0.5;entryDx=0;entryDy=0;" parent="p-4kFKT5CtGWcOaHjdYM-1" source="p-4kFKT5CtGWcOaHjdYM-44" target="p-4kFKT5CtGWcOaHjdYM-140" edge="1">
          <mxGeometry relative="1" as="geometry" />
        </mxCell>
        <mxCell id="p-4kFKT5CtGWcOaHjdYM-41" style="edgeStyle=orthogonalEdgeStyle;curved=1;rounded=0;orthogonalLoop=1;jettySize=auto;html=1;entryX=0;entryY=0.5;entryDx=0;entryDy=0;" parent="p-4kFKT5CtGWcOaHjdYM-1" source="p-4kFKT5CtGWcOaHjdYM-44" target="p-4kFKT5CtGWcOaHjdYM-138" edge="1">
          <mxGeometry relative="1" as="geometry" />
        </mxCell>
        <mxCell id="p-4kFKT5CtGWcOaHjdYM-42" style="edgeStyle=orthogonalEdgeStyle;curved=1;rounded=0;orthogonalLoop=1;jettySize=auto;html=1;entryX=0;entryY=0.5;entryDx=0;entryDy=0;" parent="p-4kFKT5CtGWcOaHjdYM-1" source="p-4kFKT5CtGWcOaHjdYM-44" target="p-4kFKT5CtGWcOaHjdYM-142" edge="1">
          <mxGeometry relative="1" as="geometry" />
        </mxCell>
        <mxCell id="p-4kFKT5CtGWcOaHjdYM-43" style="edgeStyle=orthogonalEdgeStyle;curved=1;rounded=0;orthogonalLoop=1;jettySize=auto;html=1;entryX=1;entryY=0.5;entryDx=0;entryDy=0;" parent="p-4kFKT5CtGWcOaHjdYM-1" source="p-4kFKT5CtGWcOaHjdYM-44" target="p-4kFKT5CtGWcOaHjdYM-143" edge="1">
          <mxGeometry relative="1" as="geometry" />
        </mxCell>
        <mxCell id="p-4kFKT5CtGWcOaHjdYM-44" value="papi-order-onecrm-template" style="rounded=1;whiteSpace=wrap;html=1;fillColor=#dae8fc;strokeColor=#6c8ebf;fontFamily=Helvetica;fontSize=12;align=center;fontColor=default;" parent="p-4kFKT5CtGWcOaHjdYM-1" vertex="1">
          <mxGeometry x="-691.5" y="2240" width="280" height="60" as="geometry" />
        </mxCell>
        <mxCell id="p-4kFKT5CtGWcOaHjdYM-45" style="edgeStyle=orthogonalEdgeStyle;curved=1;rounded=0;orthogonalLoop=1;jettySize=auto;html=1;entryX=0;entryY=0.5;entryDx=0;entryDy=0;" parent="p-4kFKT5CtGWcOaHjdYM-1" source="p-4kFKT5CtGWcOaHjdYM-51" target="p-4kFKT5CtGWcOaHjdYM-163" edge="1">
          <mxGeometry relative="1" as="geometry" />
        </mxCell>
        <mxCell id="p-4kFKT5CtGWcOaHjdYM-46" style="edgeStyle=orthogonalEdgeStyle;curved=1;rounded=0;orthogonalLoop=1;jettySize=auto;html=1;entryX=0;entryY=0.5;entryDx=0;entryDy=0;" parent="p-4kFKT5CtGWcOaHjdYM-1" source="p-4kFKT5CtGWcOaHjdYM-51" target="p-4kFKT5CtGWcOaHjdYM-162" edge="1">
          <mxGeometry relative="1" as="geometry">
            <mxPoint x="900" y="230" as="targetPoint" />
          </mxGeometry>
        </mxCell>
        <mxCell id="p-4kFKT5CtGWcOaHjdYM-47" style="edgeStyle=orthogonalEdgeStyle;curved=1;rounded=0;orthogonalLoop=1;jettySize=auto;html=1;entryX=0;entryY=0.5;entryDx=0;entryDy=0;" parent="p-4kFKT5CtGWcOaHjdYM-1" source="p-4kFKT5CtGWcOaHjdYM-51" target="p-4kFKT5CtGWcOaHjdYM-164" edge="1">
          <mxGeometry relative="1" as="geometry" />
        </mxCell>
        <mxCell id="p-4kFKT5CtGWcOaHjdYM-48" style="edgeStyle=orthogonalEdgeStyle;curved=1;rounded=0;orthogonalLoop=1;jettySize=auto;html=1;entryX=0;entryY=0.5;entryDx=0;entryDy=0;" parent="p-4kFKT5CtGWcOaHjdYM-1" source="p-4kFKT5CtGWcOaHjdYM-51" target="p-4kFKT5CtGWcOaHjdYM-165" edge="1">
          <mxGeometry relative="1" as="geometry" />
        </mxCell>
        <mxCell id="p-4kFKT5CtGWcOaHjdYM-49" style="edgeStyle=orthogonalEdgeStyle;curved=1;rounded=0;orthogonalLoop=1;jettySize=auto;html=1;entryX=1;entryY=0.5;entryDx=0;entryDy=0;" parent="p-4kFKT5CtGWcOaHjdYM-1" source="p-4kFKT5CtGWcOaHjdYM-51" target="p-4kFKT5CtGWcOaHjdYM-166" edge="1">
          <mxGeometry relative="1" as="geometry" />
        </mxCell>
        <mxCell id="p-4kFKT5CtGWcOaHjdYM-50" style="edgeStyle=orthogonalEdgeStyle;curved=1;rounded=0;orthogonalLoop=1;jettySize=auto;html=1;entryX=1;entryY=0.5;entryDx=0;entryDy=0;" parent="p-4kFKT5CtGWcOaHjdYM-1" source="p-4kFKT5CtGWcOaHjdYM-51" target="p-4kFKT5CtGWcOaHjdYM-167" edge="1">
          <mxGeometry relative="1" as="geometry" />
        </mxCell>
        <mxCell id="p-4kFKT5CtGWcOaHjdYM-51" value="papi-vehicle-rocky-template" style="rounded=1;whiteSpace=wrap;html=1;fillColor=#dae8fc;strokeColor=#6c8ebf;fontFamily=Helvetica;fontSize=12;align=center;fontColor=default;" parent="p-4kFKT5CtGWcOaHjdYM-1" vertex="1">
          <mxGeometry x="550" y="200" width="280" height="60" as="geometry" />
        </mxCell>
        <mxCell id="p-4kFKT5CtGWcOaHjdYM-52" style="edgeStyle=orthogonalEdgeStyle;curved=1;rounded=0;orthogonalLoop=1;jettySize=auto;html=1;entryX=0;entryY=0.5;entryDx=0;entryDy=0;" parent="p-4kFKT5CtGWcOaHjdYM-1" source="p-4kFKT5CtGWcOaHjdYM-59" target="p-4kFKT5CtGWcOaHjdYM-171" edge="1">
          <mxGeometry relative="1" as="geometry" />
        </mxCell>
        <mxCell id="p-4kFKT5CtGWcOaHjdYM-53" style="edgeStyle=orthogonalEdgeStyle;curved=1;rounded=0;orthogonalLoop=1;jettySize=auto;html=1;entryX=0;entryY=0.5;entryDx=0;entryDy=0;" parent="p-4kFKT5CtGWcOaHjdYM-1" source="p-4kFKT5CtGWcOaHjdYM-59" target="p-4kFKT5CtGWcOaHjdYM-172" edge="1">
          <mxGeometry relative="1" as="geometry" />
        </mxCell>
        <mxCell id="p-4kFKT5CtGWcOaHjdYM-54" style="edgeStyle=orthogonalEdgeStyle;curved=1;rounded=0;orthogonalLoop=1;jettySize=auto;html=1;entryX=0;entryY=0.5;entryDx=0;entryDy=0;" parent="p-4kFKT5CtGWcOaHjdYM-1" source="p-4kFKT5CtGWcOaHjdYM-59" target="p-4kFKT5CtGWcOaHjdYM-173" edge="1">
          <mxGeometry relative="1" as="geometry" />
        </mxCell>
        <mxCell id="p-4kFKT5CtGWcOaHjdYM-55" style="edgeStyle=orthogonalEdgeStyle;curved=1;rounded=0;orthogonalLoop=1;jettySize=auto;html=1;entryX=1;entryY=0.5;entryDx=0;entryDy=0;" parent="p-4kFKT5CtGWcOaHjdYM-1" source="p-4kFKT5CtGWcOaHjdYM-59" target="p-4kFKT5CtGWcOaHjdYM-176" edge="1">
          <mxGeometry relative="1" as="geometry" />
        </mxCell>
        <mxCell id="p-4kFKT5CtGWcOaHjdYM-56" style="edgeStyle=orthogonalEdgeStyle;curved=1;rounded=0;orthogonalLoop=1;jettySize=auto;html=1;entryX=1;entryY=0.5;entryDx=0;entryDy=0;" parent="p-4kFKT5CtGWcOaHjdYM-1" source="p-4kFKT5CtGWcOaHjdYM-59" target="p-4kFKT5CtGWcOaHjdYM-177" edge="1">
          <mxGeometry relative="1" as="geometry" />
        </mxCell>
        <mxCell id="p-4kFKT5CtGWcOaHjdYM-57" style="edgeStyle=orthogonalEdgeStyle;curved=1;rounded=0;orthogonalLoop=1;jettySize=auto;html=1;entryX=1;entryY=0.5;entryDx=0;entryDy=0;" parent="p-4kFKT5CtGWcOaHjdYM-1" source="p-4kFKT5CtGWcOaHjdYM-59" target="p-4kFKT5CtGWcOaHjdYM-174" edge="1">
          <mxGeometry relative="1" as="geometry" />
        </mxCell>
        <mxCell id="p-4kFKT5CtGWcOaHjdYM-58" style="edgeStyle=orthogonalEdgeStyle;curved=1;rounded=0;orthogonalLoop=1;jettySize=auto;html=1;entryX=1;entryY=0.5;entryDx=0;entryDy=0;" parent="p-4kFKT5CtGWcOaHjdYM-1" source="p-4kFKT5CtGWcOaHjdYM-59" target="p-4kFKT5CtGWcOaHjdYM-175" edge="1">
          <mxGeometry relative="1" as="geometry" />
        </mxCell>
        <mxCell id="p-4kFKT5CtGWcOaHjdYM-59" value="sapi-case-sfdc-rocky-generic" style="rounded=1;whiteSpace=wrap;html=1;fillColor=#dae8fc;strokeColor=#6c8ebf;fontFamily=Helvetica;fontSize=12;align=center;fontColor=default;" parent="p-4kFKT5CtGWcOaHjdYM-1" vertex="1">
          <mxGeometry x="550" y="880" width="280" height="60" as="geometry" />
        </mxCell>
        <mxCell id="p-4kFKT5CtGWcOaHjdYM-60" style="edgeStyle=orthogonalEdgeStyle;curved=1;rounded=0;orthogonalLoop=1;jettySize=auto;html=1;entryX=0;entryY=0.5;entryDx=0;entryDy=0;" parent="p-4kFKT5CtGWcOaHjdYM-1" source="p-4kFKT5CtGWcOaHjdYM-63" target="p-4kFKT5CtGWcOaHjdYM-178" edge="1">
          <mxGeometry relative="1" as="geometry" />
        </mxCell>
        <mxCell id="p-4kFKT5CtGWcOaHjdYM-61" style="edgeStyle=orthogonalEdgeStyle;curved=1;rounded=0;orthogonalLoop=1;jettySize=auto;html=1;" parent="p-4kFKT5CtGWcOaHjdYM-1" source="p-4kFKT5CtGWcOaHjdYM-63" target="p-4kFKT5CtGWcOaHjdYM-179" edge="1">
          <mxGeometry relative="1" as="geometry" />
        </mxCell>
        <mxCell id="p-4kFKT5CtGWcOaHjdYM-62" style="edgeStyle=orthogonalEdgeStyle;curved=1;rounded=0;orthogonalLoop=1;jettySize=auto;html=1;entryX=1;entryY=0.5;entryDx=0;entryDy=0;" parent="p-4kFKT5CtGWcOaHjdYM-1" source="p-4kFKT5CtGWcOaHjdYM-63" target="p-4kFKT5CtGWcOaHjdYM-180" edge="1">
          <mxGeometry relative="1" as="geometry" />
        </mxCell>
        <mxCell id="p-4kFKT5CtGWcOaHjdYM-63" value="sapi-customer-sfdc-audibr-onecrm" style="rounded=1;whiteSpace=wrap;html=1;fillColor=#dae8fc;strokeColor=#6c8ebf;fontFamily=Helvetica;fontSize=12;align=center;fontColor=default;" parent="p-4kFKT5CtGWcOaHjdYM-1" vertex="1">
          <mxGeometry x="550" y="1220" width="280" height="60" as="geometry" />
        </mxCell>
        <mxCell id="p-4kFKT5CtGWcOaHjdYM-64" style="edgeStyle=orthogonalEdgeStyle;curved=1;rounded=0;orthogonalLoop=1;jettySize=auto;html=1;" parent="p-4kFKT5CtGWcOaHjdYM-1" source="p-4kFKT5CtGWcOaHjdYM-72" target="p-4kFKT5CtGWcOaHjdYM-181" edge="1">
          <mxGeometry relative="1" as="geometry" />
        </mxCell>
        <mxCell id="p-4kFKT5CtGWcOaHjdYM-65" style="edgeStyle=orthogonalEdgeStyle;curved=1;rounded=0;orthogonalLoop=1;jettySize=auto;html=1;" parent="p-4kFKT5CtGWcOaHjdYM-1" source="p-4kFKT5CtGWcOaHjdYM-72" target="p-4kFKT5CtGWcOaHjdYM-182" edge="1">
          <mxGeometry relative="1" as="geometry" />
        </mxCell>
        <mxCell id="p-4kFKT5CtGWcOaHjdYM-66" style="edgeStyle=orthogonalEdgeStyle;curved=1;rounded=0;orthogonalLoop=1;jettySize=auto;html=1;entryX=1;entryY=0.5;entryDx=0;entryDy=0;" parent="p-4kFKT5CtGWcOaHjdYM-1" source="p-4kFKT5CtGWcOaHjdYM-72" target="p-4kFKT5CtGWcOaHjdYM-187" edge="1">
          <mxGeometry relative="1" as="geometry" />
        </mxCell>
        <mxCell id="p-4kFKT5CtGWcOaHjdYM-67" style="edgeStyle=orthogonalEdgeStyle;curved=1;rounded=0;orthogonalLoop=1;jettySize=auto;html=1;entryX=1;entryY=0.5;entryDx=0;entryDy=0;" parent="p-4kFKT5CtGWcOaHjdYM-1" source="p-4kFKT5CtGWcOaHjdYM-72" target="p-4kFKT5CtGWcOaHjdYM-188" edge="1">
          <mxGeometry relative="1" as="geometry" />
        </mxCell>
        <mxCell id="p-4kFKT5CtGWcOaHjdYM-68" style="edgeStyle=orthogonalEdgeStyle;curved=1;rounded=0;orthogonalLoop=1;jettySize=auto;html=1;entryX=1;entryY=0.5;entryDx=0;entryDy=0;" parent="p-4kFKT5CtGWcOaHjdYM-1" source="p-4kFKT5CtGWcOaHjdYM-72" target="p-4kFKT5CtGWcOaHjdYM-185" edge="1">
          <mxGeometry relative="1" as="geometry" />
        </mxCell>
        <mxCell id="p-4kFKT5CtGWcOaHjdYM-69" style="edgeStyle=orthogonalEdgeStyle;curved=1;rounded=0;orthogonalLoop=1;jettySize=auto;html=1;entryX=1;entryY=0.5;entryDx=0;entryDy=0;" parent="p-4kFKT5CtGWcOaHjdYM-1" source="p-4kFKT5CtGWcOaHjdYM-72" target="p-4kFKT5CtGWcOaHjdYM-186" edge="1">
          <mxGeometry relative="1" as="geometry" />
        </mxCell>
        <mxCell id="p-4kFKT5CtGWcOaHjdYM-70" style="edgeStyle=orthogonalEdgeStyle;curved=1;rounded=0;orthogonalLoop=1;jettySize=auto;html=1;entryX=1;entryY=0.5;entryDx=0;entryDy=0;" parent="p-4kFKT5CtGWcOaHjdYM-1" source="p-4kFKT5CtGWcOaHjdYM-72" target="p-4kFKT5CtGWcOaHjdYM-183" edge="1">
          <mxGeometry relative="1" as="geometry" />
        </mxCell>
        <mxCell id="p-4kFKT5CtGWcOaHjdYM-71" style="edgeStyle=orthogonalEdgeStyle;curved=1;rounded=0;orthogonalLoop=1;jettySize=auto;html=1;entryX=1;entryY=0.5;entryDx=0;entryDy=0;" parent="p-4kFKT5CtGWcOaHjdYM-1" source="p-4kFKT5CtGWcOaHjdYM-72" target="p-4kFKT5CtGWcOaHjdYM-184" edge="1">
          <mxGeometry relative="1" as="geometry" />
        </mxCell>
        <mxCell id="p-4kFKT5CtGWcOaHjdYM-72" value="sapi-customer-sfdc-rocky-generic" style="rounded=1;whiteSpace=wrap;html=1;fillColor=#dae8fc;strokeColor=#6c8ebf;fontFamily=Helvetica;fontSize=12;align=center;fontColor=default;" parent="p-4kFKT5CtGWcOaHjdYM-1" vertex="1">
          <mxGeometry x="550" y="1560" width="280" height="60" as="geometry" />
        </mxCell>
        <mxCell id="p-4kFKT5CtGWcOaHjdYM-73" style="edgeStyle=orthogonalEdgeStyle;curved=1;rounded=0;orthogonalLoop=1;jettySize=auto;html=1;entryX=0.5;entryY=0;entryDx=0;entryDy=0;" parent="p-4kFKT5CtGWcOaHjdYM-1" source="p-4kFKT5CtGWcOaHjdYM-77" target="p-4kFKT5CtGWcOaHjdYM-189" edge="1">
          <mxGeometry relative="1" as="geometry" />
        </mxCell>
        <mxCell id="p-4kFKT5CtGWcOaHjdYM-74" style="edgeStyle=orthogonalEdgeStyle;curved=1;rounded=0;orthogonalLoop=1;jettySize=auto;html=1;entryX=0.5;entryY=0;entryDx=0;entryDy=0;" parent="p-4kFKT5CtGWcOaHjdYM-1" source="p-4kFKT5CtGWcOaHjdYM-77" target="p-4kFKT5CtGWcOaHjdYM-190" edge="1">
          <mxGeometry relative="1" as="geometry" />
        </mxCell>
        <mxCell id="p-4kFKT5CtGWcOaHjdYM-75" style="edgeStyle=orthogonalEdgeStyle;curved=1;rounded=0;orthogonalLoop=1;jettySize=auto;html=1;" parent="p-4kFKT5CtGWcOaHjdYM-1" source="p-4kFKT5CtGWcOaHjdYM-77" target="p-4kFKT5CtGWcOaHjdYM-191" edge="1">
          <mxGeometry relative="1" as="geometry" />
        </mxCell>
        <mxCell id="p-4kFKT5CtGWcOaHjdYM-76" style="edgeStyle=orthogonalEdgeStyle;curved=1;rounded=0;orthogonalLoop=1;jettySize=auto;html=1;" parent="p-4kFKT5CtGWcOaHjdYM-1" source="p-4kFKT5CtGWcOaHjdYM-77" target="p-4kFKT5CtGWcOaHjdYM-192" edge="1">
          <mxGeometry relative="1" as="geometry" />
        </mxCell>
        <mxCell id="p-4kFKT5CtGWcOaHjdYM-77" value="sapi-file-processor-api-template" style="rounded=1;whiteSpace=wrap;html=1;fillColor=#dae8fc;strokeColor=#6c8ebf;fontFamily=Helvetica;fontSize=12;align=center;fontColor=default;" parent="p-4kFKT5CtGWcOaHjdYM-1" vertex="1">
          <mxGeometry x="550" y="1900" width="280" height="60" as="geometry" />
        </mxCell>
        <mxCell id="p-4kFKT5CtGWcOaHjdYM-78" style="edgeStyle=orthogonalEdgeStyle;curved=1;rounded=0;orthogonalLoop=1;jettySize=auto;html=1;entryX=1;entryY=0.5;entryDx=0;entryDy=0;" parent="p-4kFKT5CtGWcOaHjdYM-1" source="p-4kFKT5CtGWcOaHjdYM-81" target="p-4kFKT5CtGWcOaHjdYM-195" edge="1">
          <mxGeometry relative="1" as="geometry" />
        </mxCell>
        <mxCell id="p-4kFKT5CtGWcOaHjdYM-79" style="edgeStyle=orthogonalEdgeStyle;curved=1;rounded=0;orthogonalLoop=1;jettySize=auto;html=1;" parent="p-4kFKT5CtGWcOaHjdYM-1" source="p-4kFKT5CtGWcOaHjdYM-81" target="p-4kFKT5CtGWcOaHjdYM-194" edge="1">
          <mxGeometry relative="1" as="geometry" />
        </mxCell>
        <mxCell id="p-4kFKT5CtGWcOaHjdYM-80" style="edgeStyle=orthogonalEdgeStyle;curved=1;rounded=0;orthogonalLoop=1;jettySize=auto;html=1;" parent="p-4kFKT5CtGWcOaHjdYM-1" source="p-4kFKT5CtGWcOaHjdYM-81" target="p-4kFKT5CtGWcOaHjdYM-193" edge="1">
          <mxGeometry relative="1" as="geometry" />
        </mxCell>
        <mxCell id="p-4kFKT5CtGWcOaHjdYM-81" value="sapi-lead-audibr-onecrm-template" style="rounded=1;whiteSpace=wrap;html=1;fillColor=#dae8fc;strokeColor=#6c8ebf;fontFamily=Helvetica;fontSize=12;align=center;fontColor=default;" parent="p-4kFKT5CtGWcOaHjdYM-1" vertex="1">
          <mxGeometry x="550" y="2240" width="280" height="60" as="geometry" />
        </mxCell>
        <mxCell id="p-4kFKT5CtGWcOaHjdYM-82" style="edgeStyle=orthogonalEdgeStyle;curved=1;rounded=0;orthogonalLoop=1;jettySize=auto;html=1;entryX=1;entryY=0.5;entryDx=0;entryDy=0;" parent="p-4kFKT5CtGWcOaHjdYM-1" source="p-4kFKT5CtGWcOaHjdYM-88" target="p-4kFKT5CtGWcOaHjdYM-204" edge="1">
          <mxGeometry relative="1" as="geometry" />
        </mxCell>
        <mxCell id="p-4kFKT5CtGWcOaHjdYM-83" style="edgeStyle=orthogonalEdgeStyle;curved=1;rounded=0;orthogonalLoop=1;jettySize=auto;html=1;entryX=1;entryY=0.5;entryDx=0;entryDy=0;" parent="p-4kFKT5CtGWcOaHjdYM-1" source="p-4kFKT5CtGWcOaHjdYM-88" target="p-4kFKT5CtGWcOaHjdYM-205" edge="1">
          <mxGeometry relative="1" as="geometry" />
        </mxCell>
        <mxCell id="p-4kFKT5CtGWcOaHjdYM-84" style="edgeStyle=orthogonalEdgeStyle;curved=1;rounded=0;orthogonalLoop=1;jettySize=auto;html=1;" parent="p-4kFKT5CtGWcOaHjdYM-1" source="p-4kFKT5CtGWcOaHjdYM-88" target="p-4kFKT5CtGWcOaHjdYM-202" edge="1">
          <mxGeometry relative="1" as="geometry" />
        </mxCell>
        <mxCell id="p-4kFKT5CtGWcOaHjdYM-85" style="edgeStyle=orthogonalEdgeStyle;curved=1;rounded=0;orthogonalLoop=1;jettySize=auto;html=1;entryX=1;entryY=0.5;entryDx=0;entryDy=0;" parent="p-4kFKT5CtGWcOaHjdYM-1" source="p-4kFKT5CtGWcOaHjdYM-88" target="p-4kFKT5CtGWcOaHjdYM-203" edge="1">
          <mxGeometry relative="1" as="geometry" />
        </mxCell>
        <mxCell id="p-4kFKT5CtGWcOaHjdYM-86" style="edgeStyle=orthogonalEdgeStyle;curved=1;rounded=0;orthogonalLoop=1;jettySize=auto;html=1;" parent="p-4kFKT5CtGWcOaHjdYM-1" source="p-4kFKT5CtGWcOaHjdYM-88" target="p-4kFKT5CtGWcOaHjdYM-200" edge="1">
          <mxGeometry relative="1" as="geometry" />
        </mxCell>
        <mxCell id="p-4kFKT5CtGWcOaHjdYM-87" style="edgeStyle=orthogonalEdgeStyle;curved=1;rounded=0;orthogonalLoop=1;jettySize=auto;html=1;entryX=0;entryY=0.5;entryDx=0;entryDy=0;" parent="p-4kFKT5CtGWcOaHjdYM-1" source="p-4kFKT5CtGWcOaHjdYM-88" target="p-4kFKT5CtGWcOaHjdYM-201" edge="1">
          <mxGeometry relative="1" as="geometry" />
        </mxCell>
        <mxCell id="p-4kFKT5CtGWcOaHjdYM-88" value="sapi-lead-sfdc-rocky-generic" style="rounded=1;whiteSpace=wrap;html=1;fillColor=#dae8fc;strokeColor=#6c8ebf;fontFamily=Helvetica;fontSize=12;align=center;fontColor=default;" parent="p-4kFKT5CtGWcOaHjdYM-1" vertex="1">
          <mxGeometry x="1790" y="538" width="280" height="60" as="geometry" />
        </mxCell>
        <mxCell id="p-4kFKT5CtGWcOaHjdYM-89" style="edgeStyle=orthogonalEdgeStyle;curved=1;rounded=0;orthogonalLoop=1;jettySize=auto;html=1;entryX=0;entryY=0.5;entryDx=0;entryDy=0;" parent="p-4kFKT5CtGWcOaHjdYM-1" source="p-4kFKT5CtGWcOaHjdYM-95" target="p-4kFKT5CtGWcOaHjdYM-209" edge="1">
          <mxGeometry relative="1" as="geometry" />
        </mxCell>
        <mxCell id="p-4kFKT5CtGWcOaHjdYM-90" style="edgeStyle=orthogonalEdgeStyle;curved=1;rounded=0;orthogonalLoop=1;jettySize=auto;html=1;" parent="p-4kFKT5CtGWcOaHjdYM-1" source="p-4kFKT5CtGWcOaHjdYM-95" target="p-4kFKT5CtGWcOaHjdYM-208" edge="1">
          <mxGeometry relative="1" as="geometry" />
        </mxCell>
        <mxCell id="p-4kFKT5CtGWcOaHjdYM-91" style="edgeStyle=orthogonalEdgeStyle;curved=1;rounded=0;orthogonalLoop=1;jettySize=auto;html=1;" parent="p-4kFKT5CtGWcOaHjdYM-1" source="p-4kFKT5CtGWcOaHjdYM-95" target="p-4kFKT5CtGWcOaHjdYM-206" edge="1">
          <mxGeometry relative="1" as="geometry" />
        </mxCell>
        <mxCell id="p-4kFKT5CtGWcOaHjdYM-92" style="edgeStyle=orthogonalEdgeStyle;curved=1;rounded=0;orthogonalLoop=1;jettySize=auto;html=1;entryX=0;entryY=0.5;entryDx=0;entryDy=0;" parent="p-4kFKT5CtGWcOaHjdYM-1" source="p-4kFKT5CtGWcOaHjdYM-95" target="p-4kFKT5CtGWcOaHjdYM-207" edge="1">
          <mxGeometry relative="1" as="geometry" />
        </mxCell>
        <mxCell id="p-4kFKT5CtGWcOaHjdYM-93" style="edgeStyle=orthogonalEdgeStyle;curved=1;rounded=0;orthogonalLoop=1;jettySize=auto;html=1;entryX=1;entryY=0.5;entryDx=0;entryDy=0;" parent="p-4kFKT5CtGWcOaHjdYM-1" source="p-4kFKT5CtGWcOaHjdYM-95" target="p-4kFKT5CtGWcOaHjdYM-210" edge="1">
          <mxGeometry relative="1" as="geometry" />
        </mxCell>
        <mxCell id="p-4kFKT5CtGWcOaHjdYM-94" style="edgeStyle=orthogonalEdgeStyle;curved=1;rounded=0;orthogonalLoop=1;jettySize=auto;html=1;entryX=0.5;entryY=0;entryDx=0;entryDy=0;" parent="p-4kFKT5CtGWcOaHjdYM-1" source="p-4kFKT5CtGWcOaHjdYM-95" target="p-4kFKT5CtGWcOaHjdYM-211" edge="1">
          <mxGeometry relative="1" as="geometry" />
        </mxCell>
        <mxCell id="p-4kFKT5CtGWcOaHjdYM-95" value="sapi-order-audibr-onecrm" style="rounded=1;whiteSpace=wrap;html=1;fillColor=#dae8fc;strokeColor=#6c8ebf;fontFamily=Helvetica;fontSize=12;align=center;fontColor=default;" parent="p-4kFKT5CtGWcOaHjdYM-1" vertex="1">
          <mxGeometry x="1790" y="880" width="280" height="60" as="geometry" />
        </mxCell>
        <mxCell id="p-4kFKT5CtGWcOaHjdYM-96" style="edgeStyle=orthogonalEdgeStyle;curved=1;rounded=0;orthogonalLoop=1;jettySize=auto;html=1;entryX=0;entryY=0.5;entryDx=0;entryDy=0;" parent="p-4kFKT5CtGWcOaHjdYM-1" source="p-4kFKT5CtGWcOaHjdYM-100" target="p-4kFKT5CtGWcOaHjdYM-223" edge="1">
          <mxGeometry relative="1" as="geometry" />
        </mxCell>
        <mxCell id="p-4kFKT5CtGWcOaHjdYM-97" style="edgeStyle=orthogonalEdgeStyle;curved=1;rounded=0;orthogonalLoop=1;jettySize=auto;html=1;entryX=0;entryY=0.5;entryDx=0;entryDy=0;" parent="p-4kFKT5CtGWcOaHjdYM-1" source="p-4kFKT5CtGWcOaHjdYM-100" target="p-4kFKT5CtGWcOaHjdYM-224" edge="1">
          <mxGeometry relative="1" as="geometry" />
        </mxCell>
        <mxCell id="p-4kFKT5CtGWcOaHjdYM-98" style="edgeStyle=orthogonalEdgeStyle;curved=1;rounded=0;orthogonalLoop=1;jettySize=auto;html=1;entryX=0;entryY=0.5;entryDx=0;entryDy=0;" parent="p-4kFKT5CtGWcOaHjdYM-1" source="p-4kFKT5CtGWcOaHjdYM-100" target="p-4kFKT5CtGWcOaHjdYM-222" edge="1">
          <mxGeometry relative="1" as="geometry" />
        </mxCell>
        <mxCell id="p-4kFKT5CtGWcOaHjdYM-99" style="edgeStyle=orthogonalEdgeStyle;curved=1;rounded=0;orthogonalLoop=1;jettySize=auto;html=1;entryX=0.5;entryY=0;entryDx=0;entryDy=0;" parent="p-4kFKT5CtGWcOaHjdYM-1" source="p-4kFKT5CtGWcOaHjdYM-100" target="p-4kFKT5CtGWcOaHjdYM-225" edge="1">
          <mxGeometry relative="1" as="geometry" />
        </mxCell>
        <mxCell id="p-4kFKT5CtGWcOaHjdYM-100" value="sapi-vehicle-audibr-onecrm" style="rounded=1;whiteSpace=wrap;html=1;fillColor=#dae8fc;strokeColor=#6c8ebf;fontFamily=Helvetica;fontSize=12;align=center;fontColor=default;" parent="p-4kFKT5CtGWcOaHjdYM-1" vertex="1">
          <mxGeometry x="1790" y="1560" width="280" height="60" as="geometry" />
        </mxCell>
        <mxCell id="p-4kFKT5CtGWcOaHjdYM-101" style="edgeStyle=orthogonalEdgeStyle;curved=1;rounded=0;orthogonalLoop=1;jettySize=auto;html=1;entryX=1;entryY=0.5;entryDx=0;entryDy=0;" parent="p-4kFKT5CtGWcOaHjdYM-1" source="p-4kFKT5CtGWcOaHjdYM-108" target="p-4kFKT5CtGWcOaHjdYM-228" edge="1">
          <mxGeometry relative="1" as="geometry" />
        </mxCell>
        <mxCell id="p-4kFKT5CtGWcOaHjdYM-102" style="edgeStyle=orthogonalEdgeStyle;curved=1;rounded=0;orthogonalLoop=1;jettySize=auto;html=1;entryX=1;entryY=0.5;entryDx=0;entryDy=0;" parent="p-4kFKT5CtGWcOaHjdYM-1" source="p-4kFKT5CtGWcOaHjdYM-108" target="p-4kFKT5CtGWcOaHjdYM-229" edge="1">
          <mxGeometry relative="1" as="geometry" />
        </mxCell>
        <mxCell id="p-4kFKT5CtGWcOaHjdYM-103" style="edgeStyle=orthogonalEdgeStyle;curved=1;rounded=0;orthogonalLoop=1;jettySize=auto;html=1;entryX=1;entryY=0.5;entryDx=0;entryDy=0;" parent="p-4kFKT5CtGWcOaHjdYM-1" source="p-4kFKT5CtGWcOaHjdYM-108" target="p-4kFKT5CtGWcOaHjdYM-226" edge="1">
          <mxGeometry relative="1" as="geometry" />
        </mxCell>
        <mxCell id="p-4kFKT5CtGWcOaHjdYM-104" style="edgeStyle=orthogonalEdgeStyle;curved=1;rounded=0;orthogonalLoop=1;jettySize=auto;html=1;entryX=1;entryY=0.5;entryDx=0;entryDy=0;" parent="p-4kFKT5CtGWcOaHjdYM-1" source="p-4kFKT5CtGWcOaHjdYM-108" target="p-4kFKT5CtGWcOaHjdYM-227" edge="1">
          <mxGeometry relative="1" as="geometry" />
        </mxCell>
        <mxCell id="p-4kFKT5CtGWcOaHjdYM-105" style="edgeStyle=orthogonalEdgeStyle;curved=1;rounded=0;orthogonalLoop=1;jettySize=auto;html=1;entryX=1;entryY=0.5;entryDx=0;entryDy=0;" parent="p-4kFKT5CtGWcOaHjdYM-1" source="p-4kFKT5CtGWcOaHjdYM-108" target="p-4kFKT5CtGWcOaHjdYM-230" edge="1">
          <mxGeometry relative="1" as="geometry" />
        </mxCell>
        <mxCell id="p-4kFKT5CtGWcOaHjdYM-106" style="edgeStyle=orthogonalEdgeStyle;curved=1;rounded=0;orthogonalLoop=1;jettySize=auto;html=1;entryX=0;entryY=0.5;entryDx=0;entryDy=0;" parent="p-4kFKT5CtGWcOaHjdYM-1" source="p-4kFKT5CtGWcOaHjdYM-108" target="p-4kFKT5CtGWcOaHjdYM-231" edge="1">
          <mxGeometry relative="1" as="geometry" />
        </mxCell>
        <mxCell id="p-4kFKT5CtGWcOaHjdYM-107" style="edgeStyle=orthogonalEdgeStyle;curved=1;rounded=0;orthogonalLoop=1;jettySize=auto;html=1;" parent="p-4kFKT5CtGWcOaHjdYM-1" source="p-4kFKT5CtGWcOaHjdYM-108" target="p-4kFKT5CtGWcOaHjdYM-232" edge="1">
          <mxGeometry relative="1" as="geometry" />
        </mxCell>
        <mxCell id="p-4kFKT5CtGWcOaHjdYM-108" value="sapi-vehicle-sfdc-rocky-core" style="rounded=1;whiteSpace=wrap;html=1;fillColor=#dae8fc;strokeColor=#6c8ebf;fontFamily=Helvetica;fontSize=12;align=center;fontColor=default;" parent="p-4kFKT5CtGWcOaHjdYM-1" vertex="1">
          <mxGeometry x="1790" y="1900" width="280" height="60" as="geometry" />
        </mxCell>
        <mxCell id="p-4kFKT5CtGWcOaHjdYM-109" value="Audi Smart" style="shape=image;verticalLabelPosition=middle;labelBackgroundColor=default;verticalAlign=middle;aspect=fixed;imageAspect=0;image=https://d22e4d61ky6061.cloudfront.net/sites/default/files/Salesforce_0.png;fontSize=12;fontColor=default;fontFamily=Helvetica;labelPosition=right;align=left;" parent="p-4kFKT5CtGWcOaHjdYM-1" vertex="1">
          <mxGeometry x="-340" y="560" width="90" height="90" as="geometry" />
        </mxCell>
        <mxCell id="p-4kFKT5CtGWcOaHjdYM-110" value="POST&lt;br&gt;&lt;span style=&quot;background-color: rgb(255, 255, 255); padding: 0px 0px 0px 2px;&quot;&gt;&lt;span style=&quot;white-space: pre;&quot;&gt;&lt;span style=&quot;&quot;&gt;&lt;font&gt;/billing-content-documents&lt;/font&gt;&lt;/span&gt;&lt;/span&gt;&lt;/span&gt;" style="rounded=1;whiteSpace=wrap;html=1;fontSize=12;fontColor=default;fontFamily=Helvetica;" parent="p-4kFKT5CtGWcOaHjdYM-1" vertex="1">
          <mxGeometry x="-915" y="550" width="170" height="40" as="geometry" />
        </mxCell>
        <mxCell id="p-4kFKT5CtGWcOaHjdYM-111" value="POST&lt;br&gt;&lt;span style=&quot;background-color: rgb(255, 255, 255); padding: 0px 0px 0px 2px;&quot;&gt;&lt;span style=&quot;white-space: pre;&quot;&gt;&lt;span style=&quot;&quot;&gt;&lt;font&gt;/&lt;/font&gt;&lt;/span&gt;&lt;/span&gt;&lt;/span&gt;&lt;span style=&quot;background-color:#ffffff;padding:0px 0px 0px 2px;&quot;&gt;&lt;span style=&quot;white-space: pre;&quot;&gt;&lt;span style=&quot;&quot;&gt;orders&lt;/span&gt;&lt;/span&gt;&lt;/span&gt;" style="rounded=1;whiteSpace=wrap;html=1;fontSize=12;fontColor=default;fontFamily=Helvetica;" parent="p-4kFKT5CtGWcOaHjdYM-1" vertex="1">
          <mxGeometry x="-860" y="890" width="115" height="40" as="geometry" />
        </mxCell>
        <mxCell id="p-4kFKT5CtGWcOaHjdYM-112" value="&lt;h1&gt;&lt;table border=&quot;0&quot; cellpadding=&quot;0&quot; cellspacing=&quot;0&quot; width=&quot;304&quot; style=&quot;border-collapse: collapse; width: 228pt; line-height: 100%;&quot;&gt;&lt;colgroup&gt;&lt;col width=&quot;304&quot; style=&quot;width: 228pt;&quot;&gt;&lt;/colgroup&gt;&lt;tbody&gt;&lt;tr height=&quot;21&quot; style=&quot;height: 16pt;&quot;&gt;&lt;td height=&quot;21&quot; width=&quot;304&quot; style=&quot;padding-top: 1px; padding-right: 1px; padding-left: 1px; vertical-align: bottom; border: none; text-wrap: nowrap; height: 16pt; width: 228pt;&quot;&gt;&lt;sup&gt;&lt;font style=&quot;font-size: 12px; font-weight: normal;&quot;&gt;sapi-case-sfdc-rocky-generic&lt;/font&gt;&lt;/sup&gt;&lt;/td&gt;&lt;/tr&gt;&lt;/tbody&gt;&lt;/table&gt;&lt;/h1&gt;" style="rounded=1;whiteSpace=wrap;html=1;fontSize=12;fontColor=default;fontFamily=Helvetica;spacing=0;verticalAlign=middle;align=center;horizontal=1;" parent="p-4kFKT5CtGWcOaHjdYM-1" vertex="1">
          <mxGeometry x="-340" y="1150" width="280" height="60" as="geometry" />
        </mxCell>
        <mxCell id="p-4kFKT5CtGWcOaHjdYM-113" value="&lt;h1&gt;&lt;table border=&quot;0&quot; cellpadding=&quot;0&quot; cellspacing=&quot;0&quot; width=&quot;304&quot; style=&quot;border-collapse: collapse; width: 228pt; line-height: 100%;&quot;&gt;&lt;colgroup&gt;&lt;col width=&quot;304&quot; style=&quot;width: 228pt;&quot;&gt;&lt;/colgroup&gt;&lt;tbody&gt;&lt;tr height=&quot;21&quot; style=&quot;height: 16pt;&quot;&gt;&lt;td height=&quot;21&quot; width=&quot;304&quot; style=&quot;padding-top: 1px; padding-right: 1px; padding-left: 1px; vertical-align: bottom; border: none; text-wrap: nowrap; height: 16pt; width: 228pt;&quot;&gt;&lt;span style=&quot;padding: 0px 0px 0px 2px;&quot;&gt;&lt;span style=&quot;font-family: Menlo; white-space-collapse: preserve;&quot;&gt;&lt;span style=&quot;font-weight: normal;&quot;&gt;&lt;font style=&quot;font-size: 12px;&quot;&gt;sapi-common-oem-rocky-template&lt;/font&gt;&lt;/span&gt;&lt;/span&gt;&lt;/span&gt;&lt;br&gt;&lt;/td&gt;&lt;/tr&gt;&lt;/tbody&gt;&lt;/table&gt;&lt;/h1&gt;" style="rounded=1;whiteSpace=wrap;html=1;fontSize=12;fontFamily=Helvetica;spacing=0;verticalAlign=middle;align=center;horizontal=1;fillColor=#fff2cc;strokeColor=#d6b656;fontStyle=0;labelBackgroundColor=none;" parent="p-4kFKT5CtGWcOaHjdYM-1" vertex="1">
          <mxGeometry x="-340" y="1221" width="280" height="59.5" as="geometry" />
        </mxCell>
        <mxCell id="p-4kFKT5CtGWcOaHjdYM-114" value="POST&lt;br&gt;&lt;span style=&quot;white-space: pre; background-color: rgb(255, 255, 255);&quot;&gt;/cases&lt;/span&gt;" style="rounded=1;whiteSpace=wrap;html=1;fontSize=12;fontColor=default;fontFamily=Helvetica;" parent="p-4kFKT5CtGWcOaHjdYM-1" vertex="1">
          <mxGeometry x="-860" y="1200" width="115" height="40" as="geometry" />
        </mxCell>
        <mxCell id="p-4kFKT5CtGWcOaHjdYM-115" value="GET&lt;br&gt;&lt;span style=&quot;background-color: rgb(255, 255, 255); padding: 0px 0px 0px 2px;&quot;&gt;&lt;span style=&quot;white-space: pre;&quot;&gt;&lt;span style=&quot;&quot;&gt;&lt;font&gt;/&lt;/font&gt;&lt;/span&gt;&lt;/span&gt;&lt;/span&gt;&lt;span style=&quot;white-space: pre; background-color: rgb(255, 255, 255);&quot;&gt;cases/&lt;/span&gt;&lt;span style=&quot;background-color: rgb(255, 255, 255); padding: 0px 0px 0px 2px;&quot;&gt;&lt;span style=&quot;white-space: pre;&quot;&gt;&lt;span style=&quot;&quot;&gt;{id}&lt;/span&gt;&lt;/span&gt;&lt;/span&gt;" style="rounded=1;whiteSpace=wrap;html=1;fontSize=12;fontColor=default;fontFamily=Helvetica;" parent="p-4kFKT5CtGWcOaHjdYM-1" vertex="1">
          <mxGeometry x="-860" y="1259.5" width="115" height="40" as="geometry" />
        </mxCell>
        <mxCell id="p-4kFKT5CtGWcOaHjdYM-116" value="Subscriber / &#xa;Publisher" style="shape=image;verticalLabelPosition=middle;labelBackgroundColor=default;verticalAlign=middle;aspect=fixed;imageAspect=0;image=https://d2has6dvjv0i3b.cloudfront.net/products/anypoint_mq/logo_1681517772.651571.png;labelPosition=right;align=left;" parent="p-4kFKT5CtGWcOaHjdYM-1" vertex="1">
          <mxGeometry x="-340" y="885.5" width="49" height="49" as="geometry" />
        </mxCell>
        <mxCell id="p-4kFKT5CtGWcOaHjdYM-117" value="Cron Job&lt;br&gt;&lt;span style=&quot;padding: 0px 0px 0px 2px;&quot;&gt;&lt;span style=&quot;white-space-collapse: preserve;&quot;&gt;&lt;span style=&quot;&quot;&gt;&lt;font face=&quot;Helvetica&quot; style=&quot;&quot;&gt;Daily at 1:00 am - UTC&lt;/font&gt;&lt;/span&gt;&lt;/span&gt;&lt;/span&gt;" style="editableCssRules=.*;html=1;shape=image;verticalLabelPosition=bottom;labelBackgroundColor=#ffffff;verticalAlign=top;aspect=fixed;imageAspect=0;image=data:image/svg+xml,PHN2ZyB4bWxucz0iaHR0cDovL3d3dy53My5vcmcvMjAwMC9zdmciIHhtbG5zOnY9Imh0dHBzOi8vdmVjdGEuaW8vbmFubyIgd2lkdGg9IjM2MC4zMDM3NjY4NjA4MzYzIiBoZWlnaHQ9IjM3OC4wNTExNTgwNzc0MDg4IiB2aWV3Qm94PSItMC4wMDAxNjI0MjExNDM2MTM3NTU3IC0wLjAwMDEwMDAwNTk0OTIwNzExNTkyIDk1LjMzMDI2MTIzMDQ2ODc1IDEwMC4wMjYxMDAxNTg2OTE0Ij4mI3hhOzxzdHlsZSB0eXBlPSJ0ZXh0L2NzcyI+JiN4YTsJLnN0MHtmaWxsOiM0Mjg1ZjQ7fSYjeGE7CS5zdDF7ZmlsbDojYWVjYmZhO30mI3hhOwkuc3Qye2ZpbGw6IzY2OWRmNjt9JiN4YTs8L3N0eWxlPiYjeGE7CTxwYXRoIGNsYXNzPSJzdDAiIGQ9Ik03OS45NzEgNzcuNzE1bC03LjM1OSA3LjQ4OCA4LjYzOSA4LjQ5IDcuMzU5LTcuNDg4em0tNjUuMDk2LjA2MWwtOC42NDEgOC40OTIgNy4zNjEgNy40ODggOC42MzktOC40OXoiLz4mI3hhOwk8cGF0aCBjbGFzcz0ic3QxIiBkPSJNNzkuNTUzLjIyMWE1LjI1IDUuMjUgMCAwIDAtMy42NiA4Ljk4NEw4Ni4zODkgMTkuNThhNS4yNSA1LjI1IDAgMCAwIDguOTQxLTMuNzY1IDUuMjUgNS4yNSAwIDAgMC0xLjU2LTMuNzA0TDgzLjI3NSAxLjczOEE1LjI1IDUuMjUgMCAwIDAgNzkuNTUzLjIyMXpNMTUuOTE2IDBhNS4yNSA1LjI1IDAgMCAwLTMuNzIzIDEuNTE2TDEuNjk5IDExLjg5MWE1LjI1IDUuMjUgMCAwIDAtLjA0MyA3LjQyNCA1LjI1IDUuMjUgMCAwIDAgNy40MjQuMDQzTDE5LjU3NiA4Ljk4MkE1LjI1IDUuMjUgMCAwIDAgMTUuOTE2IDB6Ii8+JiN4YTsJPHBhdGggY2xhc3M9InN0MCIgZD0iTTQ4LjEzOCAyNi4yNGMxMy4zNDcgMCAyNS40MzIgMTEuMTM2IDI1LjMxIDI2LjQ4MSAwIDE1LjExLTEyLjI2NyAyNS42NzMtMjUuMTg5IDI1LjY3My0xMS4xNDkgMC0xOC4zMTctNS4xNzEtMjEuOTYtMTAuNzM4bDIxLjgzOS0xNS4wOTd6Ii8+JiN4YTsJPHBhdGggY2xhc3M9InN0MiIgZD0iTTgxLjI1IDkzLjY5M2w0LjY2NCA0LjU4NmE1LjI1IDUuMjUgMCAxIDAgNy4zNjEtNy40OWwtNC42NjYtNC41ODR6TTYuMjM0IDg2LjI2OEwxLjU3IDkwLjg1MWE1LjI1IDUuMjUgMCAwIDAtLjA2NSA3LjQyNCA1LjI1IDUuMjUgMCAwIDAgNy40MjQuMDY0bDQuNjY2LTQuNTg0ek00Ny4zNzEgNS41NzhDMjEuMzQ5IDUuNTc4LjE0NiAyNi43NzkuMTQ2IDUyLjgwMXMyMS4yMDMgNDcuMjI1IDQ3LjIyNSA0Ny4yMjUgNDcuMjI1LTIxLjIwMyA0Ny4yMjUtNDcuMjI1UzczLjM5MyA1LjU3OCA0Ny4zNzEgNS41Nzh6bTAgMTBhMzcuMTUgMzcuMTUgMCAwIDEgMzcuMjI1IDM3LjIyM2MwIDIwLjYxNy0xNi42MDcgMzcuMjI1LTM3LjIyNSAzNy4yMjVTMTAuMTQ2IDczLjQxOCAxMC4xNDYgNTIuODAxYTM3LjE1IDM3LjE1IDAgMCAxIDM3LjIyNS0zNy4yMjN6Ii8+JiN4YTs8L3N2Zz4=;fontColor=default;" parent="p-4kFKT5CtGWcOaHjdYM-1" vertex="1">
          <mxGeometry x="-569" y="303" width="38" height="40" as="geometry" />
        </mxCell>
        <mxCell id="p-4kFKT5CtGWcOaHjdYM-118" value="Subscriber / &#xa;Publisher" style="shape=image;verticalLabelPosition=middle;labelBackgroundColor=default;verticalAlign=middle;aspect=fixed;imageAspect=0;image=https://d2has6dvjv0i3b.cloudfront.net/products/anypoint_mq/logo_1681517772.651571.png;labelPosition=right;align=left;" parent="p-4kFKT5CtGWcOaHjdYM-1" vertex="1">
          <mxGeometry x="-340" y="1299.5" width="49" height="49" as="geometry" />
        </mxCell>
        <mxCell id="p-4kFKT5CtGWcOaHjdYM-119" value="&lt;h1&gt;&lt;span style=&quot;background-color: rgb(255, 255, 255); padding: 0px 0px 0px 2px;&quot;&gt;&lt;span style=&quot;white-space: pre;&quot;&gt;&lt;span style=&quot;font-weight: normal;&quot;&gt;&lt;font&gt;sapi-customer-sfdc-rocky-generic&lt;/font&gt;&lt;/span&gt;&lt;/span&gt;&lt;/span&gt;&lt;br&gt;&lt;/h1&gt;" style="rounded=1;whiteSpace=wrap;html=1;fontSize=6;fontColor=default;fontFamily=Helvetica;spacing=0;verticalAlign=middle;align=center;horizontal=1;fontStyle=0;" parent="p-4kFKT5CtGWcOaHjdYM-1" vertex="1">
          <mxGeometry x="-340" y="1470.5" width="280" height="60" as="geometry" />
        </mxCell>
        <mxCell id="p-4kFKT5CtGWcOaHjdYM-120" value="&lt;h1&gt;&lt;span style=&quot;padding: 0px 0px 0px 2px;&quot;&gt;&lt;span style=&quot;white-space: pre;&quot;&gt;&lt;span style=&quot;font-weight: normal;&quot;&gt;&lt;font&gt;sapi-consent-sfdc-rocky-generic&lt;/font&gt;&lt;/span&gt;&lt;/span&gt;&lt;/span&gt;&lt;br&gt;&lt;/h1&gt;" style="rounded=1;whiteSpace=wrap;html=1;fontSize=6;fontFamily=Helvetica;spacing=0;verticalAlign=middle;align=center;horizontal=1;fontStyle=0;fillColor=#fff2cc;strokeColor=#d6b656;labelBackgroundColor=none;" parent="p-4kFKT5CtGWcOaHjdYM-1" vertex="1">
          <mxGeometry x="-340" y="1540.5" width="280" height="60" as="geometry" />
        </mxCell>
        <mxCell id="p-4kFKT5CtGWcOaHjdYM-121" value="&lt;h1&gt;&lt;span style=&quot;padding: 0px 0px 0px 2px;&quot;&gt;&lt;span style=&quot;white-space: pre;&quot;&gt;&lt;span style=&quot;font-weight: normal;&quot;&gt;&lt;font&gt;sapi-customer-mdm-rocky-market&lt;/font&gt;&lt;/span&gt;&lt;/span&gt;&lt;/span&gt;&lt;br&gt;&lt;/h1&gt;" style="rounded=1;whiteSpace=wrap;html=1;fontSize=6;fontFamily=Helvetica;spacing=0;verticalAlign=middle;align=center;horizontal=1;fontStyle=0;fillColor=#fff2cc;strokeColor=#d6b656;labelBackgroundColor=none;" parent="p-4kFKT5CtGWcOaHjdYM-1" vertex="1">
          <mxGeometry x="-340" y="1610" width="280" height="60" as="geometry" />
        </mxCell>
        <mxCell id="p-4kFKT5CtGWcOaHjdYM-122" value="Subscriber / &#xa;Publisher" style="shape=image;verticalLabelPosition=middle;labelBackgroundColor=default;verticalAlign=middle;aspect=fixed;imageAspect=0;image=https://d2has6dvjv0i3b.cloudfront.net/products/anypoint_mq/logo_1681517772.651571.png;labelPosition=right;align=left;" parent="p-4kFKT5CtGWcOaHjdYM-1" vertex="1">
          <mxGeometry x="-340" y="1680" width="49" height="49" as="geometry" />
        </mxCell>
        <mxCell id="p-4kFKT5CtGWcOaHjdYM-123" value="&lt;font&gt;&lt;span&gt;POST&lt;/span&gt;&lt;br&gt;&lt;font&gt;&lt;span style=&quot;white-space: pre; background-color: rgb(255, 255, 255);&quot;&gt;/&lt;/span&gt;&lt;span style=&quot;background-color: rgb(255, 255, 255); padding: 0px 0px 0px 2px;&quot;&gt;&lt;span style=&quot;font-family: Menlo; white-space: pre;&quot;&gt;&lt;span style=&quot;&quot;&gt;customers&lt;/span&gt;&lt;/span&gt;&lt;/span&gt;&lt;/font&gt;&lt;/font&gt;" style="rounded=1;whiteSpace=wrap;html=1;fontSize=12;fontColor=default;fontFamily=Helvetica;" parent="p-4kFKT5CtGWcOaHjdYM-1" vertex="1">
          <mxGeometry x="-860" y="1480.5" width="115" height="40" as="geometry" />
        </mxCell>
        <mxCell id="p-4kFKT5CtGWcOaHjdYM-124" value="&lt;font&gt;&lt;span&gt;PATCH&lt;/span&gt;&lt;br&gt;&lt;font&gt;&lt;span style=&quot;white-space: pre; background-color: rgb(255, 255, 255);&quot;&gt;/&lt;/span&gt;&lt;span style=&quot;background-color: rgb(255, 255, 255); padding: 0px 0px 0px 2px;&quot;&gt;&lt;span style=&quot;font-family: Menlo; white-space: pre;&quot;&gt;&lt;span style=&quot;&quot;&gt;customers/&lt;/span&gt;&lt;/span&gt;&lt;/span&gt;&lt;/font&gt;&lt;/font&gt;&lt;span style=&quot;background-color:#ffffff;padding:0px 0px 0px 2px;&quot;&gt;&lt;span style=&quot;font-family: Menlo; white-space: pre;&quot;&gt;&lt;span style=&quot;&quot;&gt;&lt;font&gt;{crm-id}&lt;/font&gt;&lt;/span&gt;&lt;/span&gt;&lt;/span&gt;" style="rounded=1;whiteSpace=wrap;html=1;fontSize=12;fontColor=default;fontFamily=Helvetica;" parent="p-4kFKT5CtGWcOaHjdYM-1" vertex="1">
          <mxGeometry x="-905" y="1540.5" width="160" height="40" as="geometry" />
        </mxCell>
        <mxCell id="p-4kFKT5CtGWcOaHjdYM-125" value="&lt;font&gt;&lt;span&gt;DELETE&lt;/span&gt;&lt;br&gt;&lt;font&gt;&lt;span style=&quot;white-space: pre; background-color: rgb(255, 255, 255);&quot;&gt;/&lt;/span&gt;&lt;/font&gt;&lt;/font&gt;&lt;span style=&quot;background-color: rgb(255, 255, 255); padding: 0px 0px 0px 2px;&quot;&gt;&lt;span style=&quot;font-family: Menlo; white-space: pre;&quot;&gt;&lt;span style=&quot;&quot;&gt;customers/&lt;/span&gt;&lt;/span&gt;&lt;/span&gt;&lt;span style=&quot;background-color: rgb(255, 255, 255); padding: 0px 0px 0px 2px;&quot;&gt;&lt;span style=&quot;font-family: Menlo; white-space: pre;&quot;&gt;&lt;span&gt;{customer-id}/consents/{consent-id}&lt;/span&gt;&lt;/span&gt;&lt;/span&gt;" style="rounded=1;whiteSpace=wrap;html=1;fontSize=12;fontColor=default;fontFamily=Helvetica;align=center;" parent="p-4kFKT5CtGWcOaHjdYM-1" vertex="1">
          <mxGeometry x="-1100" y="1600.5" width="355" height="40" as="geometry" />
        </mxCell>
        <mxCell id="p-4kFKT5CtGWcOaHjdYM-126" value="&lt;font&gt;&lt;span&gt;PATCH&lt;/span&gt;&lt;br&gt;&lt;font&gt;&lt;span style=&quot;white-space: pre; background-color: rgb(255, 255, 255);&quot;&gt;/&lt;/span&gt;&lt;/font&gt;&lt;/font&gt;&lt;span style=&quot;background-color:#ffffff;padding:0px 0px 0px 2px;&quot;&gt;&lt;span style=&quot;font-family: Menlo; white-space: pre;&quot;&gt;&lt;span style=&quot;&quot;&gt;contacts/{crm-id}&lt;/span&gt;&lt;/span&gt;&lt;/span&gt;" style="rounded=1;whiteSpace=wrap;html=1;fontSize=12;fontColor=default;fontFamily=Helvetica;align=center;" parent="p-4kFKT5CtGWcOaHjdYM-1" vertex="1">
          <mxGeometry x="-900" y="1659.5" width="155" height="40" as="geometry" />
        </mxCell>
        <mxCell id="p-4kFKT5CtGWcOaHjdYM-127" style="edgeStyle=orthogonalEdgeStyle;curved=1;rounded=0;orthogonalLoop=1;jettySize=auto;html=1;entryX=0;entryY=0.5;entryDx=0;entryDy=0;exitX=1;exitY=0.5;exitDx=0;exitDy=0;" parent="p-4kFKT5CtGWcOaHjdYM-1" source="p-4kFKT5CtGWcOaHjdYM-39" target="p-4kFKT5CtGWcOaHjdYM-131" edge="1">
          <mxGeometry relative="1" as="geometry">
            <mxPoint x="-390" y="1960" as="sourcePoint" />
          </mxGeometry>
        </mxCell>
        <mxCell id="p-4kFKT5CtGWcOaHjdYM-128" value="&lt;h1&gt;&lt;span style=&quot;padding: 0px 0px 0px 2px;&quot;&gt;&lt;span style=&quot;font-family: Menlo; white-space: pre;&quot;&gt;&lt;span style=&quot;font-weight: normal;&quot;&gt;&lt;font style=&quot;font-size: 12px;&quot;&gt;sapi-lead-sfdc-rocky-generic&lt;/font&gt;&lt;/span&gt;&lt;/span&gt;&lt;/span&gt;&lt;br&gt;&lt;/h1&gt;" style="rounded=1;whiteSpace=wrap;html=1;fontSize=10;fontFamily=Helvetica;spacing=0;verticalAlign=middle;align=center;horizontal=1;fontStyle=0;labelBackgroundColor=none;" parent="p-4kFKT5CtGWcOaHjdYM-1" vertex="1">
          <mxGeometry x="-340" y="1784" width="280" height="60" as="geometry" />
        </mxCell>
        <mxCell id="p-4kFKT5CtGWcOaHjdYM-129" value="&lt;h1&gt;&lt;span style=&quot;padding: 0px 0px 0px 2px;&quot;&gt;&lt;span style=&quot;font-family: Menlo; white-space: pre;&quot;&gt;&lt;span style=&quot;font-weight: normal;&quot;&gt;&lt;font style=&quot;font-size: 12px;&quot;&gt;sapi-lead-rocky-template&lt;/font&gt;&lt;/span&gt;&lt;/span&gt;&lt;/span&gt;&lt;br&gt;&lt;/h1&gt;" style="rounded=1;whiteSpace=wrap;html=1;fontSize=12;fontFamily=Helvetica;spacing=0;verticalAlign=middle;align=center;horizontal=1;fontStyle=0;labelBackgroundColor=none;fillColor=#fff2cc;strokeColor=#d6b656;" parent="p-4kFKT5CtGWcOaHjdYM-1" vertex="1">
          <mxGeometry x="-340" y="1854" width="280" height="60" as="geometry" />
        </mxCell>
        <mxCell id="p-4kFKT5CtGWcOaHjdYM-130" value="&lt;h1&gt;&lt;span style=&quot;padding: 0px 0px 0px 2px;&quot;&gt;&lt;span style=&quot;font-family: Menlo; white-space: pre;&quot;&gt;&lt;span style=&quot;font-weight: normal;&quot;&gt;&lt;font style=&quot;font-size: 12px;&quot;&gt;sapi-consent-sfdc-rocky-generic&lt;/font&gt;&lt;/span&gt;&lt;/span&gt;&lt;/span&gt;&lt;br&gt;&lt;/h1&gt;" style="rounded=1;whiteSpace=wrap;html=1;fontSize=11;fontFamily=Helvetica;spacing=0;verticalAlign=middle;align=center;horizontal=1;fontStyle=0;labelBackgroundColor=none;fillColor=#fff2cc;strokeColor=#d6b656;" parent="p-4kFKT5CtGWcOaHjdYM-1" vertex="1">
          <mxGeometry x="-340" y="1924" width="280" height="60" as="geometry" />
        </mxCell>
        <mxCell id="p-4kFKT5CtGWcOaHjdYM-131" value="Subscriber / &#xa;Publisher" style="shape=image;verticalLabelPosition=middle;labelBackgroundColor=none;verticalAlign=middle;aspect=fixed;imageAspect=0;image=https://d2has6dvjv0i3b.cloudfront.net/products/anypoint_mq/logo_1681517772.651571.png;fontColor=default;labelPosition=right;align=left;" parent="p-4kFKT5CtGWcOaHjdYM-1" vertex="1">
          <mxGeometry x="-340" y="2078" width="49" height="49" as="geometry" />
        </mxCell>
        <mxCell id="p-4kFKT5CtGWcOaHjdYM-132" value="&lt;h1&gt;&lt;span style=&quot;padding: 0px 0px 0px 2px;&quot;&gt;&lt;span style=&quot;font-family: Menlo; white-space: pre;&quot;&gt;&lt;span style=&quot;font-weight: normal;&quot;&gt;&lt;font style=&quot;font-size: 12px;&quot;&gt;eapi-lead-rocky-oem&lt;/font&gt;&lt;/span&gt;&lt;/span&gt;&lt;/span&gt;&lt;br&gt;&lt;/h1&gt;" style="rounded=1;whiteSpace=wrap;html=1;fontSize=11;fontFamily=Helvetica;spacing=0;verticalAlign=middle;align=center;horizontal=1;fontStyle=0;labelBackgroundColor=none;fillColor=#fff2cc;strokeColor=#d6b656;" parent="p-4kFKT5CtGWcOaHjdYM-1" vertex="1">
          <mxGeometry x="-340" y="1998" width="280" height="60" as="geometry" />
        </mxCell>
        <mxCell id="p-4kFKT5CtGWcOaHjdYM-133" value="&lt;font&gt;&lt;span&gt;GET&lt;/span&gt;&lt;br&gt;&lt;font&gt;&lt;span style=&quot;white-space: pre; background-color: rgb(255, 255, 255);&quot;&gt;/&lt;/span&gt;&lt;span style=&quot;background-color: rgb(255, 255, 255); padding: 0px 0px 0px 2px;&quot;&gt;&lt;span style=&quot;font-family: Menlo; white-space: pre;&quot;&gt;&lt;span style=&quot;&quot;&gt;leads&lt;/span&gt;&lt;/span&gt;&lt;/span&gt;&lt;/font&gt;&lt;/font&gt;" style="rounded=1;whiteSpace=wrap;html=1;fontSize=12;fontColor=default;fontFamily=Helvetica;" parent="p-4kFKT5CtGWcOaHjdYM-1" vertex="1">
          <mxGeometry x="-860" y="1820.5" width="115" height="40" as="geometry" />
        </mxCell>
        <mxCell id="p-4kFKT5CtGWcOaHjdYM-134" value="&lt;font&gt;&lt;span&gt;POST&lt;/span&gt;&lt;br&gt;&lt;font&gt;&lt;span style=&quot;white-space: pre; background-color: rgb(255, 255, 255);&quot;&gt;/&lt;font face=&quot;Menlo&quot;&gt;leads&lt;/font&gt;&lt;/span&gt;&lt;/font&gt;&lt;/font&gt;" style="rounded=1;whiteSpace=wrap;html=1;fontSize=12;fontColor=default;fontFamily=Helvetica;" parent="p-4kFKT5CtGWcOaHjdYM-1" vertex="1">
          <mxGeometry x="-860" y="1880.5" width="115" height="40" as="geometry" />
        </mxCell>
        <mxCell id="p-4kFKT5CtGWcOaHjdYM-135" value="&lt;font&gt;&lt;span&gt;PATCH&lt;/span&gt;&lt;br&gt;&lt;font&gt;&lt;span style=&quot;white-space: pre; background-color: rgb(255, 255, 255);&quot;&gt;/&lt;font face=&quot;Menlo&quot;&gt;leads&lt;/font&gt;&lt;/span&gt;&lt;/font&gt;&lt;/font&gt;" style="rounded=1;whiteSpace=wrap;html=1;fontSize=12;fontColor=default;fontFamily=Helvetica;align=center;" parent="p-4kFKT5CtGWcOaHjdYM-1" vertex="1">
          <mxGeometry x="-860" y="1940.5" width="115" height="40" as="geometry" />
        </mxCell>
        <mxCell id="p-4kFKT5CtGWcOaHjdYM-136" value="&lt;font&gt;&lt;font&gt;&lt;span style=&quot;background-color: rgb(255, 255, 255);&quot;&gt;DELETE&lt;br&gt;&lt;/span&gt;&lt;span style=&quot;white-space: pre; background-color: rgb(255, 255, 255);&quot;&gt;/&lt;/span&gt;&lt;/font&gt;&lt;/font&gt;&lt;span style=&quot;background-color: rgb(255, 255, 255); padding: 0px 0px 0px 2px;&quot;&gt;&lt;span style=&quot;font-family: Menlo; white-space: pre;&quot;&gt;&lt;span style=&quot;&quot;&gt;consent&lt;/span&gt;&lt;/span&gt;&lt;/span&gt;" style="rounded=1;whiteSpace=wrap;html=1;fontSize=12;fontColor=default;fontFamily=Helvetica;align=center;" parent="p-4kFKT5CtGWcOaHjdYM-1" vertex="1">
          <mxGeometry x="-860" y="1999.5" width="115" height="40" as="geometry" />
        </mxCell>
        <mxCell id="p-4kFKT5CtGWcOaHjdYM-137" value="PATCH&lt;br&gt;&lt;span style=&quot;background-color: rgb(255, 255, 255); padding: 0px 0px 0px 2px;&quot;&gt;&lt;span style=&quot;white-space: pre;&quot;&gt;&lt;span style=&quot;&quot;&gt;&lt;font&gt;/&lt;/font&gt;&lt;/span&gt;&lt;/span&gt;&lt;/span&gt;&lt;span style=&quot;white-space: pre; background-color: rgb(255, 255, 255);&quot;&gt;cases/&lt;/span&gt;&lt;span style=&quot;background-color: rgb(255, 255, 255); padding: 0px 0px 0px 2px;&quot;&gt;&lt;span style=&quot;white-space: pre;&quot;&gt;&lt;span style=&quot;&quot;&gt;{id}&lt;/span&gt;&lt;/span&gt;&lt;/span&gt;" style="rounded=1;whiteSpace=wrap;html=1;fontSize=12;fontColor=default;fontFamily=Helvetica;" parent="p-4kFKT5CtGWcOaHjdYM-1" vertex="1">
          <mxGeometry x="-860" y="1321" width="115" height="40" as="geometry" />
        </mxCell>
        <mxCell id="p-4kFKT5CtGWcOaHjdYM-138" value="&lt;span style=&quot;padding: 0px 0px 0px 2px;&quot;&gt;&lt;span style=&quot;font-family: Menlo; white-space: pre;&quot;&gt;&lt;span style=&quot;&quot;&gt;&lt;font style=&quot;&quot;&gt;sapi-order-sfdc-rocky-generic&lt;/font&gt;&lt;/span&gt;&lt;/span&gt;&lt;/span&gt;" style="rounded=1;whiteSpace=wrap;html=1;fontSize=12;fontColor=default;fontFamily=Helvetica;labelBackgroundColor=none;" parent="p-4kFKT5CtGWcOaHjdYM-1" vertex="1">
          <mxGeometry x="-340" y="2160" width="280" height="60" as="geometry" />
        </mxCell>
        <mxCell id="p-4kFKT5CtGWcOaHjdYM-139" value="Audi Smart" style="shape=image;verticalLabelPosition=middle;labelBackgroundColor=default;verticalAlign=middle;aspect=fixed;imageAspect=0;image=https://d22e4d61ky6061.cloudfront.net/sites/default/files/Salesforce_0.png;fontSize=12;fontColor=default;fontFamily=Helvetica;labelPosition=right;align=left;" parent="p-4kFKT5CtGWcOaHjdYM-1" vertex="1">
          <mxGeometry x="-340" y="2300" width="90" height="90" as="geometry" />
        </mxCell>
        <mxCell id="p-4kFKT5CtGWcOaHjdYM-140" value="&lt;span style=&quot;padding: 0px 0px 0px 2px;&quot;&gt;&lt;span style=&quot;font-family: Menlo; white-space: pre;&quot;&gt;&lt;span style=&quot;&quot;&gt;&lt;font&gt;sapi-order-audibr-onecrm&lt;/font&gt;&lt;/span&gt;&lt;/span&gt;&lt;/span&gt;" style="rounded=1;whiteSpace=wrap;html=1;fontSize=12;fontColor=default;fontFamily=Helvetica;labelBackgroundColor=none;" parent="p-4kFKT5CtGWcOaHjdYM-1" vertex="1">
          <mxGeometry x="-340" y="2240" width="280" height="60" as="geometry" />
        </mxCell>
        <mxCell id="p-4kFKT5CtGWcOaHjdYM-141" style="edgeStyle=orthogonalEdgeStyle;curved=1;rounded=0;orthogonalLoop=1;jettySize=auto;html=1;entryX=0.009;entryY=0.542;entryDx=0;entryDy=0;entryPerimeter=0;" parent="p-4kFKT5CtGWcOaHjdYM-1" source="p-4kFKT5CtGWcOaHjdYM-44" target="p-4kFKT5CtGWcOaHjdYM-139" edge="1">
          <mxGeometry relative="1" as="geometry" />
        </mxCell>
        <mxCell id="p-4kFKT5CtGWcOaHjdYM-142" value="Subscriber / &#xa;Publisher" style="shape=image;verticalLabelPosition=middle;labelBackgroundColor=none;verticalAlign=middle;aspect=fixed;imageAspect=0;image=https://d2has6dvjv0i3b.cloudfront.net/products/anypoint_mq/logo_1681517772.651571.png;fontColor=default;labelPosition=right;align=left;" parent="p-4kFKT5CtGWcOaHjdYM-1" vertex="1">
          <mxGeometry x="-340" y="2390" width="49" height="49" as="geometry" />
        </mxCell>
        <mxCell id="p-4kFKT5CtGWcOaHjdYM-143" value="&lt;font&gt;&lt;span&gt;POST&lt;/span&gt;&lt;br&gt;&lt;font&gt;&lt;span style=&quot;white-space: pre; background-color: rgb(255, 255, 255);&quot;&gt;/&lt;font face=&quot;Menlo&quot;&gt;orders&lt;/font&gt;&lt;/span&gt;&lt;/font&gt;&lt;/font&gt;" style="rounded=1;whiteSpace=wrap;html=1;fontSize=12;fontColor=default;fontFamily=Helvetica;" parent="p-4kFKT5CtGWcOaHjdYM-1" vertex="1">
          <mxGeometry x="-860" y="2250" width="115" height="40" as="geometry" />
        </mxCell>
        <mxCell id="p-4kFKT5CtGWcOaHjdYM-144" style="edgeStyle=orthogonalEdgeStyle;curved=1;rounded=0;orthogonalLoop=1;jettySize=auto;html=1;entryX=1;entryY=0.5;entryDx=0;entryDy=0;" parent="p-4kFKT5CtGWcOaHjdYM-1" source="p-4kFKT5CtGWcOaHjdYM-148" target="p-4kFKT5CtGWcOaHjdYM-198" edge="1">
          <mxGeometry relative="1" as="geometry" />
        </mxCell>
        <mxCell id="p-4kFKT5CtGWcOaHjdYM-145" style="edgeStyle=orthogonalEdgeStyle;curved=1;rounded=0;orthogonalLoop=1;jettySize=auto;html=1;" parent="p-4kFKT5CtGWcOaHjdYM-1" source="p-4kFKT5CtGWcOaHjdYM-148" target="p-4kFKT5CtGWcOaHjdYM-196" edge="1">
          <mxGeometry relative="1" as="geometry" />
        </mxCell>
        <mxCell id="p-4kFKT5CtGWcOaHjdYM-146" style="edgeStyle=orthogonalEdgeStyle;curved=1;rounded=0;orthogonalLoop=1;jettySize=auto;html=1;" parent="p-4kFKT5CtGWcOaHjdYM-1" source="p-4kFKT5CtGWcOaHjdYM-148" target="p-4kFKT5CtGWcOaHjdYM-197" edge="1">
          <mxGeometry relative="1" as="geometry" />
        </mxCell>
        <mxCell id="p-4kFKT5CtGWcOaHjdYM-147" style="edgeStyle=orthogonalEdgeStyle;curved=1;rounded=0;orthogonalLoop=1;jettySize=auto;html=1;entryX=0.5;entryY=0;entryDx=0;entryDy=0;" parent="p-4kFKT5CtGWcOaHjdYM-1" source="p-4kFKT5CtGWcOaHjdYM-148" target="p-4kFKT5CtGWcOaHjdYM-199" edge="1">
          <mxGeometry relative="1" as="geometry" />
        </mxCell>
        <mxCell id="p-4kFKT5CtGWcOaHjdYM-148" value="sapi-contentdocument-processing-template" style="rounded=1;whiteSpace=wrap;html=1;fillColor=#dae8fc;strokeColor=#6c8ebf;fontFamily=Helvetica;fontSize=12;align=center;fontColor=default;shadow=0;" parent="p-4kFKT5CtGWcOaHjdYM-1" vertex="1">
          <mxGeometry x="1790" y="200" width="280" height="60" as="geometry" />
        </mxCell>
        <mxCell id="p-4kFKT5CtGWcOaHjdYM-149" style="edgeStyle=orthogonalEdgeStyle;curved=1;rounded=0;orthogonalLoop=1;jettySize=auto;html=1;entryX=0;entryY=0.5;entryDx=0;entryDy=0;" parent="p-4kFKT5CtGWcOaHjdYM-1" source="p-4kFKT5CtGWcOaHjdYM-157" target="p-4kFKT5CtGWcOaHjdYM-212" edge="1">
          <mxGeometry relative="1" as="geometry" />
        </mxCell>
        <mxCell id="p-4kFKT5CtGWcOaHjdYM-150" style="edgeStyle=orthogonalEdgeStyle;curved=1;rounded=0;orthogonalLoop=1;jettySize=auto;html=1;" parent="p-4kFKT5CtGWcOaHjdYM-1" source="p-4kFKT5CtGWcOaHjdYM-157" target="p-4kFKT5CtGWcOaHjdYM-213" edge="1">
          <mxGeometry relative="1" as="geometry" />
        </mxCell>
        <mxCell id="p-4kFKT5CtGWcOaHjdYM-151" style="edgeStyle=orthogonalEdgeStyle;curved=1;rounded=0;orthogonalLoop=1;jettySize=auto;html=1;entryX=0;entryY=0.5;entryDx=0;entryDy=0;" parent="p-4kFKT5CtGWcOaHjdYM-1" source="p-4kFKT5CtGWcOaHjdYM-157" target="p-4kFKT5CtGWcOaHjdYM-214" edge="1">
          <mxGeometry relative="1" as="geometry" />
        </mxCell>
        <mxCell id="p-4kFKT5CtGWcOaHjdYM-152" style="edgeStyle=orthogonalEdgeStyle;curved=1;rounded=0;orthogonalLoop=1;jettySize=auto;html=1;entryX=0;entryY=0.5;entryDx=0;entryDy=0;" parent="p-4kFKT5CtGWcOaHjdYM-1" source="p-4kFKT5CtGWcOaHjdYM-157" target="p-4kFKT5CtGWcOaHjdYM-216" edge="1">
          <mxGeometry relative="1" as="geometry" />
        </mxCell>
        <mxCell id="p-4kFKT5CtGWcOaHjdYM-153" style="edgeStyle=orthogonalEdgeStyle;curved=1;rounded=0;orthogonalLoop=1;jettySize=auto;html=1;entryX=0;entryY=0.5;entryDx=0;entryDy=0;" parent="p-4kFKT5CtGWcOaHjdYM-1" source="p-4kFKT5CtGWcOaHjdYM-157" target="p-4kFKT5CtGWcOaHjdYM-215" edge="1">
          <mxGeometry relative="1" as="geometry" />
        </mxCell>
        <mxCell id="p-4kFKT5CtGWcOaHjdYM-154" style="edgeStyle=orthogonalEdgeStyle;curved=1;rounded=0;orthogonalLoop=1;jettySize=auto;html=1;entryX=1;entryY=0.5;entryDx=0;entryDy=0;" parent="p-4kFKT5CtGWcOaHjdYM-1" source="p-4kFKT5CtGWcOaHjdYM-157" target="p-4kFKT5CtGWcOaHjdYM-219" edge="1">
          <mxGeometry relative="1" as="geometry" />
        </mxCell>
        <mxCell id="p-4kFKT5CtGWcOaHjdYM-155" style="edgeStyle=orthogonalEdgeStyle;curved=1;rounded=0;orthogonalLoop=1;jettySize=auto;html=1;entryX=1;entryY=0.5;entryDx=0;entryDy=0;" parent="p-4kFKT5CtGWcOaHjdYM-1" source="p-4kFKT5CtGWcOaHjdYM-157" target="p-4kFKT5CtGWcOaHjdYM-218" edge="1">
          <mxGeometry relative="1" as="geometry" />
        </mxCell>
        <mxCell id="p-4kFKT5CtGWcOaHjdYM-156" style="edgeStyle=orthogonalEdgeStyle;curved=1;rounded=0;orthogonalLoop=1;jettySize=auto;html=1;entryX=0.5;entryY=0;entryDx=0;entryDy=0;" parent="p-4kFKT5CtGWcOaHjdYM-1" source="p-4kFKT5CtGWcOaHjdYM-157" target="p-4kFKT5CtGWcOaHjdYM-221" edge="1">
          <mxGeometry relative="1" as="geometry" />
        </mxCell>
        <mxCell id="p-4kFKT5CtGWcOaHjdYM-157" value="sapi-order-sfdc-rocky-generic" style="rounded=1;whiteSpace=wrap;html=1;fillColor=#dae8fc;strokeColor=#6c8ebf;fontFamily=Helvetica;fontSize=12;align=center;fontColor=default;" parent="p-4kFKT5CtGWcOaHjdYM-1" vertex="1">
          <mxGeometry x="1790" y="1220" width="280" height="60" as="geometry" />
        </mxCell>
        <mxCell id="p-4kFKT5CtGWcOaHjdYM-158" style="edgeStyle=orthogonalEdgeStyle;curved=1;rounded=0;orthogonalLoop=1;jettySize=auto;html=1;entryX=0;entryY=0.5;entryDx=0;entryDy=0;" parent="p-4kFKT5CtGWcOaHjdYM-1" source="p-4kFKT5CtGWcOaHjdYM-161" target="p-4kFKT5CtGWcOaHjdYM-168" edge="1">
          <mxGeometry relative="1" as="geometry" />
        </mxCell>
        <mxCell id="p-4kFKT5CtGWcOaHjdYM-159" style="edgeStyle=orthogonalEdgeStyle;curved=1;rounded=0;orthogonalLoop=1;jettySize=auto;html=1;" parent="p-4kFKT5CtGWcOaHjdYM-1" source="p-4kFKT5CtGWcOaHjdYM-161" target="p-4kFKT5CtGWcOaHjdYM-169" edge="1">
          <mxGeometry relative="1" as="geometry" />
        </mxCell>
        <mxCell id="p-4kFKT5CtGWcOaHjdYM-160" style="edgeStyle=orthogonalEdgeStyle;curved=1;rounded=0;orthogonalLoop=1;jettySize=auto;html=1;entryX=0;entryY=0.5;entryDx=0;entryDy=0;" parent="p-4kFKT5CtGWcOaHjdYM-1" source="p-4kFKT5CtGWcOaHjdYM-161" target="p-4kFKT5CtGWcOaHjdYM-170" edge="1">
          <mxGeometry relative="1" as="geometry" />
        </mxCell>
        <mxCell id="p-4kFKT5CtGWcOaHjdYM-161" value="sapi-case-sfdc-audibr-onecrm" style="rounded=1;whiteSpace=wrap;html=1;fillColor=#dae8fc;strokeColor=#6c8ebf;fontFamily=Helvetica;fontSize=12;align=center;fontColor=default;" parent="p-4kFKT5CtGWcOaHjdYM-1" vertex="1">
          <mxGeometry x="550" y="539" width="280" height="60" as="geometry" />
        </mxCell>
        <mxCell id="p-4kFKT5CtGWcOaHjdYM-162" value="&lt;span style=&quot;padding: 0px 0px 0px 2px;&quot;&gt;&lt;span style=&quot;white-space: pre;&quot;&gt;&lt;span style=&quot;&quot;&gt;&lt;font&gt;sapi-vehicle-sfdc-rocky-core&lt;/font&gt;&lt;/span&gt;&lt;/span&gt;&lt;/span&gt;" style="rounded=1;whiteSpace=wrap;html=1;fontSize=12;fontFamily=Helvetica;labelBackgroundColor=none;fontColor=default;" parent="p-4kFKT5CtGWcOaHjdYM-1" vertex="1">
          <mxGeometry x="900" y="165.5" width="280" height="60" as="geometry" />
        </mxCell>
        <mxCell id="p-4kFKT5CtGWcOaHjdYM-163" value="&lt;span style=&quot;padding: 0px 0px 0px 2px;&quot;&gt;&lt;span style=&quot;white-space: pre;&quot;&gt;&lt;span style=&quot;&quot;&gt;&lt;font&gt;eapi-vehicle-rocky-oem&lt;/font&gt;&lt;/span&gt;&lt;/span&gt;&lt;/span&gt;" style="rounded=1;whiteSpace=wrap;html=1;fontSize=12;fontFamily=Helvetica;labelBackgroundColor=none;fillColor=#fff2cc;strokeColor=#d6b656;" parent="p-4kFKT5CtGWcOaHjdYM-1" vertex="1">
          <mxGeometry x="900" y="85.5" width="280" height="60" as="geometry" />
        </mxCell>
        <mxCell id="p-4kFKT5CtGWcOaHjdYM-164" value="&lt;span style=&quot;padding: 0px 0px 0px 2px;&quot;&gt;&lt;span style=&quot;white-space: pre;&quot;&gt;&lt;span style=&quot;&quot;&gt;&lt;font&gt;sapi-vehicle-mdm-rocky-template&lt;/font&gt;&lt;/span&gt;&lt;/span&gt;&lt;/span&gt;" style="rounded=1;whiteSpace=wrap;html=1;fontSize=12;fontFamily=Helvetica;labelBackgroundColor=none;fillColor=#fff2cc;strokeColor=#d6b656;" parent="p-4kFKT5CtGWcOaHjdYM-1" vertex="1">
          <mxGeometry x="900" y="245.5" width="280" height="60" as="geometry" />
        </mxCell>
        <mxCell id="p-4kFKT5CtGWcOaHjdYM-165" value="Subscriber / &#xa;Publisher" style="shape=image;verticalLabelPosition=middle;labelBackgroundColor=default;verticalAlign=middle;aspect=fixed;imageAspect=0;image=https://d2has6dvjv0i3b.cloudfront.net/products/anypoint_mq/logo_1681517772.651571.png;labelPosition=right;align=left;" parent="p-4kFKT5CtGWcOaHjdYM-1" vertex="1">
          <mxGeometry x="900" y="325.5" width="49" height="49" as="geometry" />
        </mxCell>
        <mxCell id="p-4kFKT5CtGWcOaHjdYM-166" value="GET&lt;br&gt;&lt;span style=&quot;white-space: pre; background-color: rgb(255, 255, 255);&quot;&gt;/&lt;/span&gt;&lt;span style=&quot;background-color: rgb(255, 255, 255); padding: 0px 0px 0px 2px;&quot;&gt;&lt;span style=&quot;font-family: Menlo; white-space: pre;&quot;&gt;vehicles/{vin}&lt;/span&gt;&lt;/span&gt;" style="rounded=1;whiteSpace=wrap;html=1;fontSize=12;fontColor=default;fontFamily=Helvetica;" parent="p-4kFKT5CtGWcOaHjdYM-1" vertex="1">
          <mxGeometry x="380" y="180.5" width="125" height="40" as="geometry" />
        </mxCell>
        <mxCell id="p-4kFKT5CtGWcOaHjdYM-167" value="POST&lt;br&gt;&lt;span style=&quot;white-space: pre; background-color: rgb(255, 255, 255);&quot;&gt;/&lt;/span&gt;&lt;span style=&quot;background-color: rgb(255, 255, 255); padding: 0px 0px 0px 2px;&quot;&gt;&lt;span style=&quot;font-family: Menlo; white-space: pre;&quot;&gt;vehicles/{vin}&lt;/span&gt;&lt;/span&gt;" style="rounded=1;whiteSpace=wrap;html=1;fontSize=12;fontColor=default;fontFamily=Helvetica;align=center;" parent="p-4kFKT5CtGWcOaHjdYM-1" vertex="1">
          <mxGeometry x="380" y="240.25" width="125" height="40" as="geometry" />
        </mxCell>
        <mxCell id="p-4kFKT5CtGWcOaHjdYM-168" value="&lt;span style=&quot;background-color:#ffffff;padding:0px 0px 0px 2px;&quot;&gt;&lt;span style=&quot;white-space: pre;&quot;&gt;&lt;font style=&quot;color: rgb(0, 0, 0);&quot; face=&quot;Helvetica&quot;&gt;papi-case-rocky-generic&lt;/font&gt;&lt;/span&gt;&lt;/span&gt;" style="rounded=1;whiteSpace=wrap;html=1;fontSize=12;fontFamily=Helvetica;labelBackgroundColor=none;fontColor=default;" parent="p-4kFKT5CtGWcOaHjdYM-1" vertex="1">
          <mxGeometry x="900" y="464" width="280" height="60" as="geometry" />
        </mxCell>
        <mxCell id="p-4kFKT5CtGWcOaHjdYM-169" value="Subscriber / &#xa;Publisher" style="shape=image;verticalLabelPosition=middle;labelBackgroundColor=default;verticalAlign=middle;aspect=fixed;imageAspect=0;image=https://d2has6dvjv0i3b.cloudfront.net/products/anypoint_mq/logo_1681517772.651571.png;labelPosition=right;align=left;" parent="p-4kFKT5CtGWcOaHjdYM-1" vertex="1">
          <mxGeometry x="900" y="544" width="49" height="49" as="geometry" />
        </mxCell>
        <mxCell id="p-4kFKT5CtGWcOaHjdYM-170" value="Audi Smart" style="shape=image;verticalLabelPosition=middle;labelBackgroundColor=default;verticalAlign=middle;aspect=fixed;imageAspect=0;image=https://d22e4d61ky6061.cloudfront.net/sites/default/files/Salesforce_0.png;fontSize=12;fontColor=default;fontFamily=Helvetica;labelPosition=right;align=left;" parent="p-4kFKT5CtGWcOaHjdYM-1" vertex="1">
          <mxGeometry x="900" y="590" width="90" height="90" as="geometry" />
        </mxCell>
        <mxCell id="p-4kFKT5CtGWcOaHjdYM-171" value="&lt;span style=&quot;padding: 0px 0px 0px 2px;&quot;&gt;&lt;span style=&quot;white-space: pre;&quot;&gt;&lt;font style=&quot;font-size: 14px; color: rgb(0, 0, 0);&quot; face=&quot;Helvetica&quot;&gt;eapi-common-nsc-cem-oem&lt;/font&gt;&lt;/span&gt;&lt;/span&gt;" style="rounded=1;whiteSpace=wrap;html=1;fontSize=12;fontFamily=Helvetica;labelBackgroundColor=none;fillColor=#fff2cc;strokeColor=#d6b656;" parent="p-4kFKT5CtGWcOaHjdYM-1" vertex="1">
          <mxGeometry x="900" y="805" width="280" height="60" as="geometry" />
        </mxCell>
        <mxCell id="p-4kFKT5CtGWcOaHjdYM-172" value="Subscriber / &#xa;Publisher" style="shape=image;verticalLabelPosition=middle;labelBackgroundColor=default;verticalAlign=middle;aspect=fixed;imageAspect=0;image=https://d2has6dvjv0i3b.cloudfront.net/products/anypoint_mq/logo_1681517772.651571.png;labelPosition=right;align=left;" parent="p-4kFKT5CtGWcOaHjdYM-1" vertex="1">
          <mxGeometry x="900" y="885" width="49" height="49" as="geometry" />
        </mxCell>
        <mxCell id="p-4kFKT5CtGWcOaHjdYM-173" value="One-CRM" style="shape=image;verticalLabelPosition=middle;labelBackgroundColor=default;verticalAlign=middle;aspect=fixed;imageAspect=0;image=https://d22e4d61ky6061.cloudfront.net/sites/default/files/Salesforce_0.png;fontSize=12;fontColor=default;fontFamily=Helvetica;labelPosition=right;align=left;" parent="p-4kFKT5CtGWcOaHjdYM-1" vertex="1">
          <mxGeometry x="900" y="931" width="90" height="90" as="geometry" />
        </mxCell>
        <mxCell id="p-4kFKT5CtGWcOaHjdYM-174" value="GET&lt;br&gt;&lt;span style=&quot;white-space: pre; background-color: rgb(255, 255, 255);&quot;&gt;/&lt;/span&gt;&lt;font style=&quot;white-space: pre;&quot; face=&quot;Menlo&quot;&gt;cases/{id}&lt;/font&gt;" style="rounded=1;whiteSpace=wrap;html=1;fontSize=12;fontColor=default;fontFamily=Helvetica;" parent="p-4kFKT5CtGWcOaHjdYM-1" vertex="1">
          <mxGeometry x="380" y="921.25" width="125" height="40" as="geometry" />
        </mxCell>
        <mxCell id="p-4kFKT5CtGWcOaHjdYM-175" value="POST&lt;br&gt;&lt;span style=&quot;white-space: pre; background-color: rgb(255, 255, 255);&quot;&gt;/&lt;/span&gt;&lt;span style=&quot;background-color: rgb(255, 255, 255); padding: 0px 0px 0px 2px;&quot;&gt;&lt;span style=&quot;font-family: Menlo; white-space: pre;&quot;&gt;ticket&lt;/span&gt;&lt;/span&gt;" style="rounded=1;whiteSpace=wrap;html=1;fontSize=12;fontColor=default;fontFamily=Helvetica;align=center;" parent="p-4kFKT5CtGWcOaHjdYM-1" vertex="1">
          <mxGeometry x="380" y="981" width="125" height="40" as="geometry" />
        </mxCell>
        <mxCell id="p-4kFKT5CtGWcOaHjdYM-176" value="POST&lt;br&gt;&lt;span style=&quot;white-space: pre; background-color: rgb(255, 255, 255);&quot;&gt;/&lt;font face=&quot;Menlo&quot;&gt;cases&lt;/font&gt;&lt;/span&gt;" style="rounded=1;whiteSpace=wrap;html=1;fontSize=12;fontColor=default;fontFamily=Helvetica;" parent="p-4kFKT5CtGWcOaHjdYM-1" vertex="1">
          <mxGeometry x="380" y="800" width="125" height="40" as="geometry" />
        </mxCell>
        <mxCell id="p-4kFKT5CtGWcOaHjdYM-177" value="PATCH&lt;br&gt;&lt;span style=&quot;white-space: pre; background-color: rgb(255, 255, 255);&quot;&gt;/&lt;font face=&quot;Menlo&quot;&gt;cases/{id}&lt;/font&gt;&lt;/span&gt;" style="rounded=1;whiteSpace=wrap;html=1;fontSize=12;fontColor=default;fontFamily=Helvetica;align=center;" parent="p-4kFKT5CtGWcOaHjdYM-1" vertex="1">
          <mxGeometry x="380" y="859.75" width="125" height="40" as="geometry" />
        </mxCell>
        <mxCell id="p-4kFKT5CtGWcOaHjdYM-178" value="Subscriber / &#xa;Publisher" style="shape=image;verticalLabelPosition=middle;labelBackgroundColor=default;verticalAlign=middle;aspect=fixed;imageAspect=0;image=https://d2has6dvjv0i3b.cloudfront.net/products/anypoint_mq/logo_1681517772.651571.png;labelPosition=right;align=left;" parent="p-4kFKT5CtGWcOaHjdYM-1" vertex="1">
          <mxGeometry x="900" y="1190" width="49" height="49" as="geometry" />
        </mxCell>
        <mxCell id="p-4kFKT5CtGWcOaHjdYM-179" value="Audi Smart" style="shape=image;verticalLabelPosition=middle;labelBackgroundColor=default;verticalAlign=middle;aspect=fixed;imageAspect=0;image=https://d22e4d61ky6061.cloudfront.net/sites/default/files/Salesforce_0.png;fontSize=12;fontColor=default;fontFamily=Helvetica;labelPosition=right;align=left;" parent="p-4kFKT5CtGWcOaHjdYM-1" vertex="1">
          <mxGeometry x="900" y="1236" width="90" height="90" as="geometry" />
        </mxCell>
        <mxCell id="p-4kFKT5CtGWcOaHjdYM-180" value="GET&lt;br&gt;/customers/{id}" style="rounded=1;whiteSpace=wrap;html=1;fontSize=12;fontColor=default;fontFamily=Helvetica;align=center;" parent="p-4kFKT5CtGWcOaHjdYM-1" vertex="1">
          <mxGeometry x="380" y="1230.5" width="125" height="40" as="geometry" />
        </mxCell>
        <mxCell id="p-4kFKT5CtGWcOaHjdYM-181" value="Subscriber / &#xa;Publisher" style="shape=image;verticalLabelPosition=middle;labelBackgroundColor=default;verticalAlign=middle;aspect=fixed;imageAspect=0;image=https://d2has6dvjv0i3b.cloudfront.net/products/anypoint_mq/logo_1681517772.651571.png;labelPosition=right;align=left;" parent="p-4kFKT5CtGWcOaHjdYM-1" vertex="1">
          <mxGeometry x="900" y="1530" width="49" height="49" as="geometry" />
        </mxCell>
        <mxCell id="p-4kFKT5CtGWcOaHjdYM-182" value="One-CRM" style="shape=image;verticalLabelPosition=middle;labelBackgroundColor=default;verticalAlign=middle;aspect=fixed;imageAspect=0;image=https://d22e4d61ky6061.cloudfront.net/sites/default/files/Salesforce_0.png;fontSize=12;fontColor=default;fontFamily=Helvetica;labelPosition=right;align=left;" parent="p-4kFKT5CtGWcOaHjdYM-1" vertex="1">
          <mxGeometry x="900" y="1576" width="90" height="90" as="geometry" />
        </mxCell>
        <mxCell id="p-4kFKT5CtGWcOaHjdYM-183" value="DELETE&lt;br&gt;&lt;span style=&quot;white-space: pre; background-color: rgb(255, 255, 255);&quot;&gt;/&lt;/span&gt;&lt;font style=&quot;white-space: pre;&quot; face=&quot;Menlo&quot;&gt;customers/{id}&lt;/font&gt;" style="rounded=1;whiteSpace=wrap;html=1;fontSize=12;fontColor=default;fontFamily=Helvetica;" parent="p-4kFKT5CtGWcOaHjdYM-1" vertex="1">
          <mxGeometry x="380" y="1661.75" width="125" height="40" as="geometry" />
        </mxCell>
        <mxCell id="p-4kFKT5CtGWcOaHjdYM-184" value="PATCH&lt;br&gt;&lt;span style=&quot;white-space: pre; background-color: rgb(255, 255, 255);&quot;&gt;/contacts/{id}&lt;/span&gt;" style="rounded=1;whiteSpace=wrap;html=1;fontSize=12;fontColor=default;fontFamily=Helvetica;align=center;" parent="p-4kFKT5CtGWcOaHjdYM-1" vertex="1">
          <mxGeometry x="380" y="1721.5" width="125" height="40" as="geometry" />
        </mxCell>
        <mxCell id="p-4kFKT5CtGWcOaHjdYM-185" value="PATCH&lt;br&gt;&lt;span style=&quot;white-space: pre; background-color: rgb(255, 255, 255);&quot;&gt;/&lt;/span&gt;&lt;font style=&quot;white-space: pre;&quot; face=&quot;Menlo&quot;&gt;customers&lt;/font&gt;" style="rounded=1;whiteSpace=wrap;html=1;fontSize=12;fontColor=default;fontFamily=Helvetica;" parent="p-4kFKT5CtGWcOaHjdYM-1" vertex="1">
          <mxGeometry x="380" y="1540.5" width="125" height="40" as="geometry" />
        </mxCell>
        <mxCell id="p-4kFKT5CtGWcOaHjdYM-186" value="PATCH&lt;br&gt;&lt;span style=&quot;white-space: pre; background-color: rgb(255, 255, 255);&quot;&gt;/&lt;/span&gt;&lt;font style=&quot;white-space: pre;&quot; face=&quot;Menlo&quot;&gt;customers/{id}&lt;/font&gt;" style="rounded=1;whiteSpace=wrap;html=1;fontSize=12;fontColor=default;fontFamily=Helvetica;align=center;" parent="p-4kFKT5CtGWcOaHjdYM-1" vertex="1">
          <mxGeometry x="380" y="1600.25" width="125" height="40" as="geometry" />
        </mxCell>
        <mxCell id="p-4kFKT5CtGWcOaHjdYM-187" value="GET&lt;br&gt;&lt;span style=&quot;white-space: pre; background-color: rgb(255, 255, 255);&quot;&gt;/&lt;/span&gt;&lt;font style=&quot;white-space: pre;&quot; face=&quot;Menlo&quot;&gt;customers&lt;/font&gt;" style="rounded=1;whiteSpace=wrap;html=1;fontSize=12;fontColor=default;fontFamily=Helvetica;" parent="p-4kFKT5CtGWcOaHjdYM-1" vertex="1">
          <mxGeometry x="380" y="1420.75" width="125" height="40" as="geometry" />
        </mxCell>
        <mxCell id="p-4kFKT5CtGWcOaHjdYM-188" value="POST&lt;br&gt;&lt;span style=&quot;white-space: pre; background-color: rgb(255, 255, 255);&quot;&gt;/&lt;/span&gt;&lt;font style=&quot;white-space: pre;&quot; face=&quot;Menlo&quot;&gt;customers&lt;/font&gt;" style="rounded=1;whiteSpace=wrap;html=1;fontSize=12;fontColor=default;fontFamily=Helvetica;align=center;" parent="p-4kFKT5CtGWcOaHjdYM-1" vertex="1">
          <mxGeometry x="380" y="1480.5" width="125" height="40" as="geometry" />
        </mxCell>
        <mxCell id="p-4kFKT5CtGWcOaHjdYM-189" value="Cron Job&lt;br&gt;&lt;span style=&quot;padding: 0px 0px 0px 2px;&quot;&gt;&lt;span style=&quot;white-space-collapse: preserve;&quot;&gt;&lt;span style=&quot;&quot;&gt;&lt;font face=&quot;Helvetica&quot; style=&quot;&quot;&gt;Monday at 12:00 am - UTC&lt;/font&gt;&lt;/span&gt;&lt;/span&gt;&lt;/span&gt;" style="editableCssRules=.*;html=1;shape=image;verticalLabelPosition=bottom;labelBackgroundColor=#ffffff;verticalAlign=top;aspect=fixed;imageAspect=0;image=data:image/svg+xml,PHN2ZyB4bWxucz0iaHR0cDovL3d3dy53My5vcmcvMjAwMC9zdmciIHhtbG5zOnY9Imh0dHBzOi8vdmVjdGEuaW8vbmFubyIgd2lkdGg9IjM2MC4zMDM3NjY4NjA4MzYzIiBoZWlnaHQ9IjM3OC4wNTExNTgwNzc0MDg4IiB2aWV3Qm94PSItMC4wMDAxNjI0MjExNDM2MTM3NTU3IC0wLjAwMDEwMDAwNTk0OTIwNzExNTkyIDk1LjMzMDI2MTIzMDQ2ODc1IDEwMC4wMjYxMDAxNTg2OTE0Ij4mI3hhOzxzdHlsZSB0eXBlPSJ0ZXh0L2NzcyI+JiN4YTsJLnN0MHtmaWxsOiM0Mjg1ZjQ7fSYjeGE7CS5zdDF7ZmlsbDojYWVjYmZhO30mI3hhOwkuc3Qye2ZpbGw6IzY2OWRmNjt9JiN4YTs8L3N0eWxlPiYjeGE7CTxwYXRoIGNsYXNzPSJzdDAiIGQ9Ik03OS45NzEgNzcuNzE1bC03LjM1OSA3LjQ4OCA4LjYzOSA4LjQ5IDcuMzU5LTcuNDg4em0tNjUuMDk2LjA2MWwtOC42NDEgOC40OTIgNy4zNjEgNy40ODggOC42MzktOC40OXoiLz4mI3hhOwk8cGF0aCBjbGFzcz0ic3QxIiBkPSJNNzkuNTUzLjIyMWE1LjI1IDUuMjUgMCAwIDAtMy42NiA4Ljk4NEw4Ni4zODkgMTkuNThhNS4yNSA1LjI1IDAgMCAwIDguOTQxLTMuNzY1IDUuMjUgNS4yNSAwIDAgMC0xLjU2LTMuNzA0TDgzLjI3NSAxLjczOEE1LjI1IDUuMjUgMCAwIDAgNzkuNTUzLjIyMXpNMTUuOTE2IDBhNS4yNSA1LjI1IDAgMCAwLTMuNzIzIDEuNTE2TDEuNjk5IDExLjg5MWE1LjI1IDUuMjUgMCAwIDAtLjA0MyA3LjQyNCA1LjI1IDUuMjUgMCAwIDAgNy40MjQuMDQzTDE5LjU3NiA4Ljk4MkE1LjI1IDUuMjUgMCAwIDAgMTUuOTE2IDB6Ii8+JiN4YTsJPHBhdGggY2xhc3M9InN0MCIgZD0iTTQ4LjEzOCAyNi4yNGMxMy4zNDcgMCAyNS40MzIgMTEuMTM2IDI1LjMxIDI2LjQ4MSAwIDE1LjExLTEyLjI2NyAyNS42NzMtMjUuMTg5IDI1LjY3My0xMS4xNDkgMC0xOC4zMTctNS4xNzEtMjEuOTYtMTAuNzM4bDIxLjgzOS0xNS4wOTd6Ii8+JiN4YTsJPHBhdGggY2xhc3M9InN0MiIgZD0iTTgxLjI1IDkzLjY5M2w0LjY2NCA0LjU4NmE1LjI1IDUuMjUgMCAxIDAgNy4zNjEtNy40OWwtNC42NjYtNC41ODR6TTYuMjM0IDg2LjI2OEwxLjU3IDkwLjg1MWE1LjI1IDUuMjUgMCAwIDAtLjA2NSA3LjQyNCA1LjI1IDUuMjUgMCAwIDAgNy40MjQuMDY0bDQuNjY2LTQuNTg0ek00Ny4zNzEgNS41NzhDMjEuMzQ5IDUuNTc4LjE0NiAyNi43NzkuMTQ2IDUyLjgwMXMyMS4yMDMgNDcuMjI1IDQ3LjIyNSA0Ny4yMjUgNDcuMjI1LTIxLjIwMyA0Ny4yMjUtNDcuMjI1UzczLjM5MyA1LjU3OCA0Ny4zNzEgNS41Nzh6bTAgMTBhMzcuMTUgMzcuMTUgMCAwIDEgMzcuMjI1IDM3LjIyM2MwIDIwLjYxNy0xNi42MDcgMzcuMjI1LTM3LjIyNSAzNy4yMjVTMTAuMTQ2IDczLjQxOCAxMC4xNDYgNTIuODAxYTM3LjE1IDM3LjE1IDAgMCAxIDM3LjIyNS0zNy4yMjN6Ii8+JiN4YTs8L3N2Zz4=;fontColor=default;" parent="p-4kFKT5CtGWcOaHjdYM-1" vertex="1">
          <mxGeometry x="590" y="1998" width="38" height="40" as="geometry" />
        </mxCell>
        <mxCell id="p-4kFKT5CtGWcOaHjdYM-190" value="Cron Job&lt;br&gt;&lt;span style=&quot;padding: 0px 0px 0px 2px;&quot;&gt;&lt;span style=&quot;white-space-collapse: preserve;&quot;&gt;&lt;span style=&quot;&quot;&gt;&lt;font face=&quot;Helvetica&quot; style=&quot;&quot;&gt;Daily at 12:00 pm - UTC&lt;/font&gt;&lt;/span&gt;&lt;/span&gt;&lt;/span&gt;" style="editableCssRules=.*;html=1;shape=image;verticalLabelPosition=bottom;labelBackgroundColor=#ffffff;verticalAlign=top;aspect=fixed;imageAspect=0;image=data:image/svg+xml,PHN2ZyB4bWxucz0iaHR0cDovL3d3dy53My5vcmcvMjAwMC9zdmciIHhtbG5zOnY9Imh0dHBzOi8vdmVjdGEuaW8vbmFubyIgd2lkdGg9IjM2MC4zMDM3NjY4NjA4MzYzIiBoZWlnaHQ9IjM3OC4wNTExNTgwNzc0MDg4IiB2aWV3Qm94PSItMC4wMDAxNjI0MjExNDM2MTM3NTU3IC0wLjAwMDEwMDAwNTk0OTIwNzExNTkyIDk1LjMzMDI2MTIzMDQ2ODc1IDEwMC4wMjYxMDAxNTg2OTE0Ij4mI3hhOzxzdHlsZSB0eXBlPSJ0ZXh0L2NzcyI+JiN4YTsJLnN0MHtmaWxsOiM0Mjg1ZjQ7fSYjeGE7CS5zdDF7ZmlsbDojYWVjYmZhO30mI3hhOwkuc3Qye2ZpbGw6IzY2OWRmNjt9JiN4YTs8L3N0eWxlPiYjeGE7CTxwYXRoIGNsYXNzPSJzdDAiIGQ9Ik03OS45NzEgNzcuNzE1bC03LjM1OSA3LjQ4OCA4LjYzOSA4LjQ5IDcuMzU5LTcuNDg4em0tNjUuMDk2LjA2MWwtOC42NDEgOC40OTIgNy4zNjEgNy40ODggOC42MzktOC40OXoiLz4mI3hhOwk8cGF0aCBjbGFzcz0ic3QxIiBkPSJNNzkuNTUzLjIyMWE1LjI1IDUuMjUgMCAwIDAtMy42NiA4Ljk4NEw4Ni4zODkgMTkuNThhNS4yNSA1LjI1IDAgMCAwIDguOTQxLTMuNzY1IDUuMjUgNS4yNSAwIDAgMC0xLjU2LTMuNzA0TDgzLjI3NSAxLjczOEE1LjI1IDUuMjUgMCAwIDAgNzkuNTUzLjIyMXpNMTUuOTE2IDBhNS4yNSA1LjI1IDAgMCAwLTMuNzIzIDEuNTE2TDEuNjk5IDExLjg5MWE1LjI1IDUuMjUgMCAwIDAtLjA0MyA3LjQyNCA1LjI1IDUuMjUgMCAwIDAgNy40MjQuMDQzTDE5LjU3NiA4Ljk4MkE1LjI1IDUuMjUgMCAwIDAgMTUuOTE2IDB6Ii8+JiN4YTsJPHBhdGggY2xhc3M9InN0MCIgZD0iTTQ4LjEzOCAyNi4yNGMxMy4zNDcgMCAyNS40MzIgMTEuMTM2IDI1LjMxIDI2LjQ4MSAwIDE1LjExLTEyLjI2NyAyNS42NzMtMjUuMTg5IDI1LjY3My0xMS4xNDkgMC0xOC4zMTctNS4xNzEtMjEuOTYtMTAuNzM4bDIxLjgzOS0xNS4wOTd6Ii8+JiN4YTsJPHBhdGggY2xhc3M9InN0MiIgZD0iTTgxLjI1IDkzLjY5M2w0LjY2NCA0LjU4NmE1LjI1IDUuMjUgMCAxIDAgNy4zNjEtNy40OWwtNC42NjYtNC41ODR6TTYuMjM0IDg2LjI2OEwxLjU3IDkwLjg1MWE1LjI1IDUuMjUgMCAwIDAtLjA2NSA3LjQyNCA1LjI1IDUuMjUgMCAwIDAgNy40MjQuMDY0bDQuNjY2LTQuNTg0ek00Ny4zNzEgNS41NzhDMjEuMzQ5IDUuNTc4LjE0NiAyNi43NzkuMTQ2IDUyLjgwMXMyMS4yMDMgNDcuMjI1IDQ3LjIyNSA0Ny4yMjUgNDcuMjI1LTIxLjIwMyA0Ny4yMjUtNDcuMjI1UzczLjM5MyA1LjU3OCA0Ny4zNzEgNS41Nzh6bTAgMTBhMzcuMTUgMzcuMTUgMCAwIDEgMzcuMjI1IDM3LjIyM2MwIDIwLjYxNy0xNi42MDcgMzcuMjI1LTM3LjIyNSAzNy4yMjVTMTAuMTQ2IDczLjQxOCAxMC4xNDYgNTIuODAxYTM3LjE1IDM3LjE1IDAgMCAxIDM3LjIyNS0zNy4yMjN6Ii8+JiN4YTs8L3N2Zz4=;fontColor=default;" parent="p-4kFKT5CtGWcOaHjdYM-1" vertex="1">
          <mxGeometry x="750" y="1998" width="38" height="40" as="geometry" />
        </mxCell>
        <mxCell id="p-4kFKT5CtGWcOaHjdYM-191" value="RVS" style="sketch=0;outlineConnect=0;fontColor=#232F3E;gradientColor=none;fillColor=#01A88D;strokeColor=none;dashed=0;verticalLabelPosition=middle;verticalAlign=middle;align=left;html=1;fontSize=12;fontStyle=0;aspect=fixed;shape=mxgraph.aws4.transfer_for_ftp_resource;labelPosition=right;spacingLeft=18;" parent="p-4kFKT5CtGWcOaHjdYM-1" vertex="1">
          <mxGeometry x="900" y="1859" width="58.46" height="60" as="geometry" />
        </mxCell>
        <mxCell id="p-4kFKT5CtGWcOaHjdYM-192" value="One-CRM" style="shape=image;verticalLabelPosition=middle;labelBackgroundColor=default;verticalAlign=middle;aspect=fixed;imageAspect=0;image=https://d22e4d61ky6061.cloudfront.net/sites/default/files/Salesforce_0.png;fontSize=12;fontColor=default;fontFamily=Helvetica;labelPosition=right;align=left;" parent="p-4kFKT5CtGWcOaHjdYM-1" vertex="1">
          <mxGeometry x="900" y="1919" width="90" height="90" as="geometry" />
        </mxCell>
        <mxCell id="p-4kFKT5CtGWcOaHjdYM-193" value="Audi Smart" style="shape=image;verticalLabelPosition=middle;labelBackgroundColor=default;verticalAlign=middle;aspect=fixed;imageAspect=0;image=https://d22e4d61ky6061.cloudfront.net/sites/default/files/Salesforce_0.png;fontSize=12;fontColor=default;fontFamily=Helvetica;labelPosition=right;align=left;" parent="p-4kFKT5CtGWcOaHjdYM-1" vertex="1">
          <mxGeometry x="900" y="2269" width="90" height="90" as="geometry" />
        </mxCell>
        <mxCell id="p-4kFKT5CtGWcOaHjdYM-194" value="Subscriber / &#xa;Publisher" style="shape=image;verticalLabelPosition=middle;labelBackgroundColor=default;verticalAlign=middle;aspect=fixed;imageAspect=0;image=https://d2has6dvjv0i3b.cloudfront.net/products/anypoint_mq/logo_1681517772.651571.png;labelPosition=right;align=left;" parent="p-4kFKT5CtGWcOaHjdYM-1" vertex="1">
          <mxGeometry x="900" y="2209" width="49" height="49" as="geometry" />
        </mxCell>
        <mxCell id="p-4kFKT5CtGWcOaHjdYM-195" value="PATCH&lt;br&gt;&lt;span style=&quot;white-space: pre; background-color: rgb(255, 255, 255);&quot;&gt;/contacts/{id}&lt;/span&gt;" style="rounded=1;whiteSpace=wrap;html=1;fontSize=12;fontColor=default;fontFamily=Helvetica;align=center;" parent="p-4kFKT5CtGWcOaHjdYM-1" vertex="1">
          <mxGeometry x="380" y="2250" width="125" height="40" as="geometry" />
        </mxCell>
        <mxCell id="p-4kFKT5CtGWcOaHjdYM-196" value="Audi Smart" style="shape=image;verticalLabelPosition=middle;labelBackgroundColor=default;verticalAlign=middle;aspect=fixed;imageAspect=0;image=https://d22e4d61ky6061.cloudfront.net/sites/default/files/Salesforce_0.png;fontSize=12;fontColor=default;fontFamily=Helvetica;labelPosition=right;align=left;" parent="p-4kFKT5CtGWcOaHjdYM-1" vertex="1">
          <mxGeometry x="2140" y="140" width="90" height="90" as="geometry" />
        </mxCell>
        <mxCell id="p-4kFKT5CtGWcOaHjdYM-197" value="One-CRM" style="shape=image;verticalLabelPosition=middle;labelBackgroundColor=default;verticalAlign=middle;aspect=fixed;imageAspect=0;image=https://d22e4d61ky6061.cloudfront.net/sites/default/files/Salesforce_0.png;fontSize=12;fontColor=default;fontFamily=Helvetica;labelPosition=right;align=left;" parent="p-4kFKT5CtGWcOaHjdYM-1" vertex="1">
          <mxGeometry x="2140" y="230" width="90" height="90" as="geometry" />
        </mxCell>
        <mxCell id="p-4kFKT5CtGWcOaHjdYM-198" value="POST&lt;br&gt;&lt;font style=&quot;color: rgb(0, 0, 0);&quot;&gt;&lt;span style=&quot;white-space: pre; background-color: rgb(255, 255, 255);&quot;&gt;/&lt;/span&gt;billing-content-documents&lt;/font&gt;" style="rounded=1;whiteSpace=wrap;html=1;fontSize=12;fontColor=default;fontFamily=Helvetica;" parent="p-4kFKT5CtGWcOaHjdYM-1" vertex="1">
          <mxGeometry x="1550" y="210" width="195" height="40" as="geometry" />
        </mxCell>
        <mxCell id="p-4kFKT5CtGWcOaHjdYM-199" value="Cron Job&lt;br&gt;&lt;span style=&quot;padding: 0px 0px 0px 2px;&quot;&gt;&lt;span style=&quot;white-space-collapse: preserve;&quot;&gt;&lt;span style=&quot;&quot;&gt;&lt;font face=&quot;Helvetica&quot; style=&quot;&quot;&gt;Every 5 minutes&lt;/font&gt;&lt;/span&gt;&lt;/span&gt;&lt;/span&gt;" style="editableCssRules=.*;html=1;shape=image;verticalLabelPosition=bottom;labelBackgroundColor=#ffffff;verticalAlign=top;aspect=fixed;imageAspect=0;image=data:image/svg+xml,PHN2ZyB4bWxucz0iaHR0cDovL3d3dy53My5vcmcvMjAwMC9zdmciIHhtbG5zOnY9Imh0dHBzOi8vdmVjdGEuaW8vbmFubyIgd2lkdGg9IjM2MC4zMDM3NjY4NjA4MzYzIiBoZWlnaHQ9IjM3OC4wNTExNTgwNzc0MDg4IiB2aWV3Qm94PSItMC4wMDAxNjI0MjExNDM2MTM3NTU3IC0wLjAwMDEwMDAwNTk0OTIwNzExNTkyIDk1LjMzMDI2MTIzMDQ2ODc1IDEwMC4wMjYxMDAxNTg2OTE0Ij4mI3hhOzxzdHlsZSB0eXBlPSJ0ZXh0L2NzcyI+JiN4YTsJLnN0MHtmaWxsOiM0Mjg1ZjQ7fSYjeGE7CS5zdDF7ZmlsbDojYWVjYmZhO30mI3hhOwkuc3Qye2ZpbGw6IzY2OWRmNjt9JiN4YTs8L3N0eWxlPiYjeGE7CTxwYXRoIGNsYXNzPSJzdDAiIGQ9Ik03OS45NzEgNzcuNzE1bC03LjM1OSA3LjQ4OCA4LjYzOSA4LjQ5IDcuMzU5LTcuNDg4em0tNjUuMDk2LjA2MWwtOC42NDEgOC40OTIgNy4zNjEgNy40ODggOC42MzktOC40OXoiLz4mI3hhOwk8cGF0aCBjbGFzcz0ic3QxIiBkPSJNNzkuNTUzLjIyMWE1LjI1IDUuMjUgMCAwIDAtMy42NiA4Ljk4NEw4Ni4zODkgMTkuNThhNS4yNSA1LjI1IDAgMCAwIDguOTQxLTMuNzY1IDUuMjUgNS4yNSAwIDAgMC0xLjU2LTMuNzA0TDgzLjI3NSAxLjczOEE1LjI1IDUuMjUgMCAwIDAgNzkuNTUzLjIyMXpNMTUuOTE2IDBhNS4yNSA1LjI1IDAgMCAwLTMuNzIzIDEuNTE2TDEuNjk5IDExLjg5MWE1LjI1IDUuMjUgMCAwIDAtLjA0MyA3LjQyNCA1LjI1IDUuMjUgMCAwIDAgNy40MjQuMDQzTDE5LjU3NiA4Ljk4MkE1LjI1IDUuMjUgMCAwIDAgMTUuOTE2IDB6Ii8+JiN4YTsJPHBhdGggY2xhc3M9InN0MCIgZD0iTTQ4LjEzOCAyNi4yNGMxMy4zNDcgMCAyNS40MzIgMTEuMTM2IDI1LjMxIDI2LjQ4MSAwIDE1LjExLTEyLjI2NyAyNS42NzMtMjUuMTg5IDI1LjY3My0xMS4xNDkgMC0xOC4zMTctNS4xNzEtMjEuOTYtMTAuNzM4bDIxLjgzOS0xNS4wOTd6Ii8+JiN4YTsJPHBhdGggY2xhc3M9InN0MiIgZD0iTTgxLjI1IDkzLjY5M2w0LjY2NCA0LjU4NmE1LjI1IDUuMjUgMCAxIDAgNy4zNjEtNy40OWwtNC42NjYtNC41ODR6TTYuMjM0IDg2LjI2OEwxLjU3IDkwLjg1MWE1LjI1IDUuMjUgMCAwIDAtLjA2NSA3LjQyNCA1LjI1IDUuMjUgMCAwIDAgNy40MjQuMDY0bDQuNjY2LTQuNTg0ek00Ny4zNzEgNS41NzhDMjEuMzQ5IDUuNTc4LjE0NiAyNi43NzkuMTQ2IDUyLjgwMXMyMS4yMDMgNDcuMjI1IDQ3LjIyNSA0Ny4yMjUgNDcuMjI1LTIxLjIwMyA0Ny4yMjUtNDcuMjI1UzczLjM5MyA1LjU3OCA0Ny4zNzEgNS41Nzh6bTAgMTBhMzcuMTUgMzcuMTUgMCAwIDEgMzcuMjI1IDM3LjIyM2MwIDIwLjYxNy0xNi42MDcgMzcuMjI1LTM3LjIyNSAzNy4yMjVTMTAuMTQ2IDczLjQxOCAxMC4xNDYgNTIuODAxYTM3LjE1IDM3LjE1IDAgMCAxIDM3LjIyNS0zNy4yMjN6Ii8+JiN4YTs8L3N2Zz4=;fontColor=default;" parent="p-4kFKT5CtGWcOaHjdYM-1" vertex="1">
          <mxGeometry x="1911" y="300" width="38" height="40" as="geometry" />
        </mxCell>
        <mxCell id="p-4kFKT5CtGWcOaHjdYM-200" value="One-CRM" style="shape=image;verticalLabelPosition=middle;labelBackgroundColor=default;verticalAlign=middle;aspect=fixed;imageAspect=0;image=https://d22e4d61ky6061.cloudfront.net/sites/default/files/Salesforce_0.png;fontSize=12;fontColor=default;fontFamily=Helvetica;labelPosition=right;align=left;" parent="p-4kFKT5CtGWcOaHjdYM-1" vertex="1">
          <mxGeometry x="2140" y="490.5" width="90" height="90" as="geometry" />
        </mxCell>
        <mxCell id="p-4kFKT5CtGWcOaHjdYM-201" value="Subscriber / &#xa;Publisher" style="shape=image;verticalLabelPosition=middle;labelBackgroundColor=default;verticalAlign=middle;aspect=fixed;imageAspect=0;image=https://d2has6dvjv0i3b.cloudfront.net/products/anypoint_mq/logo_1681517772.651571.png;labelPosition=right;align=left;" parent="p-4kFKT5CtGWcOaHjdYM-1" vertex="1">
          <mxGeometry x="2140" y="580.5" width="49" height="49" as="geometry" />
        </mxCell>
        <mxCell id="p-4kFKT5CtGWcOaHjdYM-202" value="PATCH&lt;br&gt;&lt;span style=&quot;white-space: pre; background-color: rgb(255, 255, 255);&quot;&gt;/&lt;font face=&quot;Menlo&quot;&gt;leads&lt;/font&gt;&lt;/span&gt;" style="rounded=1;whiteSpace=wrap;html=1;fontSize=12;fontColor=default;fontFamily=Helvetica;" parent="p-4kFKT5CtGWcOaHjdYM-1" vertex="1">
          <mxGeometry x="1620" y="580.75" width="125" height="40" as="geometry" />
        </mxCell>
        <mxCell id="p-4kFKT5CtGWcOaHjdYM-203" value="PATCH&lt;br&gt;&lt;span style=&quot;white-space: pre; background-color: rgb(255, 255, 255);&quot;&gt;/&lt;/span&gt;opportunities/{id}" style="rounded=1;whiteSpace=wrap;html=1;fontSize=12;fontColor=default;fontFamily=Helvetica;align=center;" parent="p-4kFKT5CtGWcOaHjdYM-1" vertex="1">
          <mxGeometry x="1620" y="640.5" width="125" height="40" as="geometry" />
        </mxCell>
        <mxCell id="p-4kFKT5CtGWcOaHjdYM-204" value="GET&lt;br&gt;&lt;span style=&quot;white-space: pre; background-color: rgb(255, 255, 255);&quot;&gt;/&lt;font face=&quot;Menlo&quot;&gt;leads&lt;/font&gt;&lt;/span&gt;" style="rounded=1;whiteSpace=wrap;html=1;fontSize=12;fontColor=default;fontFamily=Helvetica;" parent="p-4kFKT5CtGWcOaHjdYM-1" vertex="1">
          <mxGeometry x="1620" y="459.5" width="125" height="40" as="geometry" />
        </mxCell>
        <mxCell id="p-4kFKT5CtGWcOaHjdYM-205" value="POST&lt;br&gt;&lt;span style=&quot;white-space: pre; background-color: rgb(255, 255, 255);&quot;&gt;/&lt;font face=&quot;Menlo&quot;&gt;leads&lt;/font&gt;&lt;/span&gt;" style="rounded=1;whiteSpace=wrap;html=1;fontSize=12;fontColor=default;fontFamily=Helvetica;align=center;" parent="p-4kFKT5CtGWcOaHjdYM-1" vertex="1">
          <mxGeometry x="1620" y="519.25" width="125" height="40" as="geometry" />
        </mxCell>
        <mxCell id="p-4kFKT5CtGWcOaHjdYM-206" value="Audi Smart" style="shape=image;verticalLabelPosition=middle;labelBackgroundColor=default;verticalAlign=middle;aspect=fixed;imageAspect=0;image=https://d22e4d61ky6061.cloudfront.net/sites/default/files/Salesforce_0.png;fontSize=12;fontColor=default;fontFamily=Helvetica;labelPosition=right;align=left;" parent="p-4kFKT5CtGWcOaHjdYM-1" vertex="1">
          <mxGeometry x="2140" y="899" width="90" height="90" as="geometry" />
        </mxCell>
        <mxCell id="p-4kFKT5CtGWcOaHjdYM-207" value="Subscriber / &#xa;Publisher" style="shape=image;verticalLabelPosition=middle;labelBackgroundColor=default;verticalAlign=middle;aspect=fixed;imageAspect=0;image=https://d2has6dvjv0i3b.cloudfront.net/products/anypoint_mq/logo_1681517772.651571.png;labelPosition=right;align=left;" parent="p-4kFKT5CtGWcOaHjdYM-1" vertex="1">
          <mxGeometry x="2141" y="981" width="49" height="49" as="geometry" />
        </mxCell>
        <mxCell id="p-4kFKT5CtGWcOaHjdYM-208" value="&lt;span style=&quot;padding: 0px 0px 0px 2px;&quot;&gt;&lt;span style=&quot;white-space: pre;&quot;&gt;&lt;span style=&quot;&quot;&gt;&lt;font&gt;sapi-vehicle-sfdc-rocky-core&lt;/font&gt;&lt;/span&gt;&lt;/span&gt;&lt;/span&gt;" style="rounded=1;whiteSpace=wrap;html=1;fontSize=12;fontFamily=Helvetica;labelBackgroundColor=none;fontColor=default;" parent="p-4kFKT5CtGWcOaHjdYM-1" vertex="1">
          <mxGeometry x="2140" y="838" width="280" height="60" as="geometry" />
        </mxCell>
        <mxCell id="p-4kFKT5CtGWcOaHjdYM-209" value="&lt;span style=&quot;padding: 0px 0px 0px 2px;&quot;&gt;&lt;span style=&quot;white-space: pre;&quot;&gt;&lt;font style=&quot;color: rgb(0, 0, 0);&quot; face=&quot;Helvetica&quot;&gt;papi-order-onecrm-generic&lt;/font&gt;&lt;/span&gt;&lt;/span&gt;" style="rounded=1;whiteSpace=wrap;html=1;fontSize=12;fontFamily=Helvetica;labelBackgroundColor=none;" parent="p-4kFKT5CtGWcOaHjdYM-1" vertex="1">
          <mxGeometry x="2140" y="758" width="280" height="60" as="geometry" />
        </mxCell>
        <mxCell id="p-4kFKT5CtGWcOaHjdYM-210" value="POST&lt;br&gt;&lt;span style=&quot;white-space: pre; background-color: rgb(255, 255, 255);&quot;&gt;/&lt;/span&gt;billingRequest" style="rounded=1;whiteSpace=wrap;html=1;fontSize=12;fontColor=default;fontFamily=Helvetica;align=center;" parent="p-4kFKT5CtGWcOaHjdYM-1" vertex="1">
          <mxGeometry x="1620" y="890" width="125" height="40" as="geometry" />
        </mxCell>
        <mxCell id="p-4kFKT5CtGWcOaHjdYM-211" value="Cron Job&lt;br&gt;&lt;span style=&quot;padding: 0px 0px 0px 2px;&quot;&gt;&lt;span style=&quot;white-space-collapse: preserve;&quot;&gt;&lt;span style=&quot;&quot;&gt;&lt;font face=&quot;Helvetica&quot; style=&quot;&quot;&gt;Every 15 minutes&lt;/font&gt;&lt;/span&gt;&lt;/span&gt;&lt;/span&gt;" style="editableCssRules=.*;html=1;shape=image;verticalLabelPosition=bottom;labelBackgroundColor=#ffffff;verticalAlign=top;aspect=fixed;imageAspect=0;image=data:image/svg+xml,PHN2ZyB4bWxucz0iaHR0cDovL3d3dy53My5vcmcvMjAwMC9zdmciIHhtbG5zOnY9Imh0dHBzOi8vdmVjdGEuaW8vbmFubyIgd2lkdGg9IjM2MC4zMDM3NjY4NjA4MzYzIiBoZWlnaHQ9IjM3OC4wNTExNTgwNzc0MDg4IiB2aWV3Qm94PSItMC4wMDAxNjI0MjExNDM2MTM3NTU3IC0wLjAwMDEwMDAwNTk0OTIwNzExNTkyIDk1LjMzMDI2MTIzMDQ2ODc1IDEwMC4wMjYxMDAxNTg2OTE0Ij4mI3hhOzxzdHlsZSB0eXBlPSJ0ZXh0L2NzcyI+JiN4YTsJLnN0MHtmaWxsOiM0Mjg1ZjQ7fSYjeGE7CS5zdDF7ZmlsbDojYWVjYmZhO30mI3hhOwkuc3Qye2ZpbGw6IzY2OWRmNjt9JiN4YTs8L3N0eWxlPiYjeGE7CTxwYXRoIGNsYXNzPSJzdDAiIGQ9Ik03OS45NzEgNzcuNzE1bC03LjM1OSA3LjQ4OCA4LjYzOSA4LjQ5IDcuMzU5LTcuNDg4em0tNjUuMDk2LjA2MWwtOC42NDEgOC40OTIgNy4zNjEgNy40ODggOC42MzktOC40OXoiLz4mI3hhOwk8cGF0aCBjbGFzcz0ic3QxIiBkPSJNNzkuNTUzLjIyMWE1LjI1IDUuMjUgMCAwIDAtMy42NiA4Ljk4NEw4Ni4zODkgMTkuNThhNS4yNSA1LjI1IDAgMCAwIDguOTQxLTMuNzY1IDUuMjUgNS4yNSAwIDAgMC0xLjU2LTMuNzA0TDgzLjI3NSAxLjczOEE1LjI1IDUuMjUgMCAwIDAgNzkuNTUzLjIyMXpNMTUuOTE2IDBhNS4yNSA1LjI1IDAgMCAwLTMuNzIzIDEuNTE2TDEuNjk5IDExLjg5MWE1LjI1IDUuMjUgMCAwIDAtLjA0MyA3LjQyNCA1LjI1IDUuMjUgMCAwIDAgNy40MjQuMDQzTDE5LjU3NiA4Ljk4MkE1LjI1IDUuMjUgMCAwIDAgMTUuOTE2IDB6Ii8+JiN4YTsJPHBhdGggY2xhc3M9InN0MCIgZD0iTTQ4LjEzOCAyNi4yNGMxMy4zNDcgMCAyNS40MzIgMTEuMTM2IDI1LjMxIDI2LjQ4MSAwIDE1LjExLTEyLjI2NyAyNS42NzMtMjUuMTg5IDI1LjY3My0xMS4xNDkgMC0xOC4zMTctNS4xNzEtMjEuOTYtMTAuNzM4bDIxLjgzOS0xNS4wOTd6Ii8+JiN4YTsJPHBhdGggY2xhc3M9InN0MiIgZD0iTTgxLjI1IDkzLjY5M2w0LjY2NCA0LjU4NmE1LjI1IDUuMjUgMCAxIDAgNy4zNjEtNy40OWwtNC42NjYtNC41ODR6TTYuMjM0IDg2LjI2OEwxLjU3IDkwLjg1MWE1LjI1IDUuMjUgMCAwIDAtLjA2NSA3LjQyNCA1LjI1IDUuMjUgMCAwIDAgNy40MjQuMDY0bDQuNjY2LTQuNTg0ek00Ny4zNzEgNS41NzhDMjEuMzQ5IDUuNTc4LjE0NiAyNi43NzkuMTQ2IDUyLjgwMXMyMS4yMDMgNDcuMjI1IDQ3LjIyNSA0Ny4yMjUgNDcuMjI1LTIxLjIwMyA0Ny4yMjUtNDcuMjI1UzczLjM5MyA1LjU3OCA0Ny4zNzEgNS41Nzh6bTAgMTBhMzcuMTUgMzcuMTUgMCAwIDEgMzcuMjI1IDM3LjIyM2MwIDIwLjYxNy0xNi42MDcgMzcuMjI1LTM3LjIyNSAzNy4yMjVTMTAuMTQ2IDczLjQxOCAxMC4xNDYgNTIuODAxYTM3LjE1IDM3LjE1IDAgMCAxIDM3LjIyNS0zNy4yMjN6Ii8+JiN4YTs8L3N2Zz4=;fontColor=default;" parent="p-4kFKT5CtGWcOaHjdYM-1" vertex="1">
          <mxGeometry x="1911" y="981" width="38" height="40" as="geometry" />
        </mxCell>
        <mxCell id="p-4kFKT5CtGWcOaHjdYM-212" value="Audi Smart" style="shape=image;verticalLabelPosition=middle;labelBackgroundColor=default;verticalAlign=middle;aspect=fixed;imageAspect=0;image=https://d22e4d61ky6061.cloudfront.net/sites/default/files/Salesforce_0.png;fontSize=12;fontColor=default;fontFamily=Helvetica;labelPosition=right;align=left;" parent="p-4kFKT5CtGWcOaHjdYM-1" vertex="1">
          <mxGeometry x="2140" y="1205.75" width="90" height="90" as="geometry" />
        </mxCell>
        <mxCell id="p-4kFKT5CtGWcOaHjdYM-213" value="One-CRM" style="shape=image;verticalLabelPosition=middle;labelBackgroundColor=default;verticalAlign=middle;aspect=fixed;imageAspect=0;image=https://d22e4d61ky6061.cloudfront.net/sites/default/files/Salesforce_0.png;fontSize=12;fontColor=default;fontFamily=Helvetica;labelPosition=right;align=left;" parent="p-4kFKT5CtGWcOaHjdYM-1" vertex="1">
          <mxGeometry x="2140" y="1279" width="90" height="90" as="geometry" />
        </mxCell>
        <mxCell id="p-4kFKT5CtGWcOaHjdYM-214" value="Subscriber / &#xa;Publisher" style="shape=image;verticalLabelPosition=middle;labelBackgroundColor=default;verticalAlign=middle;aspect=fixed;imageAspect=0;image=https://d2has6dvjv0i3b.cloudfront.net/products/anypoint_mq/logo_1681517772.651571.png;labelPosition=right;align=left;" parent="p-4kFKT5CtGWcOaHjdYM-1" vertex="1">
          <mxGeometry x="2141" y="1369" width="49" height="49" as="geometry" />
        </mxCell>
        <mxCell id="p-4kFKT5CtGWcOaHjdYM-215" value="&lt;span style=&quot;background-color:#ffffff;padding:0px 0px 0px 2px;&quot;&gt;&lt;span style=&quot;white-space: pre;&quot;&gt;&lt;font style=&quot;color: rgb(0, 0, 0);&quot; face=&quot;Helvetica&quot;&gt;sapi-customer-sfdc-rocky-generic&lt;/font&gt;&lt;/span&gt;&lt;/span&gt;" style="rounded=1;whiteSpace=wrap;html=1;fontSize=12;fontFamily=Helvetica;labelBackgroundColor=none;fontColor=default;" parent="p-4kFKT5CtGWcOaHjdYM-1" vertex="1">
          <mxGeometry x="2140" y="1150" width="280" height="60" as="geometry" />
        </mxCell>
        <mxCell id="p-4kFKT5CtGWcOaHjdYM-216" value="&lt;span style=&quot;background-color:#ffffff;padding:0px 0px 0px 2px;&quot;&gt;&lt;span style=&quot;white-space: pre;&quot;&gt;&lt;font style=&quot;color: rgb(0, 0, 0);&quot; face=&quot;Helvetica&quot;&gt;papi-order-onecrm-generic&lt;/font&gt;&lt;/span&gt;&lt;/span&gt;" style="rounded=1;whiteSpace=wrap;html=1;fontSize=12;fontFamily=Helvetica;labelBackgroundColor=none;" parent="p-4kFKT5CtGWcOaHjdYM-1" vertex="1">
          <mxGeometry x="2140" y="1070" width="280" height="60" as="geometry" />
        </mxCell>
        <mxCell id="p-4kFKT5CtGWcOaHjdYM-217" value="POST&lt;br&gt;&lt;span style=&quot;white-space: pre; background-color: rgb(255, 255, 255);&quot;&gt;/&lt;/span&gt;product-orders" style="rounded=1;whiteSpace=wrap;html=1;fontSize=12;fontColor=default;fontFamily=Helvetica;" parent="p-4kFKT5CtGWcOaHjdYM-1" vertex="1">
          <mxGeometry x="1620" y="1231.38" width="125" height="40" as="geometry" />
        </mxCell>
        <mxCell id="p-4kFKT5CtGWcOaHjdYM-218" value="PUT&lt;br&gt;&lt;span style=&quot;white-space: pre; background-color: rgb(255, 255, 255);&quot;&gt;/&lt;/span&gt;product-orders/documents/{file-name}" style="rounded=1;whiteSpace=wrap;html=1;fontSize=12;fontColor=default;fontFamily=Helvetica;align=center;" parent="p-4kFKT5CtGWcOaHjdYM-1" vertex="1">
          <mxGeometry x="1520" y="1291.13" width="225" height="40" as="geometry" />
        </mxCell>
        <mxCell id="p-4kFKT5CtGWcOaHjdYM-219" value="POST&lt;br&gt;&lt;span style=&quot;white-space: pre; background-color: rgb(255, 255, 255);&quot;&gt;/&lt;/span&gt;orders" style="rounded=1;whiteSpace=wrap;html=1;fontSize=12;fontColor=default;fontFamily=Helvetica;align=center;" parent="p-4kFKT5CtGWcOaHjdYM-1" vertex="1">
          <mxGeometry x="1620" y="1169.88" width="125" height="40" as="geometry" />
        </mxCell>
        <mxCell id="p-4kFKT5CtGWcOaHjdYM-220" style="edgeStyle=orthogonalEdgeStyle;curved=1;rounded=0;orthogonalLoop=1;jettySize=auto;html=1;entryX=0.997;entryY=0.454;entryDx=0;entryDy=0;entryPerimeter=0;" parent="p-4kFKT5CtGWcOaHjdYM-1" source="p-4kFKT5CtGWcOaHjdYM-157" target="p-4kFKT5CtGWcOaHjdYM-217" edge="1">
          <mxGeometry relative="1" as="geometry" />
        </mxCell>
        <mxCell id="p-4kFKT5CtGWcOaHjdYM-221" value="Cron Job&lt;br&gt;&lt;span style=&quot;padding: 0px 0px 0px 2px;&quot;&gt;&lt;span style=&quot;white-space-collapse: preserve;&quot;&gt;&lt;span style=&quot;&quot;&gt;&lt;font face=&quot;Helvetica&quot; style=&quot;&quot;&gt;Every 15 minutes&lt;/font&gt;&lt;/span&gt;&lt;/span&gt;&lt;/span&gt;" style="editableCssRules=.*;html=1;shape=image;verticalLabelPosition=bottom;labelBackgroundColor=#ffffff;verticalAlign=top;aspect=fixed;imageAspect=0;image=data:image/svg+xml,PHN2ZyB4bWxucz0iaHR0cDovL3d3dy53My5vcmcvMjAwMC9zdmciIHhtbG5zOnY9Imh0dHBzOi8vdmVjdGEuaW8vbmFubyIgd2lkdGg9IjM2MC4zMDM3NjY4NjA4MzYzIiBoZWlnaHQ9IjM3OC4wNTExNTgwNzc0MDg4IiB2aWV3Qm94PSItMC4wMDAxNjI0MjExNDM2MTM3NTU3IC0wLjAwMDEwMDAwNTk0OTIwNzExNTkyIDk1LjMzMDI2MTIzMDQ2ODc1IDEwMC4wMjYxMDAxNTg2OTE0Ij4mI3hhOzxzdHlsZSB0eXBlPSJ0ZXh0L2NzcyI+JiN4YTsJLnN0MHtmaWxsOiM0Mjg1ZjQ7fSYjeGE7CS5zdDF7ZmlsbDojYWVjYmZhO30mI3hhOwkuc3Qye2ZpbGw6IzY2OWRmNjt9JiN4YTs8L3N0eWxlPiYjeGE7CTxwYXRoIGNsYXNzPSJzdDAiIGQ9Ik03OS45NzEgNzcuNzE1bC03LjM1OSA3LjQ4OCA4LjYzOSA4LjQ5IDcuMzU5LTcuNDg4em0tNjUuMDk2LjA2MWwtOC42NDEgOC40OTIgNy4zNjEgNy40ODggOC42MzktOC40OXoiLz4mI3hhOwk8cGF0aCBjbGFzcz0ic3QxIiBkPSJNNzkuNTUzLjIyMWE1LjI1IDUuMjUgMCAwIDAtMy42NiA4Ljk4NEw4Ni4zODkgMTkuNThhNS4yNSA1LjI1IDAgMCAwIDguOTQxLTMuNzY1IDUuMjUgNS4yNSAwIDAgMC0xLjU2LTMuNzA0TDgzLjI3NSAxLjczOEE1LjI1IDUuMjUgMCAwIDAgNzkuNTUzLjIyMXpNMTUuOTE2IDBhNS4yNSA1LjI1IDAgMCAwLTMuNzIzIDEuNTE2TDEuNjk5IDExLjg5MWE1LjI1IDUuMjUgMCAwIDAtLjA0MyA3LjQyNCA1LjI1IDUuMjUgMCAwIDAgNy40MjQuMDQzTDE5LjU3NiA4Ljk4MkE1LjI1IDUuMjUgMCAwIDAgMTUuOTE2IDB6Ii8+JiN4YTsJPHBhdGggY2xhc3M9InN0MCIgZD0iTTQ4LjEzOCAyNi4yNGMxMy4zNDcgMCAyNS40MzIgMTEuMTM2IDI1LjMxIDI2LjQ4MSAwIDE1LjExLTEyLjI2NyAyNS42NzMtMjUuMTg5IDI1LjY3My0xMS4xNDkgMC0xOC4zMTctNS4xNzEtMjEuOTYtMTAuNzM4bDIxLjgzOS0xNS4wOTd6Ii8+JiN4YTsJPHBhdGggY2xhc3M9InN0MiIgZD0iTTgxLjI1IDkzLjY5M2w0LjY2NCA0LjU4NmE1LjI1IDUuMjUgMCAxIDAgNy4zNjEtNy40OWwtNC42NjYtNC41ODR6TTYuMjM0IDg2LjI2OEwxLjU3IDkwLjg1MWE1LjI1IDUuMjUgMCAwIDAtLjA2NSA3LjQyNCA1LjI1IDUuMjUgMCAwIDAgNy40MjQuMDY0bDQuNjY2LTQuNTg0ek00Ny4zNzEgNS41NzhDMjEuMzQ5IDUuNTc4LjE0NiAyNi43NzkuMTQ2IDUyLjgwMXMyMS4yMDMgNDcuMjI1IDQ3LjIyNSA0Ny4yMjUgNDcuMjI1LTIxLjIwMyA0Ny4yMjUtNDcuMjI1UzczLjM5MyA1LjU3OCA0Ny4zNzEgNS41Nzh6bTAgMTBhMzcuMTUgMzcuMTUgMCAwIDEgMzcuMjI1IDM3LjIyM2MwIDIwLjYxNy0xNi42MDcgMzcuMjI1LTM3LjIyNSAzNy4yMjVTMTAuMTQ2IDczLjQxOCAxMC4xNDYgNTIuODAxYTM3LjE1IDM3LjE1IDAgMCAxIDM3LjIyNS0zNy4yMjN6Ii8+JiN4YTs8L3N2Zz4=;fontColor=default;" parent="p-4kFKT5CtGWcOaHjdYM-1" vertex="1">
          <mxGeometry x="1911" y="1321" width="38" height="40" as="geometry" />
        </mxCell>
        <mxCell id="p-4kFKT5CtGWcOaHjdYM-222" value="Subscriber / &#xa;Publisher" style="shape=image;verticalLabelPosition=middle;labelBackgroundColor=default;verticalAlign=middle;aspect=fixed;imageAspect=0;image=https://d2has6dvjv0i3b.cloudfront.net/products/anypoint_mq/logo_1681517772.651571.png;labelPosition=right;align=left;" parent="p-4kFKT5CtGWcOaHjdYM-1" vertex="1">
          <mxGeometry x="2141" y="1631" width="49" height="49" as="geometry" />
        </mxCell>
        <mxCell id="p-4kFKT5CtGWcOaHjdYM-223" value="Audi Smart" style="shape=image;verticalLabelPosition=middle;labelBackgroundColor=default;verticalAlign=middle;aspect=fixed;imageAspect=0;image=https://d22e4d61ky6061.cloudfront.net/sites/default/files/Salesforce_0.png;fontSize=12;fontColor=default;fontFamily=Helvetica;labelPosition=right;align=left;" parent="p-4kFKT5CtGWcOaHjdYM-1" vertex="1">
          <mxGeometry x="2141" y="1545" width="90" height="90" as="geometry" />
        </mxCell>
        <mxCell id="p-4kFKT5CtGWcOaHjdYM-224" value="&lt;span style=&quot;background-color:#ffffff;padding:0px 0px 0px 2px;&quot;&gt;&lt;span style=&quot;white-space: pre;&quot;&gt;&lt;font style=&quot;color: rgb(0, 0, 0);&quot; face=&quot;Helvetica&quot;&gt;papi-vehicle-rocky-template&lt;/font&gt;&lt;/span&gt;&lt;/span&gt;" style="rounded=1;whiteSpace=wrap;html=1;fontSize=12;fontFamily=Helvetica;labelBackgroundColor=none;fontColor=default;" parent="p-4kFKT5CtGWcOaHjdYM-1" vertex="1">
          <mxGeometry x="2140" y="1485" width="280" height="60" as="geometry" />
        </mxCell>
        <mxCell id="p-4kFKT5CtGWcOaHjdYM-225" value="Cron Job&lt;br&gt;&lt;span style=&quot;padding: 0px 0px 0px 2px;&quot;&gt;&lt;span style=&quot;white-space-collapse: preserve;&quot;&gt;&lt;span style=&quot;&quot;&gt;&lt;font face=&quot;Helvetica&quot; style=&quot;&quot;&gt;Every 60 minutes&lt;/font&gt;&lt;/span&gt;&lt;/span&gt;&lt;/span&gt;" style="editableCssRules=.*;html=1;shape=image;verticalLabelPosition=bottom;labelBackgroundColor=#ffffff;verticalAlign=top;aspect=fixed;imageAspect=0;image=data:image/svg+xml,PHN2ZyB4bWxucz0iaHR0cDovL3d3dy53My5vcmcvMjAwMC9zdmciIHhtbG5zOnY9Imh0dHBzOi8vdmVjdGEuaW8vbmFubyIgd2lkdGg9IjM2MC4zMDM3NjY4NjA4MzYzIiBoZWlnaHQ9IjM3OC4wNTExNTgwNzc0MDg4IiB2aWV3Qm94PSItMC4wMDAxNjI0MjExNDM2MTM3NTU3IC0wLjAwMDEwMDAwNTk0OTIwNzExNTkyIDk1LjMzMDI2MTIzMDQ2ODc1IDEwMC4wMjYxMDAxNTg2OTE0Ij4mI3hhOzxzdHlsZSB0eXBlPSJ0ZXh0L2NzcyI+JiN4YTsJLnN0MHtmaWxsOiM0Mjg1ZjQ7fSYjeGE7CS5zdDF7ZmlsbDojYWVjYmZhO30mI3hhOwkuc3Qye2ZpbGw6IzY2OWRmNjt9JiN4YTs8L3N0eWxlPiYjeGE7CTxwYXRoIGNsYXNzPSJzdDAiIGQ9Ik03OS45NzEgNzcuNzE1bC03LjM1OSA3LjQ4OCA4LjYzOSA4LjQ5IDcuMzU5LTcuNDg4em0tNjUuMDk2LjA2MWwtOC42NDEgOC40OTIgNy4zNjEgNy40ODggOC42MzktOC40OXoiLz4mI3hhOwk8cGF0aCBjbGFzcz0ic3QxIiBkPSJNNzkuNTUzLjIyMWE1LjI1IDUuMjUgMCAwIDAtMy42NiA4Ljk4NEw4Ni4zODkgMTkuNThhNS4yNSA1LjI1IDAgMCAwIDguOTQxLTMuNzY1IDUuMjUgNS4yNSAwIDAgMC0xLjU2LTMuNzA0TDgzLjI3NSAxLjczOEE1LjI1IDUuMjUgMCAwIDAgNzkuNTUzLjIyMXpNMTUuOTE2IDBhNS4yNSA1LjI1IDAgMCAwLTMuNzIzIDEuNTE2TDEuNjk5IDExLjg5MWE1LjI1IDUuMjUgMCAwIDAtLjA0MyA3LjQyNCA1LjI1IDUuMjUgMCAwIDAgNy40MjQuMDQzTDE5LjU3NiA4Ljk4MkE1LjI1IDUuMjUgMCAwIDAgMTUuOTE2IDB6Ii8+JiN4YTsJPHBhdGggY2xhc3M9InN0MCIgZD0iTTQ4LjEzOCAyNi4yNGMxMy4zNDcgMCAyNS40MzIgMTEuMTM2IDI1LjMxIDI2LjQ4MSAwIDE1LjExLTEyLjI2NyAyNS42NzMtMjUuMTg5IDI1LjY3My0xMS4xNDkgMC0xOC4zMTctNS4xNzEtMjEuOTYtMTAuNzM4bDIxLjgzOS0xNS4wOTd6Ii8+JiN4YTsJPHBhdGggY2xhc3M9InN0MiIgZD0iTTgxLjI1IDkzLjY5M2w0LjY2NCA0LjU4NmE1LjI1IDUuMjUgMCAxIDAgNy4zNjEtNy40OWwtNC42NjYtNC41ODR6TTYuMjM0IDg2LjI2OEwxLjU3IDkwLjg1MWE1LjI1IDUuMjUgMCAwIDAtLjA2NSA3LjQyNCA1LjI1IDUuMjUgMCAwIDAgNy40MjQuMDY0bDQuNjY2LTQuNTg0ek00Ny4zNzEgNS41NzhDMjEuMzQ5IDUuNTc4LjE0NiAyNi43NzkuMTQ2IDUyLjgwMXMyMS4yMDMgNDcuMjI1IDQ3LjIyNSA0Ny4yMjUgNDcuMjI1LTIxLjIwMyA0Ny4yMjUtNDcuMjI1UzczLjM5MyA1LjU3OCA0Ny4zNzEgNS41Nzh6bTAgMTBhMzcuMTUgMzcuMTUgMCAwIDEgMzcuMjI1IDM3LjIyM2MwIDIwLjYxNy0xNi42MDcgMzcuMjI1LTM3LjIyNSAzNy4yMjVTMTAuMTQ2IDczLjQxOCAxMC4xNDYgNTIuODAxYTM3LjE1IDM3LjE1IDAgMCAxIDM3LjIyNS0zNy4yMjN6Ii8+JiN4YTs8L3N2Zz4=;fontColor=default;" parent="p-4kFKT5CtGWcOaHjdYM-1" vertex="1">
          <mxGeometry x="1911" y="1661.75" width="38" height="40" as="geometry" />
        </mxCell>
        <mxCell id="p-4kFKT5CtGWcOaHjdYM-226" value="POST&lt;br&gt;&lt;span style=&quot;white-space: pre; background-color: rgb(255, 255, 255);&quot;&gt;/&lt;font face=&quot;Menlo&quot;&gt;vehicles&lt;/font&gt;&lt;/span&gt;" style="rounded=1;whiteSpace=wrap;html=1;fontSize=12;fontColor=default;fontFamily=Helvetica;" parent="p-4kFKT5CtGWcOaHjdYM-1" vertex="1">
          <mxGeometry x="1620" y="1910.25" width="125" height="40" as="geometry" />
        </mxCell>
        <mxCell id="p-4kFKT5CtGWcOaHjdYM-227" value="POST&lt;br&gt;&lt;span style=&quot;white-space: pre; background-color: rgb(255, 255, 255);&quot;&gt;/&lt;font face=&quot;Menlo&quot;&gt;vehicles/users&lt;/font&gt;&lt;/span&gt;" style="rounded=1;whiteSpace=wrap;html=1;fontSize=12;fontColor=default;fontFamily=Helvetica;align=center;" parent="p-4kFKT5CtGWcOaHjdYM-1" vertex="1">
          <mxGeometry x="1620" y="1970" width="125" height="40" as="geometry" />
        </mxCell>
        <mxCell id="p-4kFKT5CtGWcOaHjdYM-228" value="POST&lt;br&gt;&lt;span style=&quot;white-space: pre; background-color: rgb(255, 255, 255);&quot;&gt;/&lt;font face=&quot;Menlo&quot;&gt;brands&lt;/font&gt;&lt;/span&gt;" style="rounded=1;whiteSpace=wrap;html=1;fontSize=12;fontColor=default;fontFamily=Helvetica;" parent="p-4kFKT5CtGWcOaHjdYM-1" vertex="1">
          <mxGeometry x="1620" y="1789" width="125" height="40" as="geometry" />
        </mxCell>
        <mxCell id="p-4kFKT5CtGWcOaHjdYM-229" value="POST&lt;br&gt;&lt;span style=&quot;white-space: pre; background-color: rgb(255, 255, 255);&quot;&gt;/&lt;font face=&quot;Menlo&quot;&gt;models&lt;/font&gt;&lt;/span&gt;" style="rounded=1;whiteSpace=wrap;html=1;fontSize=12;fontColor=default;fontFamily=Helvetica;align=center;" parent="p-4kFKT5CtGWcOaHjdYM-1" vertex="1">
          <mxGeometry x="1620" y="1848.75" width="125" height="40" as="geometry" />
        </mxCell>
        <mxCell id="p-4kFKT5CtGWcOaHjdYM-230" value="POST&lt;br&gt;&lt;span style=&quot;white-space: pre; background-color: rgb(255, 255, 255);&quot;&gt;/&lt;font face=&quot;Menlo&quot;&gt;mileage&lt;/font&gt;&lt;/span&gt;" style="rounded=1;whiteSpace=wrap;html=1;fontSize=12;fontColor=default;fontFamily=Helvetica;" parent="p-4kFKT5CtGWcOaHjdYM-1" vertex="1">
          <mxGeometry x="1620" y="2027" width="125" height="40" as="geometry" />
        </mxCell>
        <mxCell id="p-4kFKT5CtGWcOaHjdYM-231" value="One-CRM" style="shape=image;verticalLabelPosition=middle;labelBackgroundColor=default;verticalAlign=middle;aspect=fixed;imageAspect=0;image=https://d22e4d61ky6061.cloudfront.net/sites/default/files/Salesforce_0.png;fontSize=12;fontColor=default;fontFamily=Helvetica;labelPosition=right;align=left;" parent="p-4kFKT5CtGWcOaHjdYM-1" vertex="1">
          <mxGeometry x="2141.5" y="1848.75" width="90" height="90" as="geometry" />
        </mxCell>
        <mxCell id="p-4kFKT5CtGWcOaHjdYM-232" value="Subscriber / &#xa;Publisher" style="shape=image;verticalLabelPosition=middle;labelBackgroundColor=default;verticalAlign=middle;aspect=fixed;imageAspect=0;image=https://d2has6dvjv0i3b.cloudfront.net/products/anypoint_mq/logo_1681517772.651571.png;labelPosition=right;align=left;" parent="p-4kFKT5CtGWcOaHjdYM-1" vertex="1">
          <mxGeometry x="2140" y="1939.5" width="49" height="49" as="geometry" />
        </mxCell>
        <mxCell id="p-4kFKT5CtGWcOaHjdYM-233" value="guias" style="locked=1;" parent="0" visible="0" />
        <mxCell id="p-4kFKT5CtGWcOaHjdYM-234" value="" style="endArrow=none;html=1;rounded=0;" parent="p-4kFKT5CtGWcOaHjdYM-233" edge="1">
          <mxGeometry width="50" height="50" relative="1" as="geometry">
            <mxPoint x="-1090" y="40" as="sourcePoint" />
            <mxPoint x="2660" y="40" as="targetPoint" />
          </mxGeometry>
        </mxCell>
        <mxCell id="p-4kFKT5CtGWcOaHjdYM-235" value="" style="endArrow=none;html=1;rounded=0;" parent="p-4kFKT5CtGWcOaHjdYM-233" edge="1">
          <mxGeometry width="50" height="50" relative="1" as="geometry">
            <mxPoint x="-1070" y="230" as="sourcePoint" />
            <mxPoint x="2820" y="230" as="targetPoint" />
          </mxGeometry>
        </mxCell>
        <mxCell id="p-4kFKT5CtGWcOaHjdYM-236" value="" style="endArrow=none;html=1;rounded=0;" parent="p-4kFKT5CtGWcOaHjdYM-233" edge="1">
          <mxGeometry width="50" height="50" relative="1" as="geometry">
            <mxPoint x="-1110" y="910" as="sourcePoint" />
            <mxPoint x="2820" y="910" as="targetPoint" />
          </mxGeometry>
        </mxCell>
        <mxCell id="p-4kFKT5CtGWcOaHjdYM-237" value="" style="endArrow=none;html=1;rounded=0;" parent="p-4kFKT5CtGWcOaHjdYM-233" source="p-4kFKT5CtGWcOaHjdYM-157" edge="1">
          <mxGeometry width="50" height="50" relative="1" as="geometry">
            <mxPoint x="-1100" y="1250" as="sourcePoint" />
            <mxPoint x="2810" y="1250" as="targetPoint" />
          </mxGeometry>
        </mxCell>
        <mxCell id="p-4kFKT5CtGWcOaHjdYM-238" value="" style="endArrow=none;html=1;rounded=0;" parent="p-4kFKT5CtGWcOaHjdYM-233" edge="1">
          <mxGeometry width="50" height="50" relative="1" as="geometry">
            <mxPoint x="-1120" y="1590" as="sourcePoint" />
            <mxPoint x="2790" y="1590" as="targetPoint" />
          </mxGeometry>
        </mxCell>
        <mxCell id="p-4kFKT5CtGWcOaHjdYM-239" value="" style="endArrow=none;html=1;rounded=0;" parent="p-4kFKT5CtGWcOaHjdYM-233" edge="1">
          <mxGeometry width="50" height="50" relative="1" as="geometry">
            <mxPoint x="-1130" y="1930" as="sourcePoint" />
            <mxPoint x="2810" y="1930" as="targetPoint" />
          </mxGeometry>
        </mxCell>
        <mxCell id="p-4kFKT5CtGWcOaHjdYM-240" value="" style="endArrow=none;html=1;rounded=0;" parent="p-4kFKT5CtGWcOaHjdYM-233" edge="1">
          <mxGeometry width="50" height="50" relative="1" as="geometry">
            <mxPoint x="-1120" y="2270" as="sourcePoint" />
            <mxPoint x="2790" y="2270" as="targetPoint" />
          </mxGeometry>
        </mxCell>
        <mxCell id="p-4kFKT5CtGWcOaHjdYM-241" value="" style="endArrow=none;html=1;rounded=0;" parent="p-4kFKT5CtGWcOaHjdYM-233" edge="1">
          <mxGeometry width="50" height="50" relative="1" as="geometry">
            <mxPoint x="-1110" y="570" as="sourcePoint" />
            <mxPoint x="2800" y="568" as="targetPoint" />
          </mxGeometry>
        </mxCell>
        <mxCell id="p-4kFKT5CtGWcOaHjdYM-242" value="" style="endArrow=none;html=1;rounded=0;" parent="p-4kFKT5CtGWcOaHjdYM-233" edge="1">
          <mxGeometry width="50" height="50" relative="1" as="geometry">
            <mxPoint x="-1140" y="20" as="sourcePoint" />
            <mxPoint x="-1140" y="2460" as="targetPoint" />
          </mxGeometry>
        </mxCell>
        <mxCell id="p-4kFKT5CtGWcOaHjdYM-243" value="" style="endArrow=none;html=1;rounded=0;" parent="p-4kFKT5CtGWcOaHjdYM-233" edge="1">
          <mxGeometry width="50" height="50" relative="1" as="geometry">
            <mxPoint x="-550" y="41" as="sourcePoint" />
            <mxPoint x="-550" y="2481" as="targetPoint" />
          </mxGeometry>
        </mxCell>
        <mxCell id="p-4kFKT5CtGWcOaHjdYM-244" value="" style="endArrow=none;html=1;rounded=0;" parent="p-4kFKT5CtGWcOaHjdYM-233" edge="1">
          <mxGeometry width="50" height="50" relative="1" as="geometry">
            <mxPoint x="-340" y="31" as="sourcePoint" />
            <mxPoint x="-340" y="2471" as="targetPoint" />
          </mxGeometry>
        </mxCell>
        <mxCell id="p-4kFKT5CtGWcOaHjdYM-245" value="" style="endArrow=none;html=1;rounded=0;" parent="p-4kFKT5CtGWcOaHjdYM-233" edge="1">
          <mxGeometry width="50" height="50" relative="1" as="geometry">
            <mxPoint x="-740" y="41" as="sourcePoint" />
            <mxPoint x="-740" y="2481" as="targetPoint" />
          </mxGeometry>
        </mxCell>
        <mxCell id="p-4kFKT5CtGWcOaHjdYM-246" value="" style="endArrow=none;html=1;rounded=0;" parent="p-4kFKT5CtGWcOaHjdYM-233" edge="1">
          <mxGeometry width="50" height="50" relative="1" as="geometry">
            <mxPoint x="690" y="50" as="sourcePoint" />
            <mxPoint x="690" y="2490" as="targetPoint" />
          </mxGeometry>
        </mxCell>
        <mxCell id="p-4kFKT5CtGWcOaHjdYM-247" value="" style="endArrow=none;html=1;rounded=0;" parent="p-4kFKT5CtGWcOaHjdYM-233" edge="1">
          <mxGeometry width="50" height="50" relative="1" as="geometry">
            <mxPoint x="902" y="71" as="sourcePoint" />
            <mxPoint x="902" y="2511" as="targetPoint" />
          </mxGeometry>
        </mxCell>
        <mxCell id="p-4kFKT5CtGWcOaHjdYM-248" value="" style="endArrow=none;html=1;rounded=0;" parent="p-4kFKT5CtGWcOaHjdYM-233" edge="1">
          <mxGeometry width="50" height="50" relative="1" as="geometry">
            <mxPoint x="502" y="61" as="sourcePoint" />
            <mxPoint x="502" y="2501" as="targetPoint" />
          </mxGeometry>
        </mxCell>
        <mxCell id="p-4kFKT5CtGWcOaHjdYM-249" value="" style="endArrow=none;html=1;rounded=0;" parent="p-4kFKT5CtGWcOaHjdYM-233" edge="1">
          <mxGeometry width="50" height="50" relative="1" as="geometry">
            <mxPoint x="1930" y="20" as="sourcePoint" />
            <mxPoint x="1929" y="2460" as="targetPoint" />
          </mxGeometry>
        </mxCell>
        <mxCell id="p-4kFKT5CtGWcOaHjdYM-250" value="" style="endArrow=none;html=1;rounded=0;" parent="p-4kFKT5CtGWcOaHjdYM-233" edge="1">
          <mxGeometry width="50" height="50" relative="1" as="geometry">
            <mxPoint x="2141" y="20" as="sourcePoint" />
            <mxPoint x="2141" y="2511" as="targetPoint" />
          </mxGeometry>
        </mxCell>
        <mxCell id="p-4kFKT5CtGWcOaHjdYM-251" value="" style="endArrow=none;html=1;rounded=0;" parent="p-4kFKT5CtGWcOaHjdYM-233" edge="1">
          <mxGeometry width="50" height="50" relative="1" as="geometry">
            <mxPoint x="1741" y="20" as="sourcePoint" />
            <mxPoint x="1741" y="2460" as="targetPoint" />
          </mxGeometry>
        </mxCell>
        <mxCell id="p-4kFKT5CtGWcOaHjdYM-252" value="" style="endArrow=none;html=1;rounded=0;" parent="p-4kFKT5CtGWcOaHjdYM-233" target="p-4kFKT5CtGWcOaHjdYM-157" edge="1">
          <mxGeometry width="50" height="50" relative="1" as="geometry">
            <mxPoint x="-1100" y="1250" as="sourcePoint" />
            <mxPoint x="2810" y="1250" as="targetPoint" />
          </mxGeometry>
        </mxCell>
      </root>
    </mxGraphModel>
  </diagram>
  <diagram name="CASE" id="vgOoiqqexgspjGSWJFiu">
    <mxGraphModel dx="1421" dy="787" grid="1" gridSize="10" guides="1" tooltips="1" connect="1" arrows="1" fold="1" page="1" pageScale="1" pageWidth="1169" pageHeight="827" math="0" shadow="0">
      <root>
        <mxCell id="0" />
        <mxCell id="1" parent="0" />
        <mxCell id="CWrzhk0IPos-Akukxhot-1" value="VPC Audi AWS" style="sketch=0;outlineConnect=0;gradientColor=none;html=1;whiteSpace=wrap;fontSize=12;fontStyle=0;shape=mxgraph.aws4.group;grIcon=mxgraph.aws4.group_vpc;strokeColor=#879196;fillColor=none;verticalAlign=top;align=left;spacingLeft=30;fontColor=#879196;dashed=0;connectable=1;container=1;recursiveResize=0;collapsible=0;" vertex="1" parent="1">
          <mxGeometry x="230" y="40" width="170" height="230" as="geometry" />
        </mxCell>
        <mxCell id="CWrzhk0IPos-Akukxhot-2" value="S3" style="sketch=0;outlineConnect=0;fontColor=#232F3E;gradientColor=none;fillColor=#7AA116;strokeColor=none;dashed=0;verticalLabelPosition=bottom;verticalAlign=top;align=center;html=1;fontSize=12;fontStyle=0;aspect=fixed;pointerEvents=1;shape=mxgraph.aws4.bucket_with_objects;" vertex="1" parent="CWrzhk0IPos-Akukxhot-1">
          <mxGeometry x="54.3" y="50" width="61.4" height="63.86" as="geometry" />
        </mxCell>
        <mxCell id="CWrzhk0IPos-Akukxhot-3" value="Transit Gateway" style="sketch=0;points=[[0,0,0],[0.25,0,0],[0.5,0,0],[0.75,0,0],[1,0,0],[0,1,0],[0.25,1,0],[0.5,1,0],[0.75,1,0],[1,1,0],[0,0.25,0],[0,0.5,0],[0,0.75,0],[1,0.25,0],[1,0.5,0],[1,0.75,0]];outlineConnect=0;fontColor=#232F3E;fillColor=#8C4FFF;strokeColor=#ffffff;dashed=0;verticalLabelPosition=top;verticalAlign=bottom;align=center;html=1;fontSize=12;fontStyle=0;aspect=fixed;shape=mxgraph.aws4.resourceIcon;resIcon=mxgraph.aws4.transit_gateway;labelPosition=center;" vertex="1" parent="CWrzhk0IPos-Akukxhot-1">
          <mxGeometry x="55" y="170" width="60" height="60" as="geometry" />
        </mxCell>
        <mxCell id="CWrzhk0IPos-Akukxhot-6" value="Anypoint" style="swimlane;collapsible=0;" vertex="1" parent="1">
          <mxGeometry x="120" y="370" width="1040" height="760" as="geometry" />
        </mxCell>
        <mxCell id="K7fzuTJAYqqMXE-DLZll-10" style="edgeStyle=orthogonalEdgeStyle;rounded=0;orthogonalLoop=1;jettySize=auto;html=1;entryX=0.5;entryY=0;entryDx=0;entryDy=0;" edge="1" parent="CWrzhk0IPos-Akukxhot-6" source="CWrzhk0IPos-Akukxhot-7" target="K7fzuTJAYqqMXE-DLZll-7">
          <mxGeometry relative="1" as="geometry" />
        </mxCell>
        <mxCell id="K7fzuTJAYqqMXE-DLZll-11" style="edgeStyle=orthogonalEdgeStyle;rounded=0;orthogonalLoop=1;jettySize=auto;html=1;entryX=0.5;entryY=0;entryDx=0;entryDy=0;" edge="1" parent="CWrzhk0IPos-Akukxhot-6" source="CWrzhk0IPos-Akukxhot-7" target="K7fzuTJAYqqMXE-DLZll-8">
          <mxGeometry relative="1" as="geometry" />
        </mxCell>
        <mxCell id="K7fzuTJAYqqMXE-DLZll-12" style="edgeStyle=orthogonalEdgeStyle;rounded=0;orthogonalLoop=1;jettySize=auto;html=1;entryX=0.5;entryY=0;entryDx=0;entryDy=0;" edge="1" parent="CWrzhk0IPos-Akukxhot-6" source="CWrzhk0IPos-Akukxhot-7" target="K7fzuTJAYqqMXE-DLZll-9">
          <mxGeometry relative="1" as="geometry" />
        </mxCell>
        <mxCell id="CWrzhk0IPos-Akukxhot-7" value="&lt;span style=&quot;color: rgb(88, 89, 90); font-family: &amp;quot;DIN Pro&amp;quot;, sans-serif; background-color: rgb(255, 255, 255);&quot;&gt;&lt;font style=&quot;font-size: 16px;&quot;&gt;vpc-global-aubr-aws-integ&lt;/font&gt;&lt;/span&gt;" style="points=[[0,0],[0.25,0],[0.5,0],[0.75,0],[1,0],[1,0.25],[1,0.5],[1,0.75],[1,1],[0.75,1],[0.5,1],[0.25,1],[0,1],[0,0.75],[0,0.5],[0,0.25]];outlineConnect=0;gradientColor=none;html=1;whiteSpace=wrap;fontSize=12;fontStyle=0;container=1;pointerEvents=0;collapsible=0;recursiveResize=0;shape=mxgraph.aws4.group;grIcon=mxgraph.aws4.group_vpc2;strokeColor=#8C4FFF;fillColor=none;verticalAlign=top;align=left;spacingLeft=30;fontColor=#AAB7B8;dashed=0;" vertex="1" parent="CWrzhk0IPos-Akukxhot-6">
          <mxGeometry x="80" y="80" width="230" height="180" as="geometry" />
        </mxCell>
        <mxCell id="CWrzhk0IPos-Akukxhot-8" value="Transit Gateway" style="sketch=0;points=[[0,0,0],[0.25,0,0],[0.5,0,0],[0.75,0,0],[1,0,0],[0,1,0],[0.25,1,0],[0.5,1,0],[0.75,1,0],[1,1,0],[0,0.25,0],[0,0.5,0],[0,0.75,0],[1,0.25,0],[1,0.5,0],[1,0.75,0]];outlineConnect=0;fontColor=#232F3E;fillColor=#8C4FFF;strokeColor=#ffffff;dashed=0;verticalLabelPosition=bottom;verticalAlign=top;align=center;html=1;fontSize=12;fontStyle=0;aspect=fixed;shape=mxgraph.aws4.resourceIcon;resIcon=mxgraph.aws4.transit_gateway;labelPosition=center;" vertex="1" parent="CWrzhk0IPos-Akukxhot-7">
          <mxGeometry x="85" y="60" width="60" height="60" as="geometry" />
        </mxCell>
        <mxCell id="K7fzuTJAYqqMXE-DLZll-6" style="edgeStyle=orthogonalEdgeStyle;rounded=0;orthogonalLoop=1;jettySize=auto;html=1;entryX=0.5;entryY=0;entryDx=0;entryDy=0;" edge="1" parent="CWrzhk0IPos-Akukxhot-6" source="CWrzhk0IPos-Akukxhot-10" target="K7fzuTJAYqqMXE-DLZll-1">
          <mxGeometry relative="1" as="geometry" />
        </mxCell>
        <mxCell id="CWrzhk0IPos-Akukxhot-10" value="&lt;span style=&quot;color: rgb(88, 89, 90); font-family: &amp;quot;DIN Pro&amp;quot;, sans-serif; background-color: rgb(255, 255, 255);&quot;&gt;&lt;font&gt;vpc-prod-aubr&lt;/font&gt;&lt;/span&gt;" style="points=[[0,0],[0.25,0],[0.5,0],[0.75,0],[1,0],[1,0.25],[1,0.5],[1,0.75],[1,1],[0.75,1],[0.5,1],[0.25,1],[0,1],[0,0.75],[0,0.5],[0,0.25]];outlineConnect=0;gradientColor=none;html=1;whiteSpace=wrap;fontSize=15;fontStyle=0;container=1;pointerEvents=0;collapsible=0;recursiveResize=0;shape=mxgraph.aws4.group;grIcon=mxgraph.aws4.group_vpc2;strokeColor=#8C4FFF;fillColor=none;verticalAlign=top;align=left;spacingLeft=30;fontColor=#AAB7B8;dashed=0;" vertex="1" parent="CWrzhk0IPos-Akukxhot-6">
          <mxGeometry x="400" y="80" width="230" height="330" as="geometry" />
        </mxCell>
        <mxCell id="CWrzhk0IPos-Akukxhot-12" value="&lt;h2 style=&quot;box-sizing: border-box; font-family: &amp;quot;DIN Pro&amp;quot;, &amp;quot;Open Sans&amp;quot;, Helvetica, Arial, sans-serif; font-weight: 100; line-height: 30px; margin: 0px; letter-spacing: -0.3px; text-overflow: ellipsis; overflow: hidden; text-align: start;&quot; data-reactid=&quot;.d.0.1.0.1.0.0.0&quot;&gt;&lt;span style=&quot;box-sizing: border-box;&quot; data-reactid=&quot;.d.0.1.0.1.0.0.0.0&quot;&gt;dlb-prod-internal-aubr&lt;/span&gt;&lt;/h2&gt;" style="outlineConnect=0;dashed=0;verticalLabelPosition=bottom;verticalAlign=top;align=center;html=1;shape=mxgraph.aws3.classic_load_balancer;fillColor=#F58536;gradientColor=none;" vertex="1" parent="CWrzhk0IPos-Akukxhot-10">
          <mxGeometry x="80.5" y="54" width="69" height="72" as="geometry" />
        </mxCell>
        <mxCell id="CWrzhk0IPos-Akukxhot-26" value="&lt;h2 style=&quot;box-sizing: border-box; font-family: &amp;quot;DIN Pro&amp;quot;, &amp;quot;Open Sans&amp;quot;, Helvetica, Arial, sans-serif; font-weight: 100; line-height: 30px; margin: 0px; letter-spacing: -0.3px; text-overflow: ellipsis; overflow: hidden; text-align: start;&quot; data-reactid=&quot;.d.0.1.0.1.0.0.0&quot;&gt;&lt;span style=&quot;box-sizing: border-box;&quot; data-reactid=&quot;.d.0.1.0.1.0.0.0.0&quot;&gt;dlb-prod-external-aubr&lt;/span&gt;&lt;/h2&gt;" style="outlineConnect=0;dashed=0;verticalLabelPosition=bottom;verticalAlign=top;align=center;html=1;shape=mxgraph.aws3.classic_load_balancer;fillColor=#F58536;gradientColor=none;" vertex="1" parent="CWrzhk0IPos-Akukxhot-10">
          <mxGeometry x="80.5" y="190" width="69" height="72" as="geometry" />
        </mxCell>
        <mxCell id="K7fzuTJAYqqMXE-DLZll-4" style="edgeStyle=orthogonalEdgeStyle;rounded=0;orthogonalLoop=1;jettySize=auto;html=1;entryX=0.5;entryY=0;entryDx=0;entryDy=0;" edge="1" parent="CWrzhk0IPos-Akukxhot-6" source="CWrzhk0IPos-Akukxhot-14" target="K7fzuTJAYqqMXE-DLZll-2">
          <mxGeometry relative="1" as="geometry" />
        </mxCell>
        <mxCell id="K7fzuTJAYqqMXE-DLZll-5" style="edgeStyle=orthogonalEdgeStyle;rounded=0;orthogonalLoop=1;jettySize=auto;html=1;entryX=0.5;entryY=0;entryDx=0;entryDy=0;" edge="1" parent="CWrzhk0IPos-Akukxhot-6" source="CWrzhk0IPos-Akukxhot-14" target="K7fzuTJAYqqMXE-DLZll-3">
          <mxGeometry relative="1" as="geometry" />
        </mxCell>
        <mxCell id="CWrzhk0IPos-Akukxhot-14" value="&lt;span style=&quot;color: rgb(88, 89, 90); font-family: &amp;quot;DIN Pro&amp;quot;, sans-serif; background-color: rgb(255, 255, 255);&quot;&gt;&lt;font&gt;vpc-non-prod-aubr&lt;/font&gt;&lt;/span&gt;" style="points=[[0,0],[0.25,0],[0.5,0],[0.75,0],[1,0],[1,0.25],[1,0.5],[1,0.75],[1,1],[0.75,1],[0.5,1],[0.25,1],[0,1],[0,0.75],[0,0.5],[0,0.25]];outlineConnect=0;gradientColor=none;html=1;whiteSpace=wrap;fontSize=15;fontStyle=0;container=1;pointerEvents=0;collapsible=0;recursiveResize=0;shape=mxgraph.aws4.group;grIcon=mxgraph.aws4.group_vpc2;strokeColor=#8C4FFF;fillColor=none;verticalAlign=top;align=left;spacingLeft=30;fontColor=#AAB7B8;dashed=0;" vertex="1" parent="CWrzhk0IPos-Akukxhot-6">
          <mxGeometry x="720" y="80" width="230" height="330" as="geometry" />
        </mxCell>
        <mxCell id="CWrzhk0IPos-Akukxhot-15" value="&lt;h2 data-reactid=&quot;.d.0.1.0.1.0.0.0&quot; style=&quot;box-sizing: border-box; font-family: &amp;quot;DIN Pro&amp;quot;, &amp;quot;Open Sans&amp;quot;, Helvetica, Arial, sans-serif; font-weight: 100; line-height: 30px; margin: 0px; letter-spacing: -0.3px; text-overflow: ellipsis; overflow: hidden; text-align: start;&quot;&gt;&lt;span data-reactid=&quot;.d.0.1.0.1.0.0.0.0&quot; style=&quot;box-sizing: border-box;&quot;&gt;dlb-non-prod-internal-aubr&lt;/span&gt;&lt;/h2&gt;" style="outlineConnect=0;dashed=0;verticalLabelPosition=bottom;verticalAlign=top;align=center;html=1;shape=mxgraph.aws3.classic_load_balancer;fillColor=#F58536;gradientColor=none;fontColor=default;labelBackgroundColor=none;fontSize=12;" vertex="1" parent="CWrzhk0IPos-Akukxhot-14">
          <mxGeometry x="80.5" y="54" width="69" height="72" as="geometry" />
        </mxCell>
        <mxCell id="CWrzhk0IPos-Akukxhot-17" value="&lt;h2 style=&quot;box-sizing: border-box; font-family: &amp;quot;DIN Pro&amp;quot;, &amp;quot;Open Sans&amp;quot;, Helvetica, Arial, sans-serif; font-weight: 100; line-height: 30px; margin: 0px; letter-spacing: -0.3px; text-overflow: ellipsis; overflow: hidden; text-align: start;&quot; data-reactid=&quot;.d.0.1.0.1.0.0.0&quot;&gt;&lt;span style=&quot;box-sizing: border-box;&quot; data-reactid=&quot;.d.0.1.0.1.0.0.0.0&quot;&gt;dlb-non-prod-external-aubr&lt;/span&gt;&lt;/h2&gt;" style="outlineConnect=0;dashed=0;verticalLabelPosition=bottom;verticalAlign=top;align=center;html=1;shape=mxgraph.aws3.classic_load_balancer;fillColor=#F58536;gradientColor=none;" vertex="1" parent="CWrzhk0IPos-Akukxhot-14">
          <mxGeometry x="80.5" y="190" width="69" height="72" as="geometry" />
        </mxCell>
        <mxCell id="K7fzuTJAYqqMXE-DLZll-1" value="PROD" style="shape=image;verticalLabelPosition=bottom;labelBackgroundColor=default;verticalAlign=top;aspect=fixed;imageAspect=0;image=https://cdn.icon-icons.com/icons2/2699/PNG/512/mulesoft_logo_icon_170933.png;" vertex="1" parent="CWrzhk0IPos-Akukxhot-6">
          <mxGeometry x="479" y="457" width="72" height="72" as="geometry" />
        </mxCell>
        <mxCell id="K7fzuTJAYqqMXE-DLZll-2" value="QA" style="shape=image;verticalLabelPosition=bottom;labelBackgroundColor=default;verticalAlign=top;aspect=fixed;imageAspect=0;image=https://cdn.icon-icons.com/icons2/2699/PNG/512/mulesoft_logo_icon_170933.png;" vertex="1" parent="CWrzhk0IPos-Akukxhot-6">
          <mxGeometry x="720" y="457" width="72" height="72" as="geometry" />
        </mxCell>
        <mxCell id="K7fzuTJAYqqMXE-DLZll-3" value="INT" style="shape=image;verticalLabelPosition=bottom;labelBackgroundColor=default;verticalAlign=top;aspect=fixed;imageAspect=0;image=https://cdn.icon-icons.com/icons2/2699/PNG/512/mulesoft_logo_icon_170933.png;" vertex="1" parent="CWrzhk0IPos-Akukxhot-6">
          <mxGeometry x="878" y="457" width="72" height="72" as="geometry" />
        </mxCell>
        <mxCell id="K7fzuTJAYqqMXE-DLZll-7" value="PROD" style="shape=image;verticalLabelPosition=bottom;labelBackgroundColor=default;verticalAlign=top;aspect=fixed;imageAspect=0;image=https://cdn.icon-icons.com/icons2/2699/PNG/512/mulesoft_logo_icon_170933.png;" vertex="1" parent="CWrzhk0IPos-Akukxhot-6">
          <mxGeometry x="80" y="300" width="72" height="72" as="geometry" />
        </mxCell>
        <mxCell id="K7fzuTJAYqqMXE-DLZll-8" value="QA" style="shape=image;verticalLabelPosition=bottom;labelBackgroundColor=default;verticalAlign=top;aspect=fixed;imageAspect=0;image=https://cdn.icon-icons.com/icons2/2699/PNG/512/mulesoft_logo_icon_170933.png;" vertex="1" parent="CWrzhk0IPos-Akukxhot-6">
          <mxGeometry x="159" y="300" width="72" height="72" as="geometry" />
        </mxCell>
        <mxCell id="K7fzuTJAYqqMXE-DLZll-9" value="INT" style="shape=image;verticalLabelPosition=bottom;labelBackgroundColor=default;verticalAlign=top;aspect=fixed;imageAspect=0;image=https://cdn.icon-icons.com/icons2/2699/PNG/512/mulesoft_logo_icon_170933.png;" vertex="1" parent="CWrzhk0IPos-Akukxhot-6">
          <mxGeometry x="238" y="300" width="72" height="72" as="geometry" />
        </mxCell>
        <mxCell id="CWrzhk0IPos-Akukxhot-9" style="edgeStyle=orthogonalEdgeStyle;rounded=0;orthogonalLoop=1;jettySize=auto;html=1;" edge="1" parent="1" source="CWrzhk0IPos-Akukxhot-7" target="CWrzhk0IPos-Akukxhot-1">
          <mxGeometry relative="1" as="geometry" />
        </mxCell>
      </root>
    </mxGraphModel>
  </diagram>
</mxfile>
